{"glyphs":{"0":{"ha":792,"x_min":56,"x_max":736,"o":"m 56 400 q 99 609 56 518 q 221 752 143 700 q 397 804 299 804 q 572 752 496 804 q 692 609 649 700 q 736 401 736 518 q 692 185 736 281 q 572 36 649 90 q 397 -18 496 -18 q 221 36 299 -18 q 99 185 143 90 q 56 400 56 279 m 126 404 q 161 216 126 299 q 258 86 196 133 q 397 39 319 39 q 535 85 475 39 q 631 212 596 131 q 665 397 665 293 q 631 578 665 499 q 535 702 596 657 q 397 747 475 747 q 258 703 319 747 q 161 581 196 658 q 126 404 126 504 "},"1":{"ha":417,"x_min":14,"x_max":306,"o":"m 306 0 l 238 0 l 238 706 l 39 618 l 14 668 l 257 786 l 306 786 l 306 0 "},"2":{"ha":653,"x_min":35,"x_max":625,"o":"m 304 804 q 447 775 385 804 q 546 696 510 746 q 582 581 582 646 q 559 479 582 529 q 490 378 536 429 q 375 272 444 328 l 104 54 l 614 54 l 625 0 l 35 0 l 35 69 l 347 331 q 445 422 410 383 q 495 498 481 461 q 510 579 510 535 q 451 701 510 653 q 301 749 392 749 q 211 738 251 749 q 140 713 171 728 q 83 685 108 699 l 53 732 q 153 780 92 756 q 304 804 215 804 "},"3":{"ha":621,"x_min":0,"x_max":558,"o":"m 285 804 q 428 772 371 804 q 513 689 485 740 q 542 579 542 638 q 520 488 542 529 q 463 416 499 446 q 383 372 428 386 q 475 329 436 361 q 536 251 514 297 q 558 147 558 204 q 522 19 558 76 q 420 -72 486 -39 q 264 -106 354 -106 q 117 -83 186 -106 q 0 -33 47 -60 l 46 14 q 143 -32 94 -15 q 268 -49 192 -49 q 374 -24 324 -49 q 456 45 424 1 q 488 144 488 89 q 423 288 488 233 q 214 343 358 343 l 189 343 l 175 397 l 222 397 q 405 448 339 397 q 471 578 471 499 q 448 658 471 619 q 382 722 425 697 q 281 747 339 747 q 149 724 206 747 q 58 679 92 701 l 15 722 q 135 781 69 757 q 285 804 201 804 "},"4":{"ha":711,"x_min":14,"x_max":683,"o":"m 683 157 l 672 103 l 521 103 l 521 -96 l 453 -96 l 453 103 l 26 103 l 14 174 l 482 793 l 521 793 l 521 157 l 683 157 m 453 653 l 83 157 l 453 157 l 453 653 "},"5":{"ha":682,"x_min":56,"x_max":626,"o":"m 161 319 l 111 319 l 132 786 l 572 786 l 568 732 l 194 732 l 179 401 q 260 444 217 429 q 338 458 303 458 q 503 420 440 458 q 597 319 567 382 q 626 181 626 256 q 590 39 626 104 q 482 -66 553 -26 q 306 -106 411 -106 q 210 -95 256 -106 q 127 -69 165 -85 q 56 -36 89 -53 l 89 14 q 192 -32 138 -15 q 311 -49 247 -49 q 491 16 428 -49 q 554 181 554 81 q 497 341 554 281 q 343 401 439 401 q 238 376 288 401 q 161 319 189 350 "},"6":{"ha":683,"x_min":56,"x_max":628,"o":"m 90 396 q 145 455 111 422 q 230 513 179 488 q 351 538 281 538 q 502 499 440 538 q 596 397 564 460 q 628 264 628 335 q 593 127 628 192 q 497 22 558 63 q 353 -18 435 -18 q 198 26 265 -18 q 93 154 131 69 q 56 361 56 239 q 82 533 56 456 q 155 671 108 610 q 261 776 201 732 q 388 846 321 819 q 521 881 454 872 l 546 825 q 433 801 492 822 q 318 740 374 779 q 218 647 263 701 q 147 524 174 592 q 121 375 121 456 q 147 193 121 268 q 225 78 174 118 q 350 39 276 39 q 463 72 417 39 q 533 154 508 104 q 557 257 557 204 q 533 370 557 319 q 463 451 508 421 q 351 481 417 481 q 254 460 301 481 q 171 409 207 440 q 114 344 135 378 l 90 396 "},"7":{"ha":596,"x_min":14,"x_max":568,"o":"m 235 -96 l 171 -68 l 500 732 l 25 732 l 14 786 l 538 786 l 568 746 l 235 -96 "},"8":{"ha":696,"x_min":56,"x_max":640,"o":"m 349 893 q 494 860 439 893 q 576 775 550 826 q 601 668 601 724 q 579 583 601 621 q 523 516 557 544 q 451 471 489 488 q 544 426 501 460 q 614 342 588 392 q 640 235 640 293 q 608 110 640 168 q 512 17 576 53 q 349 -18 447 -18 q 185 16 250 -18 q 88 108 119 50 q 56 235 56 165 q 81 335 56 285 q 150 422 107 385 q 246 471 193 460 q 138 547 182 496 q 94 668 94 599 q 121 778 94 726 q 203 861 147 829 q 349 893 260 893 m 344 836 q 243 813 283 836 q 183 751 203 789 q 164 672 164 714 q 212 563 164 614 q 349 500 260 513 q 448 535 407 508 q 511 599 489 563 q 533 672 533 636 q 488 786 533 736 q 344 836 442 836 m 349 439 q 182 365 238 425 q 126 225 126 304 q 156 130 126 172 q 235 63 185 88 q 349 39 286 39 q 460 63 410 39 q 540 130 510 88 q 569 225 569 172 q 514 365 569 304 q 349 439 458 425 "},"9":{"ha":683,"x_min":56,"x_max":628,"o":"m 593 389 q 539 331 574 364 q 453 272 504 297 q 332 247 403 247 q 181 286 243 247 q 88 388 119 325 q 56 521 56 451 q 90 658 56 593 q 188 763 125 722 q 331 803 250 803 q 486 759 419 803 q 590 631 553 715 q 628 424 628 547 q 601 253 628 331 q 528 114 575 175 q 422 9 482 53 q 296 -61 363 -35 q 163 -96 229 -87 l 138 -40 q 251 -16 192 -37 q 365 44 310 6 q 465 138 421 83 q 536 261 510 193 q 563 410 563 329 q 536 592 563 517 q 459 706 510 667 q 333 746 408 746 q 222 713 268 746 q 151 631 175 681 q 126 528 126 581 q 151 415 126 467 q 222 334 175 364 q 332 304 268 304 q 430 324 383 304 q 513 376 476 344 q 569 440 550 408 l 593 389 "},"\u0000":{"ha":0,"x_min":0,"x_max":0,"o":""},"\r":{"ha":0,"x_min":0,"x_max":0,"o":""}," ":{"ha":333,"x_min":0,"x_max":0,"o":""}," ":{"ha":333,"x_min":0,"x_max":0,"o":""},"‌":{"ha":0,"x_min":-35,"x_max":33,"o":"m -35 -94 l -35 1528 l 33 1528 l 33 -94 l -35 -94 "},"‍":{"ha":0,"x_min":-157,"x_max":158,"o":"m 0 1425 l 103 1528 l 158 1472 l 56 1369 l 158 1267 l 104 1213 l 33 1274 l 33 -94 l -35 -94 l -35 1272 l -103 1213 l -157 1267 l -54 1369 l -157 1472 l -101 1528 l 0 1425 "},"◌":{"ha":854,"x_min":69,"x_max":785,"o":"m 426 638 q 397 649 408 638 q 386 678 386 660 q 397 708 386 696 q 426 719 408 719 q 456 708 444 719 q 467 678 467 696 q 456 649 467 660 q 426 638 444 638 m 551 617 q 511 657 511 617 q 522 686 511 675 q 551 697 533 697 q 581 686 569 697 q 592 657 592 675 q 581 628 592 639 q 551 617 569 617 m 303 697 q 332 686 321 697 q 343 657 343 675 q 332 628 343 639 q 303 617 321 617 q 274 628 285 617 q 263 657 263 639 q 274 686 263 675 q 303 697 285 697 m 657 546 q 628 557 639 546 q 617 586 617 568 q 628 616 617 604 q 657 628 639 628 q 687 616 675 628 q 699 586 699 604 q 687 557 699 568 q 657 546 675 546 m 197 628 q 226 616 215 628 q 238 586 238 604 q 226 557 238 568 q 197 546 215 546 q 167 557 179 546 q 156 586 156 568 q 167 616 156 604 q 197 628 179 628 m 724 436 q 694 447 706 436 q 683 476 683 458 q 694 506 683 494 q 724 518 706 518 q 753 506 742 518 q 764 476 764 494 q 753 447 764 458 q 724 436 742 436 m 131 518 q 160 506 149 518 q 171 476 171 494 q 160 447 171 458 q 131 436 149 436 q 101 447 113 436 q 89 476 89 458 q 101 506 89 494 q 131 518 113 518 m 743 318 q 714 328 725 318 q 703 357 703 339 q 714 388 703 376 q 743 399 725 399 q 773 388 761 399 q 785 357 785 376 q 773 328 785 339 q 743 318 761 318 m 111 399 q 140 388 129 399 q 151 357 151 376 q 140 328 151 339 q 111 318 129 318 q 81 328 93 318 q 69 357 69 339 q 81 388 69 376 q 111 399 93 399 m 724 201 q 694 213 706 201 q 683 242 683 224 q 694 271 683 260 q 724 282 706 282 q 753 271 742 282 q 764 242 764 260 q 753 213 764 224 q 724 201 742 201 m 131 282 q 160 271 149 282 q 171 242 171 260 q 160 213 171 224 q 131 201 149 201 q 101 213 113 201 q 89 242 89 224 q 101 271 89 260 q 131 282 113 282 m 658 90 q 629 101 640 90 q 618 131 618 113 q 629 160 618 149 q 658 171 640 171 q 688 160 676 171 q 700 131 700 149 q 688 101 700 113 q 658 90 676 90 m 196 171 q 225 160 214 171 q 236 131 236 149 q 225 101 236 113 q 196 90 214 90 q 166 101 178 90 q 154 131 154 113 q 166 160 154 149 q 196 171 178 171 m 303 103 q 332 91 321 103 q 343 61 343 79 q 332 32 343 43 q 303 21 321 21 q 274 32 285 21 q 263 61 263 43 q 274 91 263 79 q 303 103 285 103 m 551 21 q 522 32 533 21 q 511 61 511 43 q 522 91 511 79 q 551 103 533 103 q 581 91 569 103 q 592 61 592 79 q 581 32 592 43 q 551 21 569 21 m 426 0 q 397 11 408 0 q 386 40 386 22 q 397 70 386 58 q 426 82 408 82 q 456 70 444 82 q 467 40 467 58 q 456 11 467 22 q 426 0 444 0 "},"A":{"ha":794,"x_min":14,"x_max":781,"o":"m 579 350 l 390 853 l 208 350 l 579 350 m 357 944 l 421 944 l 781 7 l 711 -8 l 599 296 l 189 296 l 82 0 l 14 0 l 357 944 "},"B":{"ha":785,"x_min":139,"x_max":729,"o":"m 374 0 l 139 0 l 139 944 l 336 944 q 513 922 436 944 q 633 847 589 900 q 676 699 676 793 q 635 579 676 628 q 536 503 593 531 q 676 418 622 476 q 729 261 729 360 q 701 136 729 186 q 624 56 674 86 q 511 13 575 26 q 374 0 447 0 m 353 890 l 208 890 l 208 517 l 335 517 q 468 535 407 518 q 567 591 529 551 q 604 697 604 631 q 573 812 604 769 q 485 872 542 854 q 353 890 429 890 m 406 463 l 208 463 l 208 54 l 390 54 q 526 75 465 54 q 622 141 586 96 q 657 258 657 186 q 588 413 657 364 q 406 463 519 463 "},"C":{"ha":768,"x_min":69,"x_max":726,"o":"m 726 913 l 699 863 q 643 884 671 875 q 581 899 615 893 q 497 904 547 904 q 319 851 399 904 q 192 699 239 797 q 146 468 146 601 q 169 306 146 383 q 235 169 192 229 q 341 75 278 110 q 485 40 404 40 q 608 53 560 40 q 693 82 656 65 l 726 32 q 661 6 701 18 q 576 -12 621 -6 q 492 -19 532 -19 q 303 20 383 -19 q 172 128 224 60 q 95 283 121 196 q 69 467 69 371 q 99 661 69 571 q 183 819 128 751 q 318 926 238 888 q 500 964 399 964 q 572 958 529 964 q 658 942 615 953 q 726 913 701 931 "},"D":{"ha":919,"x_min":139,"x_max":850,"o":"m 446 0 l 139 0 l 139 944 l 450 944 q 683 881 596 944 q 810 713 771 818 q 850 478 850 607 q 806 238 850 347 q 674 65 763 129 q 446 0 585 0 m 461 890 l 207 890 l 207 54 l 447 54 q 622 109 547 54 q 738 260 696 164 q 779 476 779 356 q 744 683 779 589 q 640 833 710 776 q 461 890 569 890 "},"E":{"ha":688,"x_min":139,"x_max":660,"o":"m 660 0 l 139 0 l 139 944 l 621 944 l 628 890 l 207 890 l 207 511 l 540 511 l 547 457 l 207 457 l 207 54 l 651 54 l 660 0 "},"F":{"ha":643,"x_min":139,"x_max":615,"o":"m 525 506 l 533 451 l 207 451 l 207 0 l 139 0 l 139 944 l 606 944 l 615 890 l 207 890 l 207 506 l 525 506 "},"G":{"ha":853,"x_min":69,"x_max":769,"o":"m 486 421 l 494 475 l 767 475 l 767 43 q 701 12 742 26 q 615 -11 660 -3 q 531 -19 571 -19 q 284 44 388 -19 q 125 219 181 108 q 69 467 69 329 q 104 666 69 575 q 202 824 139 757 q 351 927 265 890 q 539 964 438 964 q 613 958 568 964 q 701 942 657 953 q 769 913 744 931 l 743 867 q 688 888 715 879 q 626 902 660 897 q 542 907 592 907 q 383 874 456 907 q 258 783 311 842 q 175 643 204 724 q 146 467 146 563 q 195 247 146 343 q 331 95 244 150 q 529 40 418 40 q 622 50 579 40 q 699 72 664 60 l 699 421 l 486 421 "},"H":{"ha":910,"x_min":139,"x_max":771,"o":"m 771 0 l 703 0 l 703 451 l 207 451 l 207 0 l 139 0 l 139 944 l 207 951 l 207 506 l 703 506 l 703 944 l 771 944 l 771 0 "},"I":{"ha":346,"x_min":139,"x_max":207,"o":"m 207 0 l 139 0 l 139 944 l 207 944 l 207 0 "},"J":{"ha":329,"x_min":14,"x_max":204,"o":"m 136 68 l 136 944 l 204 944 l 204 58 q 193 -34 204 3 q 148 -96 182 -71 q 47 -142 114 -121 l 14 -97 q 88 -62 61 -79 q 125 -17 114 -46 q 136 68 136 13 "},"K":{"ha":806,"x_min":139,"x_max":792,"o":"m 706 0 l 792 0 l 374 551 l 721 921 l 674 965 l 207 451 l 207 944 l 139 944 l 139 0 l 207 0 l 207 374 l 328 503 l 706 0 "},"L":{"ha":682,"x_min":139,"x_max":668,"o":"m 661 54 l 668 0 l 139 0 l 139 944 l 207 944 l 207 54 l 661 54 "},"M":{"ha":1004,"x_min":139,"x_max":865,"o":"m 518 346 l 490 340 l 207 779 l 207 0 l 139 0 l 139 944 l 169 944 l 501 442 l 828 944 l 865 944 l 865 0 l 797 0 l 797 786 l 518 346 "},"N":{"ha":914,"x_min":139,"x_max":775,"o":"m 207 0 l 139 0 l 139 944 l 178 944 l 660 236 l 707 154 l 707 944 l 775 944 l 775 0 l 738 0 l 226 757 l 207 797 l 207 0 "},"O":{"ha":982,"x_min":69,"x_max":913,"o":"m 488 -19 q 707 45 611 -19 q 858 222 803 110 q 913 479 913 335 q 859 731 913 621 q 711 904 806 842 q 496 967 617 967 q 276 902 372 967 q 124 725 179 838 q 69 468 69 613 q 124 216 69 326 q 272 43 178 106 q 488 -19 367 -19 m 485 38 q 310 93 386 38 q 190 247 233 149 q 146 469 146 344 q 191 696 146 597 q 316 851 236 794 q 497 908 396 908 q 672 853 596 908 q 792 700 749 797 q 836 478 836 603 q 791 251 836 350 q 667 94 746 151 q 485 38 588 38 "},"P":{"ha":761,"x_min":139,"x_max":706,"o":"m 207 0 l 139 0 l 139 944 l 365 944 q 540 916 464 944 q 661 825 617 888 q 706 660 706 763 q 678 528 706 583 q 601 437 650 472 q 488 384 553 401 q 350 367 424 367 l 207 367 l 207 0 m 382 889 l 207 889 l 207 421 l 367 421 q 503 447 442 421 q 600 527 564 474 q 636 658 636 581 q 604 791 636 740 q 515 865 572 842 q 382 889 458 889 "},"Q":{"ha":982,"x_min":69,"x_max":913,"o":"m 610 290 l 903 1 l 858 -33 l 563 244 l 610 290 m 496 967 q 711 904 617 967 q 859 731 806 842 q 913 479 913 621 q 858 222 913 335 q 707 45 803 110 q 488 -19 611 -19 q 272 43 367 -19 q 124 216 178 106 q 69 468 69 326 q 124 725 69 613 q 276 902 179 838 q 496 967 372 967 m 146 469 q 190 247 146 344 q 310 93 233 149 q 485 38 386 38 q 667 94 588 38 q 791 251 746 151 q 836 478 836 350 q 792 700 836 603 q 672 853 749 797 q 497 908 596 908 q 316 851 396 908 q 191 696 236 794 q 146 469 146 597 "},"R":{"ha":794,"x_min":139,"x_max":781,"o":"m 368 889 l 207 889 l 207 451 l 353 451 q 488 474 424 451 q 594 545 553 496 q 636 672 636 594 q 599 800 636 753 q 501 868 563 847 q 368 889 440 889 m 139 944 l 365 944 q 540 919 464 944 q 661 834 617 893 q 706 675 706 775 q 658 519 706 579 q 535 429 610 458 l 781 0 l 704 0 l 476 411 q 414 401 446 404 q 350 397 382 397 l 207 397 l 207 0 l 139 0 l 139 944 "},"S":{"ha":700,"x_min":69,"x_max":644,"o":"m 76 40 l 97 94 q 158 70 122 83 q 238 49 194 57 q 328 40 282 40 q 463 66 408 40 q 545 133 517 92 q 574 222 574 175 q 546 314 574 274 q 463 389 518 354 q 322 458 407 424 q 214 513 261 483 q 135 576 167 542 q 86 651 103 610 q 69 743 69 693 q 104 858 69 807 q 203 938 139 908 q 356 967 267 967 q 486 950 425 967 q 589 913 547 933 l 558 863 q 506 885 535 874 q 442 903 478 896 q 358 910 407 910 q 200 859 258 910 q 142 736 142 808 q 170 642 142 683 q 255 564 199 600 q 393 493 311 528 q 503 438 456 467 q 581 376 550 410 q 628 304 613 343 q 644 218 644 265 q 608 95 644 149 q 502 12 572 42 q 329 -18 432 -18 q 262 -13 300 -18 q 185 1 224 -8 q 118 20 147 10 q 76 40 89 31 "},"T":{"ha":742,"x_min":14,"x_max":728,"o":"m 721 944 l 728 890 l 404 890 l 404 0 l 336 0 l 336 890 l 14 890 l 14 944 l 721 944 "},"U":{"ha":914,"x_min":125,"x_max":789,"o":"m 193 944 l 193 328 q 226 182 193 247 q 318 78 258 117 q 457 40 378 40 q 599 78 540 40 q 690 182 658 117 q 721 328 721 247 l 721 944 l 789 944 l 789 332 q 751 153 789 232 q 639 28 713 74 q 457 -17 565 -17 q 277 28 351 -17 q 164 153 203 74 q 125 332 125 232 l 125 944 l 193 944 "},"V":{"ha":794,"x_min":14,"x_max":781,"o":"m 83 951 l 404 90 l 713 943 l 781 943 l 438 -1 l 374 -1 l 14 936 l 83 951 "},"W":{"ha":1128,"x_min":14,"x_max":1114,"o":"m 1114 943 l 1046 943 l 835 110 l 600 943 l 532 943 l 321 110 l 83 951 l 14 936 l 290 -1 l 354 -1 l 565 824 l 804 -1 l 868 -1 l 1114 943 "},"X":{"ha":726,"x_min":14,"x_max":713,"o":"m 94 0 l 14 0 l 329 486 l 53 928 l 119 960 l 376 526 l 638 944 l 713 944 l 414 468 l 713 0 l 631 0 l 363 432 l 94 0 "},"Y":{"ha":736,"x_min":14,"x_max":722,"o":"m 394 0 l 326 0 l 326 374 l 14 928 l 82 957 l 360 446 l 643 944 l 722 944 l 394 381 l 394 0 "},"Z":{"ha":749,"x_min":42,"x_max":707,"o":"m 693 54 l 700 0 l 50 0 l 42 69 l 643 890 l 79 890 l 65 944 l 700 944 l 707 876 l 110 54 l 693 54 "},"a":{"ha":660,"x_min":72,"x_max":568,"o":"m 143 189 q 163 113 143 147 q 218 59 182 79 q 304 39 254 39 q 419 72 369 39 q 500 151 468 104 l 500 339 l 318 339 q 185 295 226 339 q 143 189 143 251 m 146 588 l 119 633 q 185 664 146 651 q 266 684 225 676 q 335 692 307 692 q 464 665 413 692 q 542 588 515 638 q 568 472 568 539 l 568 0 l 515 0 l 504 72 q 416 8 469 33 q 299 -18 363 -18 q 128 42 185 -18 q 72 189 72 101 q 140 338 72 285 q 313 390 207 390 l 500 390 l 500 474 q 460 589 500 543 q 339 635 421 635 q 229 621 271 635 q 146 588 188 607 "},"b":{"ha":711,"x_min":111,"x_max":656,"o":"m 150 0 l 111 0 l 111 967 l 179 981 l 179 82 l 150 0 m 172 536 l 144 583 q 206 641 172 617 q 280 678 240 665 q 365 692 319 692 q 529 646 465 692 q 624 519 593 600 q 656 333 656 439 q 622 153 656 233 q 522 28 589 74 q 356 -18 456 -18 q 269 -1 313 -18 q 192 39 226 15 q 138 82 157 63 l 165 128 q 247 67 200 94 q 358 39 294 39 q 483 79 433 39 q 559 187 533 119 q 585 332 585 254 q 561 484 585 415 q 490 594 538 553 q 365 635 442 635 q 252 606 296 635 q 172 536 208 576 "},"c":{"ha":624,"x_min":56,"x_max":574,"o":"m 539 86 l 567 39 q 501 9 539 22 q 426 -11 464 -4 q 360 -18 389 -18 q 193 28 261 -18 q 90 155 125 74 q 56 340 56 236 q 92 521 56 442 q 200 646 129 600 q 369 692 271 692 q 435 684 397 692 q 510 664 472 676 q 574 633 547 651 l 546 588 q 471 619 511 604 q 367 635 431 635 q 239 594 293 635 q 156 488 185 554 q 126 342 126 421 q 153 190 126 260 q 233 80 181 121 q 360 39 285 39 q 466 53 429 39 q 539 86 503 68 "},"d":{"ha":711,"x_min":56,"x_max":600,"o":"m 532 74 l 532 967 l 600 979 l 600 0 l 563 0 l 532 74 m 539 138 l 567 90 q 505 33 539 58 q 431 -5 471 8 q 346 -18 392 -18 q 183 28 247 -18 q 87 155 118 74 q 56 340 56 236 q 89 521 56 442 q 190 646 122 600 q 356 692 257 692 q 443 675 400 692 q 521 635 486 658 q 574 592 556 613 l 546 546 q 464 607 511 579 q 353 635 417 635 q 228 594 279 635 q 152 488 178 554 q 126 342 126 421 q 150 190 126 260 q 222 80 174 121 q 346 39 271 39 q 459 68 415 39 q 539 138 503 97 "},"e":{"ha":667,"x_min":56,"x_max":611,"o":"m 611 336 l 126 336 q 152 188 128 256 q 228 80 176 121 q 364 39 281 39 q 483 53 438 39 q 563 86 528 68 l 590 35 q 522 6 563 18 q 442 -12 482 -6 q 375 -18 403 -18 q 194 28 265 -18 q 90 155 124 74 q 56 340 56 236 q 88 521 56 442 q 185 646 119 600 q 350 692 251 692 q 485 647 426 692 q 577 524 543 601 q 611 347 611 446 l 611 336 m 129 388 l 539 388 q 512 510 533 454 q 449 601 490 567 q 340 635 407 635 q 229 601 274 635 q 160 510 185 567 q 129 388 136 454 "},"f":{"ha":367,"x_min":28,"x_max":367,"o":"m 28 601 l 28 653 l 129 653 l 129 782 q 144 884 129 840 q 192 951 160 928 q 275 975 225 975 q 312 972 294 975 q 344 965 329 969 q 367 957 358 961 l 350 906 q 324 914 342 910 q 293 918 307 918 q 219 886 240 918 q 197 804 197 854 l 197 653 l 319 653 l 349 601 l 197 601 l 197 0 l 129 0 l 129 601 l 28 601 "},"g":{"ha":706,"x_min":56,"x_max":600,"o":"m 600 674 l 600 -86 q 570 -206 600 -153 q 481 -289 540 -258 q 333 -319 422 -319 q 282 -315 313 -319 q 217 -303 251 -311 q 153 -285 183 -296 q 104 -262 124 -275 l 131 -214 q 222 -249 178 -235 q 331 -262 267 -262 q 474 -223 415 -262 q 532 -100 532 -183 l 532 572 l 563 674 l 600 674 m 539 138 l 567 90 q 505 33 539 58 q 431 -5 471 8 q 346 -18 392 -18 q 183 28 247 -18 q 87 155 118 74 q 56 340 56 236 q 89 521 56 442 q 190 646 122 600 q 356 692 257 692 q 443 675 400 692 q 521 635 486 658 q 574 592 556 613 l 546 546 q 464 607 511 579 q 353 635 417 635 q 228 594 279 635 q 152 488 178 554 q 126 342 126 421 q 150 190 126 260 q 222 80 174 121 q 346 39 271 39 q 459 68 415 39 q 539 138 503 97 "},"h":{"ha":708,"x_min":111,"x_max":617,"o":"m 179 499 l 178 568 q 247 629 207 601 q 331 674 286 657 q 417 692 375 692 q 533 663 489 692 q 597 583 576 633 q 617 468 617 533 l 617 0 l 549 0 l 549 468 q 524 586 549 538 q 422 635 499 635 q 341 617 382 635 q 259 569 300 600 q 179 499 218 539 m 179 0 l 111 0 l 111 967 l 179 981 l 179 0 "},"i":{"ha":263,"x_min":78,"x_max":185,"o":"m 165 0 l 97 0 l 97 674 l 165 674 l 165 0 m 131 833 q 92 849 107 833 q 78 886 78 864 q 92 924 78 908 q 131 939 107 939 q 169 924 153 939 q 185 886 185 908 q 169 849 185 864 q 131 833 154 833 "},"j":{"ha":286,"x_min":0,"x_max":194,"o":"m 140 833 q 179 849 164 833 q 194 886 194 864 q 178 924 194 908 q 140 939 163 939 q 102 924 117 939 q 88 886 88 908 q 94 860 88 872 q 113 840 100 847 q 140 833 125 833 m 175 674 l 107 674 l 107 -75 q 99 -161 107 -128 q 69 -215 92 -194 q 0 -254 47 -236 l 25 -304 q 124 -254 92 -282 q 165 -185 156 -226 q 175 -86 175 -144 l 175 674 "},"k":{"ha":624,"x_min":111,"x_max":624,"o":"m 179 0 l 111 0 l 111 967 l 179 981 l 179 367 l 492 692 l 543 649 l 328 435 l 624 0 l 542 0 l 282 389 l 179 286 l 179 0 "},"l":{"ha":290,"x_min":111,"x_max":179,"o":"m 179 0 l 111 0 l 111 967 l 179 981 l 179 0 "},"m":{"ha":1078,"x_min":97,"x_max":986,"o":"m 165 0 l 97 0 l 97 674 l 150 674 l 164 568 q 233 629 193 601 q 317 674 274 657 q 396 692 361 692 q 506 663 465 692 q 564 583 546 633 q 582 468 582 533 l 582 0 l 514 0 l 514 468 q 506 553 514 515 q 473 613 497 590 q 401 635 449 635 q 325 617 365 635 q 244 569 285 600 q 165 499 204 539 l 165 0 m 569 499 l 568 568 q 638 629 597 601 q 722 674 678 657 q 800 692 765 692 q 910 663 869 692 q 968 583 950 633 q 986 468 986 533 l 986 0 l 918 0 l 918 468 q 910 553 918 515 q 877 613 901 590 q 806 635 853 635 q 729 617 769 635 q 649 569 689 600 q 569 499 608 539 "},"n":{"ha":694,"x_min":97,"x_max":603,"o":"m 165 0 l 97 0 l 97 674 l 150 674 l 164 568 q 233 629 193 601 q 317 674 272 657 q 403 692 361 692 q 519 663 475 692 q 583 583 563 633 q 603 468 603 533 l 603 0 l 535 0 l 535 468 q 510 586 535 538 q 408 635 485 635 q 327 617 368 635 q 245 569 286 600 q 165 499 204 539 l 165 0 "},"o":{"ha":726,"x_min":56,"x_max":671,"o":"m 360 -18 q 528 29 458 -17 q 634 154 597 75 q 671 333 671 233 q 637 518 671 438 q 535 645 603 599 q 368 692 468 692 q 199 645 269 692 q 92 519 129 599 q 56 340 56 440 q 90 156 56 236 q 192 29 125 75 q 360 -18 260 -17 m 360 39 q 233 80 285 39 q 153 190 181 121 q 126 342 126 260 q 156 488 126 421 q 239 594 185 554 q 367 635 293 635 q 494 594 443 635 q 573 484 546 553 q 600 332 600 415 q 571 187 600 254 q 488 79 542 119 q 360 39 435 39 "},"p":{"ha":706,"x_min":106,"x_max":650,"o":"m 174 -289 l 106 -304 l 106 674 l 144 674 l 174 581 l 174 -289 m 167 536 l 139 583 q 201 641 167 617 q 274 678 235 665 q 360 692 314 692 q 524 646 460 692 q 619 519 588 600 q 650 333 650 439 q 617 153 650 233 q 517 28 583 74 q 350 -18 450 -18 q 264 -1 307 -18 q 186 39 221 15 q 132 82 151 63 l 160 128 q 242 67 194 94 q 353 39 289 39 q 478 79 428 39 q 553 187 528 119 q 579 332 579 254 q 556 484 579 415 q 484 594 532 553 q 360 635 436 635 q 247 606 290 635 q 167 536 203 576 "},"q":{"ha":706,"x_min":56,"x_max":600,"o":"m 563 674 l 600 674 l 600 -289 l 532 -304 l 532 582 l 563 674 m 539 138 l 567 90 q 505 33 539 58 q 431 -5 471 8 q 346 -18 392 -18 q 183 28 247 -18 q 87 155 118 74 q 56 340 56 236 q 89 521 56 442 q 190 646 122 600 q 356 692 257 692 q 443 675 400 692 q 521 635 486 658 q 574 592 556 613 l 546 546 q 464 607 511 579 q 353 635 417 635 q 228 594 279 635 q 152 488 178 554 q 126 342 126 421 q 150 190 126 260 q 222 80 174 121 q 346 39 271 39 q 459 68 415 39 q 539 138 503 97 "},"r":{"ha":419,"x_min":97,"x_max":406,"o":"m 165 0 l 97 0 l 97 674 l 136 674 l 161 567 q 224 613 186 588 q 305 656 263 638 q 382 674 347 674 l 406 621 q 317 601 364 621 q 231 553 271 582 q 165 496 192 525 l 165 0 "},"s":{"ha":564,"x_min":58,"x_max":508,"o":"m 58 35 l 83 92 q 137 68 108 81 q 198 47 165 56 q 265 39 231 39 q 360 55 321 39 q 422 99 400 71 q 443 165 443 128 q 419 226 443 199 q 356 276 396 253 q 265 318 315 299 q 169 365 214 339 q 97 427 124 392 q 69 506 69 463 q 128 638 69 585 q 301 692 188 692 q 366 685 331 692 q 435 665 401 678 q 492 636 469 653 l 464 588 q 395 618 436 601 q 292 635 354 635 q 178 597 221 635 q 135 511 135 560 q 185 431 135 464 q 304 369 235 397 q 406 319 360 347 q 480 255 451 292 q 508 171 508 218 q 450 32 508 82 q 263 -18 392 -18 q 197 -12 235 -18 q 122 6 158 -6 q 58 35 85 18 "},"t":{"ha":406,"x_min":28,"x_max":364,"o":"m 318 653 l 347 601 l 196 601 l 196 171 q 217 80 196 121 q 290 39 239 39 q 323 44 306 39 q 347 51 340 49 l 364 -1 q 340 -8 354 -4 q 308 -15 325 -12 q 272 -18 290 -18 q 197 3 229 -18 q 146 63 164 24 q 128 161 128 103 l 128 601 l 28 601 l 28 653 l 128 653 l 128 835 l 196 865 l 196 653 l 318 653 "},"u":{"ha":694,"x_min":92,"x_max":597,"o":"m 529 674 l 597 674 l 597 0 l 544 0 l 531 106 q 463 44 503 72 q 378 -1 422 15 q 292 -18 333 -18 q 176 11 219 -18 q 112 91 132 40 q 92 206 92 142 l 92 674 l 160 674 l 160 206 q 185 88 160 136 q 286 39 210 39 q 367 56 326 39 q 449 105 408 74 q 529 175 490 136 l 529 674 "},"v":{"ha":597,"x_min":14,"x_max":583,"o":"m 333 0 l 268 0 l 14 658 l 78 683 l 300 78 l 514 674 l 583 674 l 333 0 "},"w":{"ha":892,"x_min":14,"x_max":878,"o":"m 678 0 l 613 0 l 438 568 l 278 0 l 213 0 l 14 657 l 78 682 l 243 89 l 414 674 l 472 674 l 647 89 l 808 674 l 878 674 l 678 0 "},"x":{"ha":563,"x_min":14,"x_max":549,"o":"m 92 0 l 14 0 l 238 339 l 42 658 l 101 686 l 290 371 l 474 674 l 549 674 l 326 322 l 531 0 l 454 0 l 272 288 l 92 0 "},"y":{"ha":597,"x_min":14,"x_max":583,"o":"m 225 -136 l 268 0 l 14 657 l 78 682 l 300 78 l 514 674 l 583 674 l 279 -156 q 239 -224 265 -193 q 176 -274 213 -254 q 94 -304 139 -294 l 88 -251 q 150 -224 124 -239 q 195 -188 176 -210 q 225 -136 214 -167 "},"z":{"ha":600,"x_min":39,"x_max":561,"o":"m 557 674 l 561 629 l 110 51 l 539 51 l 553 0 l 50 0 l 39 43 l 486 622 l 101 622 l 79 674 l 557 674 "},"ﬁ":{"ha":629,"x_min":28,"x_max":551,"o":"m 28 601 l 28 653 l 129 653 l 129 782 q 144 884 129 840 q 192 951 160 928 q 275 975 225 975 q 312 972 294 975 q 344 965 329 969 q 367 957 358 961 l 350 906 q 324 914 342 910 q 293 918 307 918 q 219 886 240 918 q 197 804 197 854 l 197 653 l 319 653 l 349 601 l 197 601 l 197 0 l 129 0 l 129 601 l 28 601 m 532 0 l 464 0 l 464 674 l 532 674 l 532 0 m 497 833 q 459 849 474 833 q 444 886 444 864 q 459 924 444 908 q 497 939 474 939 q 535 924 519 939 q 551 886 551 908 q 536 849 551 864 q 497 833 521 833 "},"ﬂ":{"ha":657,"x_min":28,"x_max":546,"o":"m 28 601 l 28 653 l 129 653 l 129 782 q 144 884 129 840 q 192 951 160 928 q 275 975 225 975 q 312 972 294 975 q 344 965 329 969 q 367 957 358 961 l 350 906 q 324 914 342 910 q 293 918 307 918 q 219 886 240 918 q 197 804 197 854 l 197 653 l 319 653 l 349 601 l 197 601 l 197 0 l 129 0 l 129 601 l 28 601 m 546 0 l 478 0 l 478 967 l 546 981 l 546 0 "},"`":{"ha":190,"x_min":14,"x_max":176,"o":"m 132 818 l 14 1031 l 99 1031 l 176 833 l 132 818 "},"¨":{"ha":351,"x_min":14,"x_max":338,"o":"m 65 858 q 28 873 42 858 q 14 910 14 888 q 28 946 14 932 q 65 960 42 960 q 101 946 86 960 q 117 910 117 932 q 101 873 117 888 q 65 858 86 858 m 286 858 q 249 873 263 858 q 235 910 235 888 q 249 946 235 932 q 286 960 263 960 q 322 946 307 960 q 338 910 338 932 q 322 873 338 888 q 286 858 307 858 "},"¯":{"ha":363,"x_min":14,"x_max":349,"o":"m 14 889 l 14 940 l 340 940 l 349 889 l 14 889 "},"´":{"ha":190,"x_min":14,"x_max":176,"o":"m 58 818 l 14 833 l 92 1031 l 176 1031 l 58 818 "},"ˆ":{"ha":376,"x_min":14,"x_max":363,"o":"m 190 982 l 71 818 l 14 832 l 161 1031 l 217 1031 l 363 838 l 306 818 l 190 982 "},"ˇ":{"ha":376,"x_min":14,"x_max":363,"o":"m 190 867 l 306 1031 l 363 1011 l 217 818 l 161 818 l 14 1017 l 71 1031 l 190 867 "},"˘":{"ha":389,"x_min":14,"x_max":375,"o":"m 318 1015 l 375 1015 q 355 928 375 969 q 295 860 335 886 q 194 835 256 835 q 96 860 136 835 q 35 928 56 886 q 14 1015 14 969 l 71 1015 q 103 928 71 967 q 194 889 136 889 q 285 926 253 889 q 318 1015 318 964 "},"˙":{"ha":135,"x_min":14,"x_max":121,"o":"m 67 858 q 28 874 43 858 q 14 911 14 889 q 28 949 14 933 q 67 964 43 964 q 105 949 89 964 q 121 911 121 933 q 105 874 121 889 q 67 858 89 858 "},"˚":{"ha":274,"x_min":14,"x_max":260,"o":"m 138 1054 q 199 1039 171 1054 q 243 997 226 1024 q 260 938 260 971 q 243 880 260 906 q 199 840 226 854 q 138 825 171 825 q 51 857 88 825 q 14 938 14 889 q 31 997 14 971 q 76 1039 49 1024 q 138 1054 104 1054 m 138 867 q 187 887 168 867 q 206 938 206 907 q 187 990 206 969 q 138 1011 168 1011 q 88 990 107 1011 q 68 938 68 969 q 88 887 68 907 q 138 867 107 867 "},"˜":{"ha":415,"x_min":14,"x_max":401,"o":"m 349 971 l 401 971 q 385 899 401 928 q 344 858 369 871 q 286 844 318 844 q 242 855 263 844 q 203 885 221 865 q 167 914 185 904 q 131 924 149 924 q 85 903 100 924 q 68 850 71 882 l 14 850 q 30 922 14 894 q 72 963 46 950 q 129 976 99 976 q 181 967 158 976 q 219 938 204 957 q 251 908 235 918 q 286 897 268 897 q 331 918 315 897 q 349 971 346 939 "},"˝":{"ha":368,"x_min":14,"x_max":354,"o":"m 58 818 l 14 833 l 92 1031 l 176 1031 l 58 818 m 236 818 l 192 833 l 269 1031 l 354 1031 l 236 818 "},"˛":{"ha":285,"x_min":14,"x_max":271,"o":"m 100 6 l 151 0 q 110 -47 126 -22 q 86 -98 94 -71 q 78 -156 78 -125 q 108 -217 78 -197 q 164 -237 138 -237 q 205 -230 186 -237 q 240 -208 224 -222 l 271 -246 q 224 -276 253 -264 q 160 -287 194 -287 q 85 -271 118 -287 q 33 -224 53 -254 q 14 -154 14 -193 q 25 -99 14 -128 q 56 -42 36 -69 q 100 6 75 -15 "},"¸":{"ha":286,"x_min":14,"x_max":272,"o":"m 76 -107 l 124 18 l 181 18 l 146 -71 q 216 -97 188 -78 q 258 -140 244 -115 q 272 -189 272 -164 q 253 -251 272 -224 q 201 -292 235 -278 q 121 -307 167 -307 q 64 -299 96 -307 q 14 -281 32 -292 l 35 -237 q 71 -250 47 -243 q 117 -257 94 -257 q 187 -237 160 -257 q 214 -192 214 -218 q 198 -153 214 -172 q 151 -120 182 -133 q 76 -107 121 -107 "},"":{"ha":0,"x_min":14,"x_max":156,"o":"m 101 -29 q 141 -49 126 -29 q 156 -89 156 -68 q 142 -169 156 -131 q 101 -236 128 -207 q 36 -285 75 -265 l 14 -250 q 74 -202 50 -231 q 99 -136 97 -174 q 61 -117 74 -136 q 49 -83 49 -97 q 55 -57 49 -69 q 73 -37 61 -44 q 101 -29 85 -29 "},"Þ":{"ha":761,"x_min":139,"x_max":706,"o":"m 365 833 l 207 833 l 207 944 l 139 944 l 139 0 l 207 0 l 207 256 l 350 256 q 488 273 424 256 q 601 326 553 290 q 678 417 650 361 q 706 549 706 472 q 661 714 706 651 q 540 805 617 776 q 365 833 464 833 m 367 310 l 207 310 l 207 778 l 382 778 q 515 754 458 778 q 604 680 572 731 q 636 547 636 629 q 600 416 636 469 q 503 336 564 363 q 367 310 442 310 "},"Ð":{"ha":919,"x_min":14,"x_max":850,"o":"m 372 436 l 28 436 l 14 490 l 358 490 l 372 436 m 446 0 l 139 0 l 139 944 l 450 944 q 683 881 596 944 q 810 713 771 818 q 850 478 850 607 q 806 238 850 347 q 674 65 763 129 q 446 0 585 0 m 461 890 l 207 890 l 207 54 l 447 54 q 622 109 547 54 q 738 260 696 164 q 779 476 779 356 q 744 683 779 589 q 640 833 710 776 q 461 890 569 890 "},"Æ":{"ha":1151,"x_min":14,"x_max":1124,"o":"m 603 0 l 603 296 l 264 296 l 83 -7 l 14 7 l 592 944 l 1085 944 l 1092 890 l 671 890 l 671 511 l 1004 511 l 1011 457 l 671 457 l 671 54 l 1115 54 l 1124 0 l 603 0 m 603 849 l 297 350 l 603 350 l 603 849 "},"Đ":{"ha":919,"x_min":14,"x_max":850,"o":"m 372 436 l 28 436 l 14 490 l 358 490 l 372 436 m 446 0 l 139 0 l 139 944 l 450 944 q 683 881 596 944 q 810 713 771 818 q 850 478 850 607 q 806 238 850 347 q 674 65 763 129 q 446 0 585 0 m 461 890 l 207 890 l 207 54 l 447 54 q 622 109 547 54 q 738 260 696 164 q 779 476 779 356 q 744 683 779 589 q 640 833 710 776 q 461 890 569 890 "},"Ł":{"ha":682,"x_min":14,"x_max":668,"o":"m 139 0 l 668 0 l 661 54 l 207 54 l 207 447 l 390 608 l 360 656 l 207 522 l 207 944 l 139 944 l 139 463 l 14 354 l 44 304 l 139 388 l 139 0 "},"Œ":{"ha":1239,"x_min":69,"x_max":1211,"o":"m 726 913 l 699 863 q 643 884 671 875 q 581 899 615 893 q 497 904 547 904 q 319 851 399 904 q 192 699 239 797 q 146 468 146 601 q 169 306 146 383 q 235 169 192 229 q 341 75 278 110 q 485 40 404 40 q 608 53 560 40 q 693 82 656 65 l 726 32 q 661 6 701 18 q 576 -12 621 -6 q 492 -19 532 -19 q 303 20 383 -19 q 172 128 224 60 q 95 283 121 196 q 69 467 69 371 q 99 661 69 571 q 183 819 128 751 q 318 926 238 888 q 500 964 399 964 q 572 958 529 964 q 658 942 615 953 q 726 913 701 931 m 1211 0 l 690 0 l 690 944 l 1172 944 l 1179 890 l 758 890 l 758 511 l 1092 511 l 1099 457 l 758 457 l 758 54 l 1203 54 l 1211 0 "},"Ø":{"ha":982,"x_min":69,"x_max":913,"o":"m 488 -19 q 707 45 611 -19 q 858 222 803 110 q 913 479 913 335 q 859 731 913 621 q 711 904 806 842 q 496 967 617 967 q 276 902 372 967 q 124 725 179 838 q 69 468 69 613 q 124 216 69 326 q 272 43 178 106 q 488 -19 367 -19 m 485 38 q 310 93 386 38 q 190 247 233 149 q 146 469 146 344 q 191 696 146 597 q 316 851 236 794 q 497 908 396 908 q 672 853 596 908 q 792 700 749 797 q 836 478 836 603 q 791 251 836 350 q 667 94 746 151 q 485 38 588 38 m 349 51 l 700 874 l 633 892 l 288 81 l 349 51 "},"ß":{"ha":756,"x_min":111,"x_max":693,"o":"m 111 0 l 111 657 q 143 811 111 747 q 236 910 175 875 q 383 944 297 944 q 515 917 456 944 q 610 834 575 889 q 646 699 646 779 q 630 610 646 650 q 584 541 614 569 q 513 494 554 513 q 603 449 563 481 q 669 369 644 417 q 693 261 693 322 q 645 105 693 163 q 517 24 597 47 q 338 0 436 0 l 285 0 l 285 54 l 356 54 q 490 75 431 54 q 585 141 550 96 q 621 258 621 186 q 552 413 621 364 q 369 463 483 463 l 307 463 l 307 517 l 344 517 q 522 563 469 517 q 574 697 574 610 q 518 838 574 789 q 388 888 463 888 q 273 856 319 888 q 203 773 226 825 q 181 657 181 721 l 181 0 l 111 0 "},"ð":{"ha":726,"x_min":56,"x_max":671,"o":"m 671 333 q 634 154 671 233 q 528 29 597 75 q 360 -18 458 -17 q 192 29 260 -17 q 90 156 125 75 q 56 340 56 236 q 92 519 56 440 q 199 645 129 599 q 368 692 269 692 q 469 675 426 692 q 548 629 513 658 q 617 558 583 600 l 586 529 q 522 585 557 561 q 447 622 486 608 q 367 635 408 635 q 239 594 293 635 q 156 488 185 554 q 126 342 126 421 q 153 190 126 260 q 233 80 181 121 q 360 39 285 39 q 488 79 435 39 q 571 187 542 119 q 600 332 600 254 q 577 522 600 428 q 502 702 554 615 q 361 864 450 789 q 140 997 272 939 l 158 1042 q 388 916 292 989 q 547 752 485 843 q 640 556 610 661 q 671 333 671 450 m 151 794 l 125 847 l 497 1031 l 522 982 l 151 794 "},"þ":{"ha":706,"x_min":106,"x_max":650,"o":"m 360 692 q 258 672 304 692 q 174 619 211 653 l 174 981 l 106 967 l 106 -304 l 174 -289 l 174 46 q 256 2 208 22 q 350 -18 303 -18 q 517 28 450 -18 q 617 153 583 74 q 650 333 650 233 q 619 519 650 439 q 524 646 588 600 q 360 692 460 692 m 353 39 q 251 62 296 39 q 174 115 207 85 l 174 544 q 251 608 208 582 q 360 635 293 635 q 484 594 436 635 q 556 484 532 553 q 579 332 579 415 q 553 187 579 254 q 478 79 528 119 q 353 39 428 39 "},"ƒ":{"ha":407,"x_min":0,"x_max":407,"o":"m 68 653 l 169 653 l 169 782 q 185 884 169 840 q 233 951 201 928 q 315 975 265 975 q 352 972 335 975 q 384 965 369 969 q 407 957 399 961 l 390 906 q 365 914 382 910 q 333 918 347 918 q 259 886 281 918 q 238 804 238 854 l 238 653 l 360 653 l 389 601 l 238 601 l 238 101 q 222 0 238 43 q 174 -67 207 -43 q 92 -92 142 -92 q 56 -89 74 -92 q 24 -81 38 -86 q 0 -74 10 -76 l 17 -22 q 42 -31 25 -26 q 74 -35 60 -35 q 148 -3 126 -35 q 169 79 169 29 l 169 601 l 68 601 l 68 653 "},"æ":{"ha":1104,"x_min":72,"x_max":1049,"o":"m 1049 336 l 1049 344 q 1016 522 1049 443 q 924 646 983 600 q 788 692 865 692 q 645 659 704 692 q 550 569 586 626 q 474 659 528 626 q 335 692 419 692 q 266 684 307 692 q 185 664 225 676 q 119 633 146 651 l 146 588 q 229 621 188 607 q 339 635 271 635 q 460 589 421 635 q 500 474 500 543 l 500 390 l 313 390 q 140 338 207 390 q 72 189 72 285 q 128 42 72 101 q 299 -18 185 -18 q 413 -2 365 -18 q 493 43 460 14 q 550 110 526 72 q 653 16 589 50 q 813 -18 718 -18 q 880 -12 840 -18 q 960 6 919 -6 q 1028 35 1000 18 l 1000 86 q 920 53 965 68 q 801 39 875 39 q 666 80 718 39 q 590 188 614 121 q 564 336 565 256 l 1049 336 m 567 388 q 598 510 574 454 q 667 601 622 567 q 778 635 711 635 q 886 601 844 635 q 949 510 928 567 q 976 388 971 454 l 567 388 m 500 339 q 505 248 500 292 q 522 167 510 204 q 472 103 501 132 q 401 56 442 74 q 304 39 361 39 q 218 59 254 39 q 163 113 182 79 q 143 189 143 147 q 161 267 143 231 q 218 323 179 303 q 318 339 257 343 l 500 339 "},"đ":{"ha":711,"x_min":56,"x_max":694,"o":"m 539 138 q 459 68 503 97 q 346 39 415 39 q 222 80 271 39 q 150 190 174 121 q 126 342 126 260 q 152 488 126 421 q 228 594 178 554 q 353 635 279 635 q 464 607 417 635 q 546 546 511 579 l 574 592 q 521 635 556 613 q 443 675 486 658 q 356 692 400 692 q 190 646 257 692 q 89 521 122 600 q 56 340 56 442 q 87 155 56 236 q 183 28 118 74 q 346 -18 247 -18 q 431 -5 392 -18 q 505 33 471 8 q 567 90 539 58 l 539 138 m 600 806 l 694 806 l 681 854 l 600 854 l 600 979 l 532 967 l 532 854 l 336 854 l 350 806 l 532 806 l 532 74 l 563 0 l 600 0 l 600 806 "},"œ":{"ha":1053,"x_min":56,"x_max":997,"o":"m 997 336 l 997 340 q 965 519 997 440 q 873 645 932 599 q 736 692 814 692 q 640 678 683 692 q 564 640 597 664 q 507 667 538 656 q 442 685 476 679 q 369 692 408 692 q 200 646 271 692 q 92 521 129 600 q 56 340 56 442 q 90 155 56 236 q 193 28 125 74 q 360 -18 261 -18 q 440 -11 404 -18 q 507 8 476 -4 q 565 38 538 21 q 651 -3 603 11 q 761 -18 700 -18 q 828 -12 789 -18 q 908 6 868 -6 q 976 35 949 18 l 949 86 q 869 53 914 68 q 750 39 824 39 q 615 80 667 39 q 538 188 563 121 q 513 336 514 256 l 997 336 m 515 388 q 547 510 522 454 q 615 601 571 567 q 726 635 660 635 q 835 601 793 635 q 898 510 876 567 q 925 388 919 454 l 515 388 m 126 342 q 156 488 126 421 q 239 594 185 554 q 367 635 293 635 q 456 624 419 635 q 521 600 492 614 q 462 486 482 553 q 442 340 442 419 q 462 193 442 260 q 522 78 482 126 q 456 51 492 63 q 360 39 421 39 q 233 80 285 39 q 153 190 181 121 q 126 342 126 260 "},"ĺ":{"ha":290,"x_min":111,"x_max":279,"o":"m 179 0 l 111 0 l 111 936 l 179 950 l 179 0 m 161 1026 l 117 1042 l 194 1239 l 279 1239 l 161 1026 "},"ł":{"ha":376,"x_min":0,"x_max":376,"o":"m 346 656 l 376 608 l 222 472 l 222 0 l 154 0 l 154 413 l 31 304 l 0 354 l 154 488 l 154 967 l 222 981 l 222 547 l 346 656 "},"ı":{"ha":263,"x_min":97,"x_max":165,"o":"m 165 0 l 97 0 l 97 674 l 165 674 l 165 0 "},"ø":{"ha":726,"x_min":56,"x_max":671,"o":"m 360 -18 q 528 29 458 -17 q 634 154 597 75 q 671 333 671 233 q 637 518 671 438 q 535 645 603 599 q 368 692 468 692 q 199 645 269 692 q 92 519 129 599 q 56 340 56 440 q 90 156 56 236 q 192 29 125 75 q 360 -18 260 -17 m 360 39 q 233 80 285 39 q 153 190 181 121 q 126 342 126 260 q 156 488 126 421 q 239 594 185 554 q 367 635 293 635 q 494 594 443 635 q 573 484 546 553 q 600 332 600 415 q 571 187 600 254 q 488 79 542 119 q 360 39 435 39 m 253 39 l 533 579 l 482 617 l 197 68 l 253 39 "},"À":{"ha":794,"x_min":14,"x_max":781,"o":"m 579 350 l 390 853 l 208 350 l 579 350 m 357 944 l 421 944 l 781 7 l 711 -8 l 599 296 l 189 296 l 82 0 l 14 0 l 357 944 m 397 1026 l 279 1239 l 364 1239 l 442 1042 l 397 1026 "},"Á":{"ha":794,"x_min":14,"x_max":781,"o":"m 579 350 l 390 853 l 208 350 l 579 350 m 357 944 l 421 944 l 781 7 l 711 -8 l 599 296 l 189 296 l 82 0 l 14 0 l 357 944 m 390 1026 l 346 1042 l 424 1239 l 508 1239 l 390 1026 "},"Â":{"ha":794,"x_min":14,"x_max":781,"o":"m 579 350 l 390 853 l 208 350 l 579 350 m 357 944 l 421 944 l 781 7 l 711 -8 l 599 296 l 189 296 l 82 0 l 14 0 l 357 944 m 400 1192 l 281 1028 l 224 1042 l 371 1240 l 426 1240 l 572 1047 l 515 1028 l 400 1192 "},"Ã":{"ha":794,"x_min":14,"x_max":781,"o":"m 579 350 l 390 853 l 208 350 l 579 350 m 357 944 l 421 944 l 781 7 l 711 -8 l 599 296 l 189 296 l 82 0 l 14 0 l 357 944 m 524 1179 l 576 1179 q 560 1108 576 1136 q 519 1066 544 1079 q 461 1053 493 1053 q 417 1063 438 1053 q 378 1093 396 1074 q 342 1122 360 1113 q 306 1132 324 1132 q 260 1111 275 1132 q 243 1058 246 1090 l 189 1058 q 205 1131 189 1103 q 247 1172 221 1158 q 304 1185 274 1185 q 356 1175 333 1185 q 394 1146 379 1165 q 426 1116 410 1126 q 461 1106 443 1106 q 506 1126 490 1106 q 524 1179 521 1147 "},"Ä":{"ha":794,"x_min":14,"x_max":781,"o":"m 579 350 l 390 853 l 208 350 l 579 350 m 357 944 l 421 944 l 781 7 l 711 -8 l 599 296 l 189 296 l 82 0 l 14 0 l 357 944 m 276 1067 q 239 1081 253 1067 q 225 1118 225 1096 q 239 1154 225 1140 q 276 1168 253 1168 q 313 1154 297 1168 q 328 1118 328 1140 q 313 1081 328 1096 q 276 1067 297 1067 m 497 1067 q 460 1081 474 1067 q 446 1118 446 1096 q 460 1154 446 1140 q 497 1168 474 1168 q 533 1154 518 1168 q 549 1118 549 1140 q 533 1081 549 1096 q 497 1067 518 1067 "},"Å":{"ha":794,"x_min":14,"x_max":781,"o":"m 579 350 l 390 853 l 208 350 l 579 350 m 357 944 l 421 944 l 781 7 l 711 -8 l 599 296 l 189 296 l 82 0 l 14 0 l 357 944 m 388 1263 q 449 1247 421 1263 q 493 1206 476 1232 q 510 1146 510 1179 q 493 1088 510 1114 q 449 1048 476 1063 q 388 1033 421 1033 q 301 1065 338 1033 q 264 1146 264 1097 q 281 1206 264 1179 q 326 1247 299 1232 q 388 1263 354 1263 m 388 1075 q 437 1095 418 1075 q 456 1146 456 1115 q 437 1199 456 1178 q 388 1219 418 1219 q 338 1199 357 1219 q 318 1146 318 1178 q 338 1095 318 1115 q 388 1075 357 1075 "},"Ă":{"ha":794,"x_min":14,"x_max":781,"o":"m 579 350 l 390 853 l 208 350 l 579 350 m 357 944 l 421 944 l 781 7 l 711 -8 l 599 296 l 189 296 l 82 0 l 14 0 l 357 944 m 515 1224 l 572 1224 q 552 1136 572 1178 q 492 1069 532 1094 q 392 1043 453 1043 q 293 1069 333 1043 q 232 1136 253 1094 q 211 1224 211 1178 l 268 1224 q 301 1136 268 1175 q 392 1097 333 1097 q 483 1135 450 1097 q 515 1224 515 1172 "},"Ą":{"ha":794,"x_min":14,"x_max":896,"o":"m 725 13 l 781 7 q 738 -40 756 -15 q 712 -91 721 -64 q 703 -149 703 -118 q 733 -210 703 -190 q 789 -231 763 -231 q 830 -223 811 -231 q 865 -201 849 -215 l 896 -239 q 867 -260 885 -250 q 829 -275 850 -269 q 785 -281 808 -281 q 710 -264 743 -281 q 658 -217 678 -247 q 639 -147 639 -186 q 650 -92 639 -121 q 681 -35 661 -62 q 725 13 700 -7 m 579 350 l 390 853 l 208 350 l 579 350 m 357 944 l 421 944 l 781 7 l 711 -8 l 599 296 l 189 296 l 82 0 l 14 0 l 357 944 "},"Ā":{"ha":794,"x_min":14,"x_max":781,"o":"m 579 350 l 390 853 l 208 350 l 579 350 m 357 944 l 421 944 l 781 7 l 711 -8 l 599 296 l 189 296 l 82 0 l 14 0 l 357 944 m 219 1097 l 219 1149 l 547 1149 l 554 1097 l 219 1097 "},"Ç":{"ha":768,"x_min":69,"x_max":726,"o":"m 726 913 l 699 863 q 643 884 671 875 q 581 899 615 893 q 497 904 547 904 q 319 851 399 904 q 192 699 239 797 q 146 468 146 601 q 169 306 146 383 q 235 169 192 229 q 341 75 278 110 q 485 40 404 40 q 608 53 560 40 q 693 82 656 65 l 726 32 q 661 6 701 18 q 576 -12 621 -6 q 492 -19 532 -19 q 303 20 383 -19 q 172 128 224 60 q 95 283 121 196 q 69 467 69 371 q 99 661 69 571 q 183 819 128 751 q 318 926 238 888 q 500 964 399 964 q 572 958 529 964 q 658 942 615 953 q 726 913 701 931 m 424 -107 l 471 18 l 528 18 l 493 -71 q 563 -97 535 -78 q 606 -140 592 -115 q 619 -189 619 -164 q 601 -251 619 -224 q 548 -292 582 -278 q 468 -307 514 -307 q 411 -299 443 -307 q 361 -281 379 -292 l 382 -237 q 418 -250 394 -243 q 464 -257 442 -257 q 534 -237 507 -257 q 561 -192 561 -218 q 545 -153 561 -172 q 499 -120 529 -133 q 424 -107 468 -107 "},"Ć":{"ha":768,"x_min":69,"x_max":726,"o":"m 726 913 l 699 863 q 643 884 671 875 q 581 899 615 893 q 497 904 547 904 q 319 851 399 904 q 192 699 239 797 q 146 468 146 601 q 169 306 146 383 q 235 169 192 229 q 341 75 278 110 q 485 40 404 40 q 608 53 560 40 q 693 82 656 65 l 726 32 q 661 6 701 18 q 576 -12 621 -6 q 492 -19 532 -19 q 303 20 383 -19 q 172 128 224 60 q 95 283 121 196 q 69 467 69 371 q 99 661 69 571 q 183 819 128 751 q 318 926 238 888 q 500 964 399 964 q 572 958 529 964 q 658 942 615 953 q 726 913 701 931 m 500 1026 l 456 1042 l 533 1239 l 618 1239 l 500 1026 "},"Č":{"ha":768,"x_min":69,"x_max":726,"o":"m 726 913 l 699 863 q 643 884 671 875 q 581 899 615 893 q 497 904 547 904 q 319 851 399 904 q 192 699 239 797 q 146 468 146 601 q 169 306 146 383 q 235 169 192 229 q 341 75 278 110 q 485 40 404 40 q 608 53 560 40 q 693 82 656 65 l 726 32 q 661 6 701 18 q 576 -12 621 -6 q 492 -19 532 -19 q 303 20 383 -19 q 172 128 224 60 q 95 283 121 196 q 69 467 69 371 q 99 661 69 571 q 183 819 128 751 q 318 926 238 888 q 500 964 399 964 q 572 958 529 964 q 658 942 615 953 q 726 913 701 931 m 504 1075 l 619 1239 l 676 1219 l 531 1026 l 475 1026 l 328 1225 l 385 1239 l 504 1075 "},"Ď":{"ha":919,"x_min":139,"x_max":850,"o":"m 446 0 l 139 0 l 139 944 l 450 944 q 683 881 596 944 q 810 713 771 818 q 850 478 850 607 q 806 238 850 347 q 674 65 763 129 q 446 0 585 0 m 461 890 l 207 890 l 207 54 l 447 54 q 622 109 547 54 q 738 260 696 164 q 779 476 779 356 q 744 683 779 589 q 640 833 710 776 q 461 890 569 890 m 431 1075 l 546 1239 l 603 1219 l 457 1026 l 401 1026 l 254 1225 l 311 1239 l 431 1075 "},"È":{"ha":688,"x_min":139,"x_max":660,"o":"m 660 0 l 139 0 l 139 944 l 621 944 l 628 890 l 207 890 l 207 511 l 540 511 l 547 457 l 207 457 l 207 54 l 651 54 l 660 0 m 389 1026 l 271 1239 l 356 1239 l 433 1042 l 389 1026 "},"É":{"ha":688,"x_min":139,"x_max":660,"o":"m 660 0 l 139 0 l 139 944 l 621 944 l 628 890 l 207 890 l 207 511 l 540 511 l 547 457 l 207 457 l 207 54 l 651 54 l 660 0 m 382 1026 l 338 1042 l 415 1239 l 500 1239 l 382 1026 "},"Ê":{"ha":688,"x_min":139,"x_max":660,"o":"m 660 0 l 139 0 l 139 944 l 621 944 l 628 890 l 207 890 l 207 511 l 540 511 l 547 457 l 207 457 l 207 54 l 651 54 l 660 0 m 392 1192 l 272 1028 l 215 1042 l 363 1240 l 418 1240 l 564 1047 l 507 1028 l 392 1192 "},"Ë":{"ha":688,"x_min":139,"x_max":660,"o":"m 660 0 l 139 0 l 139 944 l 621 944 l 628 890 l 207 890 l 207 511 l 540 511 l 547 457 l 207 457 l 207 54 l 651 54 l 660 0 m 268 1067 q 231 1081 244 1067 q 217 1118 217 1096 q 231 1154 217 1140 q 268 1168 244 1168 q 304 1154 289 1168 q 319 1118 319 1140 q 304 1081 319 1096 q 268 1067 289 1067 m 489 1067 q 451 1081 465 1067 q 438 1118 438 1096 q 451 1154 438 1140 q 489 1168 465 1168 q 525 1154 510 1168 q 540 1118 540 1140 q 525 1081 540 1096 q 489 1067 510 1067 "},"Ē":{"ha":688,"x_min":139,"x_max":660,"o":"m 660 0 l 139 0 l 139 944 l 621 944 l 628 890 l 207 890 l 207 511 l 540 511 l 547 457 l 207 457 l 207 54 l 651 54 l 660 0 m 211 1097 l 211 1149 l 539 1149 l 546 1097 l 211 1097 "},"Ė":{"ha":688,"x_min":139,"x_max":660,"o":"m 660 0 l 139 0 l 139 944 l 621 944 l 628 890 l 207 890 l 207 511 l 540 511 l 547 457 l 207 457 l 207 54 l 651 54 l 660 0 m 379 1067 q 341 1082 356 1067 q 326 1119 326 1097 q 341 1157 326 1142 q 379 1172 356 1172 q 417 1157 401 1172 q 433 1119 433 1142 q 417 1082 433 1097 q 379 1067 401 1067 "},"Ę":{"ha":688,"x_min":139,"x_max":671,"o":"m 660 0 l 139 0 l 139 944 l 621 944 l 628 890 l 207 890 l 207 511 l 540 511 l 547 457 l 207 457 l 207 54 l 651 54 l 660 0 m 500 6 l 551 0 q 510 -47 526 -22 q 486 -98 494 -71 q 478 -156 478 -125 q 508 -217 478 -197 q 564 -237 538 -237 q 605 -230 586 -237 q 640 -208 624 -222 l 671 -246 q 624 -276 653 -264 q 560 -287 594 -287 q 485 -271 518 -287 q 433 -224 453 -254 q 414 -154 414 -193 q 425 -99 414 -128 q 456 -42 436 -69 q 500 6 475 -15 "},"Ě":{"ha":688,"x_min":139,"x_max":660,"o":"m 660 0 l 139 0 l 139 944 l 621 944 l 628 890 l 207 890 l 207 511 l 540 511 l 547 457 l 207 457 l 207 54 l 651 54 l 660 0 m 386 1075 l 501 1239 l 558 1219 l 413 1026 l 357 1026 l 210 1225 l 267 1239 l 386 1075 "},"Ğ":{"ha":853,"x_min":69,"x_max":769,"o":"m 486 421 l 494 475 l 767 475 l 767 43 q 701 12 742 26 q 615 -11 660 -3 q 531 -19 571 -19 q 284 44 388 -19 q 125 219 181 108 q 69 467 69 329 q 104 666 69 575 q 202 824 139 757 q 351 927 265 890 q 539 964 438 964 q 613 958 568 964 q 701 942 657 953 q 769 913 744 931 l 743 867 q 688 888 715 879 q 626 902 660 897 q 542 907 592 907 q 383 874 456 907 q 258 783 311 842 q 175 643 204 724 q 146 467 146 563 q 195 247 146 343 q 331 95 244 150 q 529 40 418 40 q 622 50 579 40 q 699 72 664 60 l 699 421 l 486 421 m 664 1224 l 721 1224 q 701 1136 721 1178 q 641 1069 681 1094 q 540 1043 601 1043 q 442 1069 482 1043 q 381 1136 401 1094 q 360 1224 360 1178 l 417 1224 q 449 1136 417 1175 q 540 1097 482 1097 q 631 1135 599 1097 q 664 1224 664 1172 "},"Ì":{"ha":346,"x_min":63,"x_max":225,"o":"m 207 0 l 139 0 l 139 944 l 207 944 l 207 0 m 181 1026 l 63 1239 l 147 1239 l 225 1042 l 181 1026 "},"Í":{"ha":346,"x_min":129,"x_max":292,"o":"m 207 0 l 139 0 l 139 944 l 207 944 l 207 0 m 174 1026 l 129 1042 l 207 1239 l 292 1239 l 174 1026 "},"Î":{"ha":346,"x_min":7,"x_max":356,"o":"m 207 0 l 139 0 l 139 944 l 207 944 l 207 0 m 183 1192 l 64 1028 l 7 1042 l 154 1240 l 210 1240 l 356 1047 l 299 1028 l 183 1192 "},"Ï":{"ha":346,"x_min":8,"x_max":332,"o":"m 207 0 l 139 0 l 139 944 l 207 944 l 207 0 m 60 1067 q 22 1081 36 1067 q 8 1118 8 1096 q 22 1154 8 1140 q 60 1168 36 1168 q 96 1154 81 1168 q 111 1118 111 1140 q 96 1081 111 1096 q 60 1067 81 1067 m 281 1067 q 243 1081 257 1067 q 229 1118 229 1096 q 243 1154 229 1140 q 281 1168 257 1168 q 317 1154 301 1168 q 332 1118 332 1140 q 317 1081 332 1096 q 281 1067 301 1067 "},"Ī":{"ha":346,"x_min":3,"x_max":338,"o":"m 207 0 l 139 0 l 139 944 l 207 944 l 207 0 m 3 1097 l 3 1149 l 331 1149 l 338 1097 l 3 1097 "},"Į":{"ha":346,"x_min":69,"x_max":326,"o":"m 142 6 l 207 0 q 166 -47 182 -22 q 142 -98 150 -71 q 133 -156 133 -125 q 163 -217 133 -197 q 219 -237 193 -237 q 260 -230 242 -237 q 296 -208 279 -222 l 326 -246 q 279 -276 308 -264 q 215 -287 250 -287 q 141 -271 174 -287 q 89 -224 108 -254 q 69 -154 69 -193 q 92 -65 69 -104 q 142 6 115 -25 m 207 0 l 139 0 l 139 944 l 207 944 l 207 0 "},"İ":{"ha":346,"x_min":118,"x_max":225,"o":"m 207 0 l 139 0 l 139 944 l 207 944 l 207 0 m 171 1067 q 133 1082 147 1067 q 118 1119 118 1097 q 133 1157 118 1142 q 171 1172 147 1172 q 209 1157 193 1172 q 225 1119 225 1142 q 209 1082 225 1097 q 171 1067 193 1067 "},"Ĺ":{"ha":682,"x_min":139,"x_max":668,"o":"m 661 54 l 668 0 l 139 0 l 139 944 l 207 944 l 207 54 l 661 54 m 214 1026 l 169 1042 l 247 1239 l 332 1239 l 214 1026 "},"Ľ":{"ha":682,"x_min":139,"x_max":668,"o":"m 661 54 l 668 0 l 139 0 l 139 944 l 207 944 l 207 54 l 661 54 m 514 975 q 553 956 539 975 q 568 915 568 936 q 554 835 568 874 q 514 768 540 797 q 449 719 488 739 l 426 754 q 486 802 463 774 q 511 868 510 831 q 483 878 494 868 q 467 900 472 888 q 461 921 461 913 q 467 947 461 935 q 485 967 474 960 q 514 975 497 975 "},"Ñ":{"ha":914,"x_min":139,"x_max":775,"o":"m 207 0 l 139 0 l 139 944 l 178 944 l 660 236 l 707 154 l 707 944 l 775 944 l 775 0 l 738 0 l 226 757 l 207 797 l 207 0 m 592 1179 l 644 1179 q 628 1108 644 1136 q 587 1066 613 1079 q 529 1053 561 1053 q 485 1063 506 1053 q 446 1093 464 1074 q 410 1122 428 1113 q 374 1132 392 1132 q 328 1111 343 1132 q 311 1058 314 1090 l 257 1058 q 273 1131 257 1103 q 315 1172 289 1158 q 372 1185 342 1185 q 424 1175 401 1185 q 463 1146 447 1165 q 494 1116 478 1126 q 529 1106 511 1106 q 574 1126 558 1106 q 592 1179 589 1147 "},"Ń":{"ha":914,"x_min":139,"x_max":775,"o":"m 207 0 l 139 0 l 139 944 l 178 944 l 660 236 l 707 154 l 707 944 l 775 944 l 775 0 l 738 0 l 226 757 l 207 797 l 207 0 m 458 1026 l 414 1042 l 492 1239 l 576 1239 l 458 1026 "},"Ň":{"ha":914,"x_min":139,"x_max":775,"o":"m 207 0 l 139 0 l 139 944 l 178 944 l 660 236 l 707 154 l 707 944 l 775 944 l 775 0 l 738 0 l 226 757 l 207 797 l 207 0 m 463 1075 l 578 1239 l 635 1219 l 489 1026 l 433 1026 l 286 1225 l 343 1239 l 463 1075 "},"Ò":{"ha":982,"x_min":69,"x_max":913,"o":"m 488 -19 q 707 45 611 -19 q 858 222 803 110 q 913 479 913 335 q 859 731 913 621 q 711 904 806 842 q 496 967 617 967 q 276 902 372 967 q 124 725 179 838 q 69 468 69 613 q 124 216 69 326 q 272 43 178 106 q 488 -19 367 -19 m 485 38 q 310 93 386 38 q 190 247 233 149 q 146 469 146 344 q 191 696 146 597 q 316 851 236 794 q 497 908 396 908 q 672 853 596 908 q 792 700 749 797 q 836 478 836 603 q 791 251 836 350 q 667 94 746 151 q 485 38 588 38 m 503 1026 l 385 1239 l 469 1239 l 547 1042 l 503 1026 "},"Ó":{"ha":982,"x_min":69,"x_max":913,"o":"m 488 -19 q 707 45 611 -19 q 858 222 803 110 q 913 479 913 335 q 859 731 913 621 q 711 904 806 842 q 496 967 617 967 q 276 902 372 967 q 124 725 179 838 q 69 468 69 613 q 124 216 69 326 q 272 43 178 106 q 488 -19 367 -19 m 485 38 q 310 93 386 38 q 190 247 233 149 q 146 469 146 344 q 191 696 146 597 q 316 851 236 794 q 497 908 396 908 q 672 853 596 908 q 792 700 749 797 q 836 478 836 603 q 791 251 836 350 q 667 94 746 151 q 485 38 588 38 m 496 1026 l 451 1042 l 529 1239 l 614 1239 l 496 1026 "},"Ô":{"ha":982,"x_min":69,"x_max":913,"o":"m 488 -19 q 707 45 611 -19 q 858 222 803 110 q 913 479 913 335 q 859 731 913 621 q 711 904 806 842 q 496 967 617 967 q 276 902 372 967 q 124 725 179 838 q 69 468 69 613 q 124 216 69 326 q 272 43 178 106 q 488 -19 367 -19 m 485 38 q 310 93 386 38 q 190 247 233 149 q 146 469 146 344 q 191 696 146 597 q 316 851 236 794 q 497 908 396 908 q 672 853 596 908 q 792 700 749 797 q 836 478 836 603 q 791 251 836 350 q 667 94 746 151 q 485 38 588 38 m 506 1192 l 386 1028 l 329 1042 l 476 1240 l 532 1240 l 678 1047 l 621 1028 l 506 1192 "},"Õ":{"ha":982,"x_min":69,"x_max":913,"o":"m 488 -19 q 707 45 611 -19 q 858 222 803 110 q 913 479 913 335 q 859 731 913 621 q 711 904 806 842 q 496 967 617 967 q 276 902 372 967 q 124 725 179 838 q 69 468 69 613 q 124 216 69 326 q 272 43 178 106 q 488 -19 367 -19 m 485 38 q 310 93 386 38 q 190 247 233 149 q 146 469 146 344 q 191 696 146 597 q 316 851 236 794 q 497 908 396 908 q 672 853 596 908 q 792 700 749 797 q 836 478 836 603 q 791 251 836 350 q 667 94 746 151 q 485 38 588 38 m 629 1179 l 682 1179 q 666 1108 682 1136 q 624 1066 650 1079 q 567 1053 599 1053 q 522 1063 543 1053 q 483 1093 501 1074 q 447 1122 465 1113 q 411 1132 429 1132 q 366 1111 381 1132 q 349 1058 351 1090 l 294 1058 q 310 1131 294 1103 q 353 1172 326 1158 q 410 1185 379 1185 q 462 1175 439 1185 q 500 1146 485 1165 q 532 1116 515 1126 q 567 1106 549 1106 q 611 1126 596 1106 q 629 1179 626 1147 "},"Ö":{"ha":982,"x_min":69,"x_max":913,"o":"m 488 -19 q 707 45 611 -19 q 858 222 803 110 q 913 479 913 335 q 859 731 913 621 q 711 904 806 842 q 496 967 617 967 q 276 902 372 967 q 124 725 179 838 q 69 468 69 613 q 124 216 69 326 q 272 43 178 106 q 488 -19 367 -19 m 485 38 q 310 93 386 38 q 190 247 233 149 q 146 469 146 344 q 191 696 146 597 q 316 851 236 794 q 497 908 396 908 q 672 853 596 908 q 792 700 749 797 q 836 478 836 603 q 791 251 836 350 q 667 94 746 151 q 485 38 588 38 m 382 1067 q 344 1081 358 1067 q 331 1118 331 1096 q 344 1154 331 1140 q 382 1168 358 1168 q 418 1154 403 1168 q 433 1118 433 1140 q 418 1081 433 1096 q 382 1067 403 1067 m 603 1067 q 565 1081 579 1067 q 551 1118 551 1096 q 565 1154 551 1140 q 603 1168 579 1168 q 639 1154 624 1168 q 654 1118 654 1140 q 639 1081 654 1096 q 603 1067 624 1067 "},"Ō":{"ha":982,"x_min":69,"x_max":913,"o":"m 488 -19 q 707 45 611 -19 q 858 222 803 110 q 913 479 913 335 q 859 731 913 621 q 711 904 806 842 q 496 967 617 967 q 276 902 372 967 q 124 725 179 838 q 69 468 69 613 q 124 216 69 326 q 272 43 178 106 q 488 -19 367 -19 m 485 38 q 310 93 386 38 q 190 247 233 149 q 146 469 146 344 q 191 696 146 597 q 316 851 236 794 q 497 908 396 908 q 672 853 596 908 q 792 700 749 797 q 836 478 836 603 q 791 251 836 350 q 667 94 746 151 q 485 38 588 38 m 325 1097 l 325 1149 l 653 1149 l 660 1097 l 325 1097 "},"Ő":{"ha":982,"x_min":69,"x_max":913,"o":"m 488 -19 q 707 45 611 -19 q 858 222 803 110 q 913 479 913 335 q 859 731 913 621 q 711 904 806 842 q 496 967 617 967 q 276 902 372 967 q 124 725 179 838 q 69 468 69 613 q 124 216 69 326 q 272 43 178 106 q 488 -19 367 -19 m 485 38 q 310 93 386 38 q 190 247 233 149 q 146 469 146 344 q 191 696 146 597 q 316 851 236 794 q 497 908 396 908 q 672 853 596 908 q 792 700 749 797 q 836 478 836 603 q 791 251 836 350 q 667 94 746 151 q 485 38 588 38 m 413 1026 l 368 1042 l 446 1239 l 531 1239 l 413 1026 m 590 1026 l 546 1042 l 624 1239 l 708 1239 l 590 1026 "},"Ŕ":{"ha":794,"x_min":139,"x_max":781,"o":"m 368 889 l 207 889 l 207 451 l 353 451 q 488 474 424 451 q 594 545 553 496 q 636 672 636 594 q 599 800 636 753 q 501 868 563 847 q 368 889 440 889 m 139 944 l 365 944 q 540 919 464 944 q 661 834 617 893 q 706 675 706 775 q 658 519 706 579 q 535 429 610 458 l 781 0 l 704 0 l 476 411 q 414 401 446 404 q 350 397 382 397 l 207 397 l 207 0 l 139 0 l 139 944 m 365 1026 l 321 1042 l 399 1239 l 483 1239 l 365 1026 "},"Ř":{"ha":794,"x_min":139,"x_max":781,"o":"m 368 889 l 207 889 l 207 451 l 353 451 q 488 474 424 451 q 594 545 553 496 q 636 672 636 594 q 599 800 636 753 q 501 868 563 847 q 368 889 440 889 m 139 944 l 365 944 q 540 919 464 944 q 661 834 617 893 q 706 675 706 775 q 658 519 706 579 q 535 429 610 458 l 781 0 l 704 0 l 476 411 q 414 401 446 404 q 350 397 382 397 l 207 397 l 207 0 l 139 0 l 139 944 m 369 1075 l 485 1239 l 542 1219 l 396 1026 l 340 1026 l 193 1225 l 250 1239 l 369 1075 "},"Ś":{"ha":700,"x_min":69,"x_max":644,"o":"m 76 40 l 97 94 q 158 70 122 83 q 238 49 194 57 q 328 40 282 40 q 463 66 408 40 q 545 133 517 92 q 574 222 574 175 q 546 314 574 274 q 463 389 518 354 q 322 458 407 424 q 214 513 261 483 q 135 576 167 542 q 86 651 103 610 q 69 743 69 693 q 104 858 69 807 q 203 938 139 908 q 356 967 267 967 q 486 950 425 967 q 589 913 547 933 l 558 863 q 506 885 535 874 q 442 903 478 896 q 358 910 407 910 q 200 859 258 910 q 142 736 142 808 q 170 642 142 683 q 255 564 199 600 q 393 493 311 528 q 503 438 456 467 q 581 376 550 410 q 628 304 613 343 q 644 218 644 265 q 608 95 644 149 q 502 12 572 42 q 329 -18 432 -18 q 262 -13 300 -18 q 185 1 224 -8 q 118 20 147 10 q 76 40 89 31 m 356 1026 l 311 1042 l 389 1239 l 474 1239 l 356 1026 "},"Š":{"ha":700,"x_min":69,"x_max":644,"o":"m 76 40 l 97 94 q 158 70 122 83 q 238 49 194 57 q 328 40 282 40 q 463 66 408 40 q 545 133 517 92 q 574 222 574 175 q 546 314 574 274 q 463 389 518 354 q 322 458 407 424 q 214 513 261 483 q 135 576 167 542 q 86 651 103 610 q 69 743 69 693 q 104 858 69 807 q 203 938 139 908 q 356 967 267 967 q 486 950 425 967 q 589 913 547 933 l 558 863 q 506 885 535 874 q 442 903 478 896 q 358 910 407 910 q 200 859 258 910 q 142 736 142 808 q 170 642 142 683 q 255 564 199 600 q 393 493 311 528 q 503 438 456 467 q 581 376 550 410 q 628 304 613 343 q 644 218 644 265 q 608 95 644 149 q 502 12 572 42 q 329 -18 432 -18 q 262 -13 300 -18 q 185 1 224 -8 q 118 20 147 10 q 76 40 89 31 m 360 1075 l 475 1239 l 532 1219 l 386 1026 l 331 1026 l 183 1225 l 240 1239 l 360 1075 "},"Ť":{"ha":742,"x_min":14,"x_max":728,"o":"m 721 944 l 728 890 l 404 890 l 404 0 l 336 0 l 336 890 l 14 890 l 14 944 l 721 944 m 374 1075 l 489 1239 l 546 1219 l 400 1026 l 344 1026 l 197 1225 l 254 1239 l 374 1075 "},"Ù":{"ha":914,"x_min":125,"x_max":789,"o":"m 193 944 l 193 328 q 226 182 193 247 q 318 78 258 117 q 457 40 378 40 q 599 78 540 40 q 690 182 658 117 q 721 328 721 247 l 721 944 l 789 944 l 789 332 q 751 153 789 232 q 639 28 713 74 q 457 -17 565 -17 q 277 28 351 -17 q 164 153 203 74 q 125 332 125 232 l 125 944 l 193 944 m 464 1026 l 346 1239 l 431 1239 l 508 1042 l 464 1026 "},"Ú":{"ha":914,"x_min":125,"x_max":789,"o":"m 193 944 l 193 328 q 226 182 193 247 q 318 78 258 117 q 457 40 378 40 q 599 78 540 40 q 690 182 658 117 q 721 328 721 247 l 721 944 l 789 944 l 789 332 q 751 153 789 232 q 639 28 713 74 q 457 -17 565 -17 q 277 28 351 -17 q 164 153 203 74 q 125 332 125 232 l 125 944 l 193 944 m 457 1026 l 413 1042 l 490 1239 l 575 1239 l 457 1026 "},"Û":{"ha":914,"x_min":125,"x_max":789,"o":"m 193 944 l 193 328 q 226 182 193 247 q 318 78 258 117 q 457 40 378 40 q 599 78 540 40 q 690 182 658 117 q 721 328 721 247 l 721 944 l 789 944 l 789 332 q 751 153 789 232 q 639 28 713 74 q 457 -17 565 -17 q 277 28 351 -17 q 164 153 203 74 q 125 332 125 232 l 125 944 l 193 944 m 467 1192 l 347 1028 l 290 1042 l 438 1240 l 493 1240 l 639 1047 l 582 1028 l 467 1192 "},"Ü":{"ha":914,"x_min":125,"x_max":789,"o":"m 193 944 l 193 328 q 226 182 193 247 q 318 78 258 117 q 457 40 378 40 q 599 78 540 40 q 690 182 658 117 q 721 328 721 247 l 721 944 l 789 944 l 789 332 q 751 153 789 232 q 639 28 713 74 q 457 -17 565 -17 q 277 28 351 -17 q 164 153 203 74 q 125 332 125 232 l 125 944 l 193 944 m 343 1067 q 306 1081 319 1067 q 292 1118 292 1096 q 306 1154 292 1140 q 343 1168 319 1168 q 379 1154 364 1168 q 394 1118 394 1140 q 379 1081 394 1096 q 343 1067 364 1067 m 564 1067 q 526 1081 540 1067 q 513 1118 513 1096 q 526 1154 513 1140 q 564 1168 540 1168 q 600 1154 585 1168 q 615 1118 615 1140 q 600 1081 615 1096 q 564 1067 585 1067 "},"Ū":{"ha":914,"x_min":125,"x_max":789,"o":"m 193 944 l 193 328 q 226 182 193 247 q 318 78 258 117 q 457 40 378 40 q 599 78 540 40 q 690 182 658 117 q 721 328 721 247 l 721 944 l 789 944 l 789 332 q 751 153 789 232 q 639 28 713 74 q 457 -17 565 -17 q 277 28 351 -17 q 164 153 203 74 q 125 332 125 232 l 125 944 l 193 944 m 286 1097 l 286 1149 l 614 1149 l 621 1097 l 286 1097 "},"Ů":{"ha":914,"x_min":125,"x_max":789,"o":"m 193 944 l 193 328 q 226 182 193 247 q 318 78 258 117 q 457 40 378 40 q 599 78 540 40 q 690 182 658 117 q 721 328 721 247 l 721 944 l 789 944 l 789 332 q 751 153 789 232 q 639 28 713 74 q 457 -17 565 -17 q 277 28 351 -17 q 164 153 203 74 q 125 332 125 232 l 125 944 l 193 944 m 454 1263 q 515 1247 488 1263 q 560 1206 543 1232 q 576 1146 576 1179 q 560 1088 576 1114 q 515 1048 543 1063 q 454 1033 488 1033 q 367 1065 404 1033 q 331 1146 331 1097 q 348 1206 331 1179 q 393 1247 365 1232 q 454 1263 421 1263 m 454 1075 q 503 1095 485 1075 q 522 1146 522 1115 q 503 1199 522 1178 q 454 1219 485 1219 q 404 1199 424 1219 q 385 1146 385 1178 q 404 1095 385 1115 q 454 1075 424 1075 "},"Ű":{"ha":914,"x_min":125,"x_max":789,"o":"m 193 944 l 193 328 q 226 182 193 247 q 318 78 258 117 q 457 40 378 40 q 599 78 540 40 q 690 182 658 117 q 721 328 721 247 l 721 944 l 789 944 l 789 332 q 751 153 789 232 q 639 28 713 74 q 457 -17 565 -17 q 277 28 351 -17 q 164 153 203 74 q 125 332 125 232 l 125 944 l 193 944 m 374 1026 l 329 1042 l 407 1239 l 492 1239 l 374 1026 m 551 1026 l 507 1042 l 585 1239 l 669 1239 l 551 1026 "},"Ų":{"ha":914,"x_min":125,"x_max":789,"o":"m 193 944 l 193 328 q 226 182 193 247 q 318 78 258 117 q 457 40 378 40 q 599 78 540 40 q 690 182 658 117 q 721 328 721 247 l 721 944 l 789 944 l 789 332 q 751 153 789 232 q 639 28 713 74 q 457 -17 565 -17 q 277 28 351 -17 q 164 153 203 74 q 125 332 125 232 l 125 944 l 193 944 m 429 6 l 481 0 q 440 -47 456 -22 q 415 -98 424 -71 q 407 -156 407 -125 q 437 -217 407 -197 q 493 -237 467 -237 q 534 -230 515 -237 q 569 -208 553 -222 l 600 -246 q 553 -276 582 -264 q 489 -287 524 -287 q 415 -271 447 -287 q 363 -224 382 -254 q 343 -154 343 -193 q 354 -99 343 -128 q 385 -42 365 -69 q 429 6 404 -15 "},"Ý":{"ha":736,"x_min":14,"x_max":722,"o":"m 394 0 l 326 0 l 326 374 l 14 928 l 82 957 l 360 446 l 643 944 l 722 944 l 394 381 l 394 0 m 360 1026 l 315 1042 l 393 1239 l 478 1239 l 360 1026 "},"Ÿ":{"ha":736,"x_min":14,"x_max":722,"o":"m 394 0 l 326 0 l 326 374 l 14 928 l 82 957 l 360 446 l 643 944 l 722 944 l 394 381 l 394 0 m 246 1067 q 208 1081 222 1067 q 194 1118 194 1096 q 208 1154 194 1140 q 246 1168 222 1168 q 282 1154 267 1168 q 297 1118 297 1140 q 282 1081 297 1096 q 246 1067 267 1067 m 467 1067 q 429 1081 443 1067 q 415 1118 415 1096 q 429 1154 415 1140 q 467 1168 443 1168 q 503 1154 488 1168 q 518 1118 518 1140 q 503 1081 518 1096 q 467 1067 488 1067 "},"Ź":{"ha":749,"x_min":42,"x_max":707,"o":"m 693 54 l 700 0 l 50 0 l 42 69 l 643 890 l 79 890 l 65 944 l 700 944 l 707 876 l 110 54 l 693 54 m 372 1026 l 328 1042 l 406 1239 l 490 1239 l 372 1026 "},"Ż":{"ha":749,"x_min":42,"x_max":707,"o":"m 693 54 l 700 0 l 50 0 l 42 69 l 643 890 l 79 890 l 65 944 l 700 944 l 707 876 l 110 54 l 693 54 m 369 1067 q 331 1082 346 1067 q 317 1119 317 1097 q 331 1157 317 1142 q 369 1172 346 1172 q 408 1157 392 1172 q 424 1119 424 1142 q 408 1082 424 1097 q 369 1067 392 1067 "},"Ž":{"ha":749,"x_min":42,"x_max":707,"o":"m 693 54 l 700 0 l 50 0 l 42 69 l 643 890 l 79 890 l 65 944 l 700 944 l 707 876 l 110 54 l 693 54 m 376 1075 l 492 1239 l 549 1219 l 403 1026 l 347 1026 l 200 1225 l 257 1239 l 376 1075 "},"Ş":{"ha":700,"x_min":69,"x_max":644,"o":"m 76 40 l 97 94 q 158 70 122 83 q 238 49 194 57 q 328 40 282 40 q 463 66 408 40 q 545 133 517 92 q 574 222 574 175 q 546 314 574 274 q 463 389 518 354 q 322 458 407 424 q 214 513 261 483 q 135 576 167 542 q 86 651 103 610 q 69 743 69 693 q 104 858 69 807 q 203 938 139 908 q 356 967 267 967 q 486 950 425 967 q 589 913 547 933 l 558 863 q 506 885 535 874 q 442 903 478 896 q 358 910 407 910 q 200 859 258 910 q 142 736 142 808 q 170 642 142 683 q 255 564 199 600 q 393 493 311 528 q 503 438 456 467 q 581 376 550 410 q 628 304 613 343 q 644 218 644 265 q 608 95 644 149 q 502 12 572 42 q 329 -18 432 -18 q 262 -13 300 -18 q 185 1 224 -8 q 118 20 147 10 q 76 40 89 31 m 261 -107 l 308 18 l 365 18 l 331 -71 q 401 -97 372 -78 q 443 -140 429 -115 q 457 -189 457 -164 q 438 -251 457 -224 q 385 -292 419 -278 q 306 -307 351 -307 q 249 -299 281 -307 q 199 -281 217 -292 l 219 -237 q 256 -250 232 -243 q 301 -257 279 -257 q 372 -237 344 -257 q 399 -192 399 -218 q 383 -153 399 -172 q 336 -120 367 -133 q 261 -107 306 -107 "},"Ţ":{"ha":742,"x_min":14,"x_max":728,"o":"m 721 944 l 728 890 l 404 890 l 404 0 l 336 0 l 336 890 l 14 890 l 14 944 l 721 944 m 303 -107 l 350 18 l 407 18 l 372 -71 q 442 -97 414 -78 q 485 -140 471 -115 q 499 -189 499 -164 q 480 -251 499 -224 q 427 -292 461 -278 q 347 -307 393 -307 q 290 -299 322 -307 q 240 -281 258 -292 l 261 -237 q 297 -250 274 -243 q 343 -257 321 -257 q 413 -237 386 -257 q 440 -192 440 -218 q 424 -153 440 -172 q 378 -120 408 -133 q 303 -107 347 -107 "},"Ș":{"ha":700,"x_min":69,"x_max":644,"o":"m 76 40 l 97 94 q 158 70 122 83 q 238 49 194 57 q 328 40 282 40 q 463 66 408 40 q 545 133 517 92 q 574 222 574 175 q 546 314 574 274 q 463 389 518 354 q 322 458 407 424 q 214 513 261 483 q 135 576 167 542 q 86 651 103 610 q 69 743 69 693 q 104 858 69 807 q 203 938 139 908 q 356 967 267 967 q 486 950 425 967 q 589 913 547 933 l 558 863 q 506 885 535 874 q 442 903 478 896 q 358 910 407 910 q 200 859 258 910 q 142 736 142 808 q 170 642 142 683 q 255 564 199 600 q 393 493 311 528 q 503 438 456 467 q 581 376 550 410 q 628 304 613 343 q 644 218 644 265 q 608 95 644 149 q 502 12 572 42 q 329 -18 432 -18 q 262 -13 300 -18 q 185 1 224 -8 q 118 20 147 10 q 76 40 89 31 m 331 -32 q 370 -51 356 -32 q 385 -92 385 -71 q 371 -172 385 -133 q 331 -239 357 -210 q 265 -287 304 -268 l 243 -253 q 303 -205 279 -233 q 328 -139 326 -176 q 290 -119 303 -139 q 278 -86 278 -100 q 284 -60 278 -72 q 302 -40 290 -47 q 331 -32 314 -32 "},"à":{"ha":660,"x_min":72,"x_max":568,"o":"m 143 189 q 163 113 143 147 q 218 59 182 79 q 304 39 254 39 q 419 72 369 39 q 500 151 468 104 l 500 339 l 318 339 q 185 295 226 339 q 143 189 143 251 m 146 588 l 119 633 q 185 664 146 651 q 266 684 225 676 q 335 692 307 692 q 464 665 413 692 q 542 588 515 638 q 568 472 568 539 l 568 0 l 515 0 l 504 72 q 416 8 469 33 q 299 -18 363 -18 q 128 42 185 -18 q 72 189 72 101 q 140 338 72 285 q 313 390 207 390 l 500 390 l 500 474 q 460 589 500 543 q 339 635 421 635 q 229 621 271 635 q 146 588 188 607 m 338 818 l 219 1031 l 304 1031 l 382 833 l 338 818 "},"á":{"ha":660,"x_min":72,"x_max":568,"o":"m 143 189 q 163 113 143 147 q 218 59 182 79 q 304 39 254 39 q 419 72 369 39 q 500 151 468 104 l 500 339 l 318 339 q 185 295 226 339 q 143 189 143 251 m 146 588 l 119 633 q 185 664 146 651 q 266 684 225 676 q 335 692 307 692 q 464 665 413 692 q 542 588 515 638 q 568 472 568 539 l 568 0 l 515 0 l 504 72 q 416 8 469 33 q 299 -18 363 -18 q 128 42 185 -18 q 72 189 72 101 q 140 338 72 285 q 313 390 207 390 l 500 390 l 500 474 q 460 589 500 543 q 339 635 421 635 q 229 621 271 635 q 146 588 188 607 m 318 818 l 274 833 l 351 1031 l 436 1031 l 318 818 "},"â":{"ha":660,"x_min":72,"x_max":568,"o":"m 143 189 q 163 113 143 147 q 218 59 182 79 q 304 39 254 39 q 419 72 369 39 q 500 151 468 104 l 500 339 l 318 339 q 185 295 226 339 q 143 189 143 251 m 146 588 l 119 633 q 185 664 146 651 q 266 684 225 676 q 335 692 307 692 q 464 665 413 692 q 542 588 515 638 q 568 472 568 539 l 568 0 l 515 0 l 504 72 q 416 8 469 33 q 299 -18 363 -18 q 128 42 185 -18 q 72 189 72 101 q 140 338 72 285 q 313 390 207 390 l 500 390 l 500 474 q 460 589 500 543 q 339 635 421 635 q 229 621 271 635 q 146 588 188 607 m 349 982 l 229 818 l 172 832 l 319 1031 l 375 1031 l 521 838 l 464 818 l 349 982 "},"ã":{"ha":660,"x_min":72,"x_max":568,"o":"m 143 189 q 163 113 143 147 q 218 59 182 79 q 304 39 254 39 q 419 72 369 39 q 500 151 468 104 l 500 339 l 318 339 q 185 295 226 339 q 143 189 143 251 m 146 588 l 119 633 q 185 664 146 651 q 266 684 225 676 q 335 692 307 692 q 464 665 413 692 q 542 588 515 638 q 568 472 568 539 l 568 0 l 515 0 l 504 72 q 416 8 469 33 q 299 -18 363 -18 q 128 42 185 -18 q 72 189 72 101 q 140 338 72 285 q 313 390 207 390 l 500 390 l 500 474 q 460 589 500 543 q 339 635 421 635 q 229 621 271 635 q 146 588 188 607 m 475 971 l 528 971 q 512 899 528 928 q 470 858 496 871 q 413 844 444 844 q 368 855 389 844 q 329 885 347 865 q 293 914 311 904 q 257 924 275 924 q 212 903 226 924 q 194 850 197 882 l 140 850 q 156 922 140 894 q 199 963 172 950 q 256 976 225 976 q 308 967 285 976 q 346 938 331 957 q 378 908 361 918 q 413 897 394 897 q 457 918 442 897 q 475 971 472 939 "},"ä":{"ha":660,"x_min":72,"x_max":568,"o":"m 143 189 q 163 113 143 147 q 218 59 182 79 q 304 39 254 39 q 419 72 369 39 q 500 151 468 104 l 500 339 l 318 339 q 185 295 226 339 q 143 189 143 251 m 146 588 l 119 633 q 185 664 146 651 q 266 684 225 676 q 335 692 307 692 q 464 665 413 692 q 542 588 515 638 q 568 472 568 539 l 568 0 l 515 0 l 504 72 q 416 8 469 33 q 299 -18 363 -18 q 128 42 185 -18 q 72 189 72 101 q 140 338 72 285 q 313 390 207 390 l 500 390 l 500 474 q 460 589 500 543 q 339 635 421 635 q 229 621 271 635 q 146 588 188 607 m 228 858 q 190 873 204 858 q 176 910 176 888 q 190 946 176 932 q 228 960 204 960 q 264 946 249 960 q 279 910 279 932 q 264 873 279 888 q 228 858 249 858 m 449 858 q 411 873 425 858 q 397 910 397 888 q 411 946 397 932 q 449 960 425 960 q 485 946 469 960 q 500 910 500 932 q 485 873 500 888 q 449 858 469 858 "},"å":{"ha":660,"x_min":72,"x_max":568,"o":"m 143 189 q 163 113 143 147 q 218 59 182 79 q 304 39 254 39 q 419 72 369 39 q 500 151 468 104 l 500 339 l 318 339 q 185 295 226 339 q 143 189 143 251 m 146 588 l 119 633 q 185 664 146 651 q 266 684 225 676 q 335 692 307 692 q 464 665 413 692 q 542 588 515 638 q 568 472 568 539 l 568 0 l 515 0 l 504 72 q 416 8 469 33 q 299 -18 363 -18 q 128 42 185 -18 q 72 189 72 101 q 140 338 72 285 q 313 390 207 390 l 500 390 l 500 474 q 460 589 500 543 q 339 635 421 635 q 229 621 271 635 q 146 588 188 607 m 331 1054 q 392 1039 364 1054 q 436 997 419 1024 q 453 938 453 971 q 436 880 453 906 q 392 840 419 854 q 331 825 364 825 q 244 857 281 825 q 207 938 207 889 q 224 997 207 971 q 269 1039 242 1024 q 331 1054 297 1054 m 331 867 q 380 887 361 867 q 399 938 399 907 q 380 990 399 969 q 331 1011 361 1011 q 281 990 300 1011 q 261 938 261 969 q 281 887 261 907 q 331 867 300 867 "},"ā":{"ha":660,"x_min":72,"x_max":568,"o":"m 143 189 q 163 113 143 147 q 218 59 182 79 q 304 39 254 39 q 419 72 369 39 q 500 151 468 104 l 500 339 l 318 339 q 185 295 226 339 q 143 189 143 251 m 146 588 l 119 633 q 185 664 146 651 q 266 684 225 676 q 335 692 307 692 q 464 665 413 692 q 542 588 515 638 q 568 472 568 539 l 568 0 l 515 0 l 504 72 q 416 8 469 33 q 299 -18 363 -18 q 128 42 185 -18 q 72 189 72 101 q 140 338 72 285 q 313 390 207 390 l 500 390 l 500 474 q 460 589 500 543 q 339 635 421 635 q 229 621 271 635 q 146 588 188 607 m 164 889 l 164 940 l 490 940 l 499 889 l 164 889 "},"ă":{"ha":660,"x_min":72,"x_max":568,"o":"m 143 189 q 163 113 143 147 q 218 59 182 79 q 304 39 254 39 q 419 72 369 39 q 500 151 468 104 l 500 339 l 318 339 q 185 295 226 339 q 143 189 143 251 m 146 588 l 119 633 q 185 664 146 651 q 266 684 225 676 q 335 692 307 692 q 464 665 413 692 q 542 588 515 638 q 568 472 568 539 l 568 0 l 515 0 l 504 72 q 416 8 469 33 q 299 -18 363 -18 q 128 42 185 -18 q 72 189 72 101 q 140 338 72 285 q 313 390 207 390 l 500 390 l 500 474 q 460 589 500 543 q 339 635 421 635 q 229 621 271 635 q 146 588 188 607 m 454 1015 l 511 1015 q 491 928 511 969 q 431 860 471 886 q 331 835 392 835 q 232 860 272 835 q 171 928 192 886 q 150 1015 150 969 l 207 1015 q 240 928 207 967 q 331 889 272 889 q 422 926 389 889 q 454 1015 454 964 "},"ą":{"ha":660,"x_min":72,"x_max":688,"o":"m 517 6 l 568 0 q 527 -47 543 -22 q 503 -98 511 -71 q 494 -156 494 -125 q 524 -217 494 -197 q 581 -237 554 -237 q 622 -230 603 -237 q 657 -208 640 -222 l 688 -246 q 640 -276 669 -264 q 576 -287 611 -287 q 502 -271 535 -287 q 450 -224 469 -254 q 431 -154 431 -193 q 442 -99 431 -128 q 472 -42 453 -69 q 517 6 492 -15 m 143 189 q 163 113 143 147 q 218 59 182 79 q 304 39 254 39 q 419 72 369 39 q 500 151 468 104 l 500 339 l 318 339 q 185 295 226 339 q 143 189 143 251 m 146 588 l 119 633 q 185 664 146 651 q 266 684 225 676 q 335 692 307 692 q 464 665 413 692 q 542 588 515 638 q 568 472 568 539 l 568 0 l 515 0 l 504 72 q 416 8 469 33 q 299 -18 363 -18 q 128 42 185 -18 q 72 189 72 101 q 140 338 72 285 q 313 390 207 390 l 500 390 l 500 474 q 460 589 500 543 q 339 635 421 635 q 229 621 271 635 q 146 588 188 607 "},"ç":{"ha":624,"x_min":56,"x_max":574,"o":"m 539 86 l 567 39 q 501 9 539 22 q 426 -11 464 -4 q 360 -18 389 -18 q 193 28 261 -18 q 90 155 125 74 q 56 340 56 236 q 92 521 56 442 q 200 646 129 600 q 369 692 271 692 q 435 684 397 692 q 510 664 472 676 q 574 633 547 651 l 546 588 q 471 619 511 604 q 367 635 431 635 q 239 594 293 635 q 156 488 185 554 q 126 342 126 421 q 153 190 126 260 q 233 80 181 121 q 360 39 285 39 q 466 53 429 39 q 539 86 503 68 m 292 -107 l 339 18 l 396 18 l 361 -71 q 431 -97 403 -78 q 474 -140 460 -115 q 488 -189 488 -164 q 469 -251 488 -224 q 416 -292 450 -278 q 336 -307 382 -307 q 279 -299 311 -307 q 229 -281 247 -292 l 250 -237 q 286 -250 263 -243 q 332 -257 310 -257 q 402 -237 375 -257 q 429 -192 429 -218 q 413 -153 429 -172 q 367 -120 397 -133 q 292 -107 336 -107 "},"ć":{"ha":624,"x_min":56,"x_max":574,"o":"m 539 86 l 567 39 q 501 9 539 22 q 426 -11 464 -4 q 360 -18 389 -18 q 193 28 261 -18 q 90 155 125 74 q 56 340 56 236 q 92 521 56 442 q 200 646 129 600 q 369 692 271 692 q 435 684 397 692 q 510 664 472 676 q 574 633 547 651 l 546 588 q 471 619 511 604 q 367 635 431 635 q 239 594 293 635 q 156 488 185 554 q 126 342 126 421 q 153 190 126 260 q 233 80 181 121 q 360 39 285 39 q 466 53 429 39 q 539 86 503 68 m 325 818 l 281 833 l 358 1031 l 443 1031 l 325 818 "},"č":{"ha":624,"x_min":56,"x_max":574,"o":"m 539 86 l 567 39 q 501 9 539 22 q 426 -11 464 -4 q 360 -18 389 -18 q 193 28 261 -18 q 90 155 125 74 q 56 340 56 236 q 92 521 56 442 q 200 646 129 600 q 369 692 271 692 q 435 684 397 692 q 510 664 472 676 q 574 633 547 651 l 546 588 q 471 619 511 604 q 367 635 431 635 q 239 594 293 635 q 156 488 185 554 q 126 342 126 421 q 153 190 126 260 q 233 80 181 121 q 360 39 285 39 q 466 53 429 39 q 539 86 503 68 m 338 867 l 453 1031 l 510 1011 l 364 818 l 308 818 l 161 1017 l 218 1031 l 338 867 "},"ď":{"ha":883,"x_min":56,"x_max":842,"o":"m 788 975 q 827 956 813 975 q 842 915 842 936 q 828 835 842 874 q 788 768 814 797 q 722 719 761 739 l 700 754 q 760 802 736 774 q 785 868 783 831 q 757 878 768 868 q 740 900 746 888 q 735 921 735 913 q 741 947 735 935 q 759 967 747 960 q 788 975 771 975 m 532 74 l 532 967 l 600 979 l 600 0 l 563 0 l 532 74 m 539 138 l 567 90 q 505 33 539 58 q 431 -5 471 8 q 346 -18 392 -18 q 183 28 247 -18 q 87 155 118 74 q 56 340 56 236 q 89 521 56 442 q 190 646 122 600 q 356 692 257 692 q 443 675 400 692 q 521 635 486 658 q 574 592 556 613 l 546 546 q 464 607 511 579 q 353 635 417 635 q 228 594 279 635 q 152 488 178 554 q 126 342 126 421 q 150 190 126 260 q 222 80 174 121 q 346 39 271 39 q 459 68 415 39 q 539 138 503 97 "},"è":{"ha":667,"x_min":56,"x_max":611,"o":"m 611 336 l 126 336 q 152 188 128 256 q 228 80 176 121 q 364 39 281 39 q 483 53 438 39 q 563 86 528 68 l 590 35 q 522 6 563 18 q 442 -12 482 -6 q 375 -18 403 -18 q 194 28 265 -18 q 90 155 124 74 q 56 340 56 236 q 88 521 56 442 q 185 646 119 600 q 350 692 251 692 q 485 647 426 692 q 577 524 543 601 q 611 347 611 446 l 611 336 m 129 388 l 539 388 q 512 510 533 454 q 449 601 490 567 q 340 635 407 635 q 229 601 274 635 q 160 510 185 567 q 129 388 136 454 m 351 818 l 233 1031 l 318 1031 l 396 833 l 351 818 "},"é":{"ha":667,"x_min":56,"x_max":611,"o":"m 611 336 l 126 336 q 152 188 128 256 q 228 80 176 121 q 364 39 281 39 q 483 53 438 39 q 563 86 528 68 l 590 35 q 522 6 563 18 q 442 -12 482 -6 q 375 -18 403 -18 q 194 28 265 -18 q 90 155 124 74 q 56 340 56 236 q 88 521 56 442 q 185 646 119 600 q 350 692 251 692 q 485 647 426 692 q 577 524 543 601 q 611 347 611 446 l 611 336 m 129 388 l 539 388 q 512 510 533 454 q 449 601 490 567 q 340 635 407 635 q 229 601 274 635 q 160 510 185 567 q 129 388 136 454 m 332 818 l 288 833 l 365 1031 l 450 1031 l 332 818 "},"ê":{"ha":667,"x_min":56,"x_max":611,"o":"m 611 336 l 126 336 q 152 188 128 256 q 228 80 176 121 q 364 39 281 39 q 483 53 438 39 q 563 86 528 68 l 590 35 q 522 6 563 18 q 442 -12 482 -6 q 375 -18 403 -18 q 194 28 265 -18 q 90 155 124 74 q 56 340 56 236 q 88 521 56 442 q 185 646 119 600 q 350 692 251 692 q 485 647 426 692 q 577 524 543 601 q 611 347 611 446 l 611 336 m 129 388 l 539 388 q 512 510 533 454 q 449 601 490 567 q 340 635 407 635 q 229 601 274 635 q 160 510 185 567 q 129 388 136 454 m 363 982 l 243 818 l 186 832 l 333 1031 l 389 1031 l 535 838 l 478 818 l 363 982 "},"ë":{"ha":667,"x_min":56,"x_max":611,"o":"m 611 336 l 126 336 q 152 188 128 256 q 228 80 176 121 q 364 39 281 39 q 483 53 438 39 q 563 86 528 68 l 590 35 q 522 6 563 18 q 442 -12 482 -6 q 375 -18 403 -18 q 194 28 265 -18 q 90 155 124 74 q 56 340 56 236 q 88 521 56 442 q 185 646 119 600 q 350 692 251 692 q 485 647 426 692 q 577 524 543 601 q 611 347 611 446 l 611 336 m 129 388 l 539 388 q 512 510 533 454 q 449 601 490 567 q 340 635 407 635 q 229 601 274 635 q 160 510 185 567 q 129 388 136 454 m 242 858 q 204 873 218 858 q 190 910 190 888 q 204 946 190 932 q 242 960 218 960 q 278 946 263 960 q 293 910 293 932 q 278 873 293 888 q 242 858 263 858 m 463 858 q 425 873 439 858 q 411 910 411 888 q 425 946 411 932 q 463 960 439 960 q 499 946 483 960 q 514 910 514 932 q 499 873 514 888 q 463 858 483 858 "},"ē":{"ha":667,"x_min":56,"x_max":611,"o":"m 611 336 l 126 336 q 152 188 128 256 q 228 80 176 121 q 364 39 281 39 q 483 53 438 39 q 563 86 528 68 l 590 35 q 522 6 563 18 q 442 -12 482 -6 q 375 -18 403 -18 q 194 28 265 -18 q 90 155 124 74 q 56 340 56 236 q 88 521 56 442 q 185 646 119 600 q 350 692 251 692 q 485 647 426 692 q 577 524 543 601 q 611 347 611 446 l 611 336 m 129 388 l 539 388 q 512 510 533 454 q 449 601 490 567 q 340 635 407 635 q 229 601 274 635 q 160 510 185 567 q 129 388 136 454 m 178 889 l 178 940 l 504 940 l 513 889 l 178 889 "},"ė":{"ha":667,"x_min":56,"x_max":611,"o":"m 611 336 l 126 336 q 152 188 128 256 q 228 80 176 121 q 364 39 281 39 q 483 53 438 39 q 563 86 528 68 l 590 35 q 522 6 563 18 q 442 -12 482 -6 q 375 -18 403 -18 q 194 28 265 -18 q 90 155 124 74 q 56 340 56 236 q 88 521 56 442 q 185 646 119 600 q 350 692 251 692 q 485 647 426 692 q 577 524 543 601 q 611 347 611 446 l 611 336 m 129 388 l 539 388 q 512 510 533 454 q 449 601 490 567 q 340 635 407 635 q 229 601 274 635 q 160 510 185 567 q 129 388 136 454 m 344 858 q 306 874 321 858 q 292 911 292 889 q 306 949 292 933 q 344 964 321 964 q 383 949 367 964 q 399 911 399 933 q 383 874 399 889 q 344 858 367 858 "},"ę":{"ha":667,"x_min":56,"x_max":611,"o":"m 611 336 l 126 336 q 152 188 128 256 q 228 80 176 121 q 364 39 281 39 q 483 53 438 39 q 563 86 528 68 l 590 35 q 522 6 563 18 q 442 -12 482 -6 q 375 -18 403 -18 q 194 28 265 -18 q 90 155 124 74 q 56 340 56 236 q 88 521 56 442 q 185 646 119 600 q 350 692 251 692 q 485 647 426 692 q 577 524 543 601 q 611 347 611 446 l 611 336 m 129 388 l 539 388 q 512 510 533 454 q 449 601 490 567 q 340 635 407 635 q 229 601 274 635 q 160 510 185 567 q 129 388 136 454 m 429 6 l 481 0 q 440 -47 456 -22 q 415 -98 424 -71 q 407 -156 407 -125 q 437 -217 407 -197 q 493 -237 467 -237 q 534 -230 515 -237 q 569 -208 553 -222 l 600 -246 q 553 -276 582 -264 q 489 -287 524 -287 q 415 -271 447 -287 q 363 -224 382 -254 q 343 -154 343 -193 q 354 -99 343 -128 q 385 -42 365 -69 q 429 6 404 -15 "},"ě":{"ha":667,"x_min":56,"x_max":611,"o":"m 611 336 l 126 336 q 152 188 128 256 q 228 80 176 121 q 364 39 281 39 q 483 53 438 39 q 563 86 528 68 l 590 35 q 522 6 563 18 q 442 -12 482 -6 q 375 -18 403 -18 q 194 28 265 -18 q 90 155 124 74 q 56 340 56 236 q 88 521 56 442 q 185 646 119 600 q 350 692 251 692 q 485 647 426 692 q 577 524 543 601 q 611 347 611 446 l 611 336 m 129 388 l 539 388 q 512 510 533 454 q 449 601 490 567 q 340 635 407 635 q 229 601 274 635 q 160 510 185 567 q 129 388 136 454 m 344 867 l 460 1031 l 517 1011 l 371 818 l 315 818 l 168 1017 l 225 1031 l 344 867 "},"ğ":{"ha":706,"x_min":56,"x_max":600,"o":"m 600 674 l 600 -86 q 570 -206 600 -153 q 481 -289 540 -258 q 333 -319 422 -319 q 282 -315 313 -319 q 217 -303 251 -311 q 153 -285 183 -296 q 104 -262 124 -275 l 131 -214 q 222 -249 178 -235 q 331 -262 267 -262 q 474 -223 415 -262 q 532 -100 532 -183 l 532 572 l 563 674 l 600 674 m 539 138 l 567 90 q 505 33 539 58 q 431 -5 471 8 q 346 -18 392 -18 q 183 28 247 -18 q 87 155 118 74 q 56 340 56 236 q 89 521 56 442 q 190 646 122 600 q 356 692 257 692 q 443 675 400 692 q 521 635 486 658 q 574 592 556 613 l 546 546 q 464 607 511 579 q 353 635 417 635 q 228 594 279 635 q 152 488 178 554 q 126 342 126 421 q 150 190 126 260 q 222 80 174 121 q 346 39 271 39 q 459 68 415 39 q 539 138 503 97 m 471 1015 l 528 1015 q 508 928 528 969 q 448 860 488 886 q 347 835 408 835 q 249 860 289 835 q 188 928 208 886 q 167 1015 167 969 l 224 1015 q 256 928 224 967 q 347 889 289 889 q 438 926 406 889 q 471 1015 471 964 "},"ì":{"ha":263,"x_min":19,"x_max":182,"o":"m 165 0 l 97 0 l 97 674 l 165 674 l 165 0 m 138 818 l 19 1031 l 104 1031 l 182 833 l 138 818 "},"í":{"ha":263,"x_min":74,"x_max":236,"o":"m 165 0 l 97 0 l 97 674 l 165 674 l 165 0 m 118 818 l 74 833 l 151 1031 l 236 1031 l 118 818 "},"î":{"ha":263,"x_min":-28,"x_max":321,"o":"m 165 0 l 97 0 l 97 674 l 165 674 l 165 0 m 149 982 l 29 818 l -28 832 l 119 1031 l 175 1031 l 321 838 l 264 818 l 149 982 "},"ï":{"ha":263,"x_min":-24,"x_max":300,"o":"m 165 0 l 97 0 l 97 674 l 165 674 l 165 0 m 28 858 q -10 873 4 858 q -24 910 -24 888 q -10 946 -24 932 q 28 960 4 960 q 64 946 49 960 q 79 910 79 932 q 64 873 79 888 q 28 858 49 858 m 249 858 q 211 873 225 858 q 197 910 197 888 q 211 946 197 932 q 249 960 225 960 q 285 946 269 960 q 300 910 300 932 q 285 873 300 888 q 249 858 269 858 "},"ī":{"ha":263,"x_min":-36,"x_max":299,"o":"m 165 0 l 97 0 l 97 674 l 165 674 l 165 0 m -36 889 l -36 940 l 290 940 l 299 889 l -36 889 "},"į":{"ha":263,"x_min":28,"x_max":285,"o":"m 100 6 l 165 0 q 124 -47 140 -22 q 100 -98 108 -71 q 92 -156 92 -125 q 122 -217 92 -197 q 178 -237 151 -237 q 219 -230 200 -237 q 254 -208 238 -222 l 285 -246 q 238 -276 267 -264 q 174 -287 208 -287 q 99 -271 132 -287 q 47 -224 67 -254 q 28 -154 28 -193 q 51 -65 28 -104 q 100 6 74 -25 m 165 0 l 97 0 l 97 674 l 165 674 l 165 0 m 131 858 q 92 874 107 858 q 78 911 78 889 q 92 949 78 933 q 131 964 107 964 q 169 949 153 964 q 185 911 185 933 q 169 874 185 889 q 131 858 153 858 "},"ľ":{"ha":463,"x_min":111,"x_max":421,"o":"m 367 975 q 406 956 392 975 q 421 915 421 936 q 407 835 421 874 q 367 768 393 797 q 301 719 340 739 l 279 754 q 339 802 315 774 q 364 868 363 831 q 336 878 347 868 q 319 900 325 888 q 314 921 314 913 q 320 947 314 935 q 338 967 326 960 q 367 975 350 975 m 179 0 l 111 0 l 111 967 l 179 981 l 179 0 "},"ñ":{"ha":694,"x_min":97,"x_max":603,"o":"m 165 0 l 97 0 l 97 674 l 150 674 l 164 568 q 233 629 193 601 q 317 674 272 657 q 403 692 361 692 q 519 663 475 692 q 583 583 563 633 q 603 468 603 533 l 603 0 l 535 0 l 535 468 q 510 586 535 538 q 408 635 485 635 q 327 617 368 635 q 245 569 286 600 q 165 499 204 539 l 165 0 m 503 971 l 556 971 q 540 899 556 928 q 498 858 524 871 q 440 844 472 844 q 396 855 417 844 q 357 885 375 865 q 321 914 339 904 q 285 924 303 924 q 240 903 254 924 q 222 850 225 882 l 168 850 q 184 922 168 894 q 226 963 200 950 q 283 976 253 976 q 335 967 313 976 q 374 938 358 957 q 406 908 389 918 q 440 897 422 897 q 485 918 469 897 q 503 971 500 939 "},"ń":{"ha":694,"x_min":97,"x_max":603,"o":"m 165 0 l 97 0 l 97 674 l 150 674 l 164 568 q 233 629 193 601 q 317 674 272 657 q 403 692 361 692 q 519 663 475 692 q 583 583 563 633 q 603 468 603 533 l 603 0 l 535 0 l 535 468 q 510 586 535 538 q 408 635 485 635 q 327 617 368 635 q 245 569 286 600 q 165 499 204 539 l 165 0 m 346 818 l 301 833 l 379 1031 l 464 1031 l 346 818 "},"ň":{"ha":694,"x_min":97,"x_max":603,"o":"m 165 0 l 97 0 l 97 674 l 150 674 l 164 568 q 233 629 193 601 q 317 674 272 657 q 403 692 361 692 q 519 663 475 692 q 583 583 563 633 q 603 468 603 533 l 603 0 l 535 0 l 535 468 q 510 586 535 538 q 408 635 485 635 q 327 617 368 635 q 245 569 286 600 q 165 499 204 539 l 165 0 m 358 867 l 474 1031 l 531 1011 l 385 818 l 329 818 l 182 1017 l 239 1031 l 358 867 "},"ò":{"ha":726,"x_min":56,"x_max":671,"o":"m 360 -18 q 528 29 458 -17 q 634 154 597 75 q 671 333 671 233 q 637 518 671 438 q 535 645 603 599 q 368 692 468 692 q 199 645 269 692 q 92 519 129 599 q 56 340 56 440 q 90 156 56 236 q 192 29 125 75 q 360 -18 260 -17 m 360 39 q 233 80 285 39 q 153 190 181 121 q 126 342 126 260 q 156 488 126 421 q 239 594 185 554 q 367 635 293 635 q 494 594 443 635 q 573 484 546 553 q 600 332 600 415 q 571 187 600 254 q 488 79 542 119 q 360 39 435 39 m 372 818 l 254 1031 l 339 1031 l 417 833 l 372 818 "},"ó":{"ha":726,"x_min":56,"x_max":671,"o":"m 360 -18 q 528 29 458 -17 q 634 154 597 75 q 671 333 671 233 q 637 518 671 438 q 535 645 603 599 q 368 692 468 692 q 199 645 269 692 q 92 519 129 599 q 56 340 56 440 q 90 156 56 236 q 192 29 125 75 q 360 -18 260 -17 m 360 39 q 233 80 285 39 q 153 190 181 121 q 126 342 126 260 q 156 488 126 421 q 239 594 185 554 q 367 635 293 635 q 494 594 443 635 q 573 484 546 553 q 600 332 600 415 q 571 187 600 254 q 488 79 542 119 q 360 39 435 39 m 353 818 l 308 833 l 386 1031 l 471 1031 l 353 818 "},"ô":{"ha":726,"x_min":56,"x_max":671,"o":"m 360 -18 q 528 29 458 -17 q 634 154 597 75 q 671 333 671 233 q 637 518 671 438 q 535 645 603 599 q 368 692 468 692 q 199 645 269 692 q 92 519 129 599 q 56 340 56 440 q 90 156 56 236 q 192 29 125 75 q 360 -18 260 -17 m 360 39 q 233 80 285 39 q 153 190 181 121 q 126 342 126 260 q 156 488 126 421 q 239 594 185 554 q 367 635 293 635 q 494 594 443 635 q 573 484 546 553 q 600 332 600 415 q 571 187 600 254 q 488 79 542 119 q 360 39 435 39 m 383 982 l 264 818 l 207 832 l 354 1031 l 410 1031 l 556 838 l 499 818 l 383 982 "},"õ":{"ha":726,"x_min":56,"x_max":671,"o":"m 360 -18 q 528 29 458 -17 q 634 154 597 75 q 671 333 671 233 q 637 518 671 438 q 535 645 603 599 q 368 692 468 692 q 199 645 269 692 q 92 519 129 599 q 56 340 56 440 q 90 156 56 236 q 192 29 125 75 q 360 -18 260 -17 m 360 39 q 233 80 285 39 q 153 190 181 121 q 126 342 126 260 q 156 488 126 421 q 239 594 185 554 q 367 635 293 635 q 494 594 443 635 q 573 484 546 553 q 600 332 600 415 q 571 187 600 254 q 488 79 542 119 q 360 39 435 39 m 510 971 l 563 971 q 547 899 563 928 q 505 858 531 871 q 447 844 479 844 q 403 855 424 844 q 364 885 382 865 q 328 914 346 904 q 292 924 310 924 q 247 903 261 924 q 229 850 232 882 l 175 850 q 191 922 175 894 q 233 963 207 950 q 290 976 260 976 q 342 967 319 976 q 381 938 365 957 q 413 908 396 918 q 447 897 429 897 q 492 918 476 897 q 510 971 507 939 "},"ö":{"ha":726,"x_min":56,"x_max":671,"o":"m 360 -18 q 528 29 458 -17 q 634 154 597 75 q 671 333 671 233 q 637 518 671 438 q 535 645 603 599 q 368 692 468 692 q 199 645 269 692 q 92 519 129 599 q 56 340 56 440 q 90 156 56 236 q 192 29 125 75 q 360 -18 260 -17 m 360 39 q 233 80 285 39 q 153 190 181 121 q 126 342 126 260 q 156 488 126 421 q 239 594 185 554 q 367 635 293 635 q 494 594 443 635 q 573 484 546 553 q 600 332 600 415 q 571 187 600 254 q 488 79 542 119 q 360 39 435 39 m 263 858 q 225 873 239 858 q 211 910 211 888 q 225 946 211 932 q 263 960 239 960 q 299 946 283 960 q 314 910 314 932 q 299 873 314 888 q 263 858 283 858 m 483 858 q 446 873 460 858 q 432 910 432 888 q 446 946 432 932 q 483 960 460 960 q 519 946 504 960 q 535 910 535 932 q 519 873 535 888 q 483 858 504 858 "},"ō":{"ha":726,"x_min":56,"x_max":671,"o":"m 360 -18 q 528 29 458 -17 q 634 154 597 75 q 671 333 671 233 q 637 518 671 438 q 535 645 603 599 q 368 692 468 692 q 199 645 269 692 q 92 519 129 599 q 56 340 56 440 q 90 156 56 236 q 192 29 125 75 q 360 -18 260 -17 m 360 39 q 233 80 285 39 q 153 190 181 121 q 126 342 126 260 q 156 488 126 421 q 239 594 185 554 q 367 635 293 635 q 494 594 443 635 q 573 484 546 553 q 600 332 600 415 q 571 187 600 254 q 488 79 542 119 q 360 39 435 39 m 199 889 l 199 940 l 525 940 l 533 889 l 199 889 "},"ő":{"ha":726,"x_min":56,"x_max":671,"o":"m 360 -18 q 528 29 458 -17 q 634 154 597 75 q 671 333 671 233 q 637 518 671 438 q 535 645 603 599 q 368 692 468 692 q 199 645 269 692 q 92 519 129 599 q 56 340 56 440 q 90 156 56 236 q 192 29 125 75 q 360 -18 260 -17 m 360 39 q 233 80 285 39 q 153 190 181 121 q 126 342 126 260 q 156 488 126 421 q 239 594 185 554 q 367 635 293 635 q 494 594 443 635 q 573 484 546 553 q 600 332 600 415 q 571 187 600 254 q 488 79 542 119 q 360 39 435 39 m 288 818 l 243 833 l 321 1031 l 406 1031 l 288 818 m 465 818 l 421 833 l 499 1031 l 583 1031 l 465 818 "},"ŕ":{"ha":419,"x_min":97,"x_max":406,"o":"m 165 0 l 97 0 l 97 674 l 136 674 l 161 567 q 224 613 186 588 q 305 656 263 638 q 382 674 347 674 l 406 621 q 317 601 364 621 q 231 553 271 582 q 165 496 192 525 l 165 0 m 200 818 l 156 833 l 233 1031 l 318 1031 l 200 818 "},"ř":{"ha":419,"x_min":36,"x_max":406,"o":"m 165 0 l 97 0 l 97 674 l 136 674 l 161 567 q 224 613 186 588 q 305 656 263 638 q 382 674 347 674 l 406 621 q 317 601 364 621 q 231 553 271 582 q 165 496 192 525 l 165 0 m 213 867 l 328 1031 l 385 1011 l 239 818 l 183 818 l 36 1017 l 93 1031 l 213 867 "},"ś":{"ha":564,"x_min":58,"x_max":508,"o":"m 58 35 l 83 92 q 137 68 108 81 q 198 47 165 56 q 265 39 231 39 q 360 55 321 39 q 422 99 400 71 q 443 165 443 128 q 419 226 443 199 q 356 276 396 253 q 265 318 315 299 q 169 365 214 339 q 97 427 124 392 q 69 506 69 463 q 128 638 69 585 q 301 692 188 692 q 366 685 331 692 q 435 665 401 678 q 492 636 469 653 l 464 588 q 395 618 436 601 q 292 635 354 635 q 178 597 221 635 q 135 511 135 560 q 185 431 135 464 q 304 369 235 397 q 406 319 360 347 q 480 255 451 292 q 508 171 508 218 q 450 32 508 82 q 263 -18 392 -18 q 197 -12 235 -18 q 122 6 158 -6 q 58 35 85 18 m 285 818 l 240 833 l 318 1031 l 403 1031 l 285 818 "},"š":{"ha":564,"x_min":58,"x_max":508,"o":"m 58 35 l 83 92 q 137 68 108 81 q 198 47 165 56 q 265 39 231 39 q 360 55 321 39 q 422 99 400 71 q 443 165 443 128 q 419 226 443 199 q 356 276 396 253 q 265 318 315 299 q 169 365 214 339 q 97 427 124 392 q 69 506 69 463 q 128 638 69 585 q 301 692 188 692 q 366 685 331 692 q 435 665 401 678 q 492 636 469 653 l 464 588 q 395 618 436 601 q 292 635 354 635 q 178 597 221 635 q 135 511 135 560 q 185 431 135 464 q 304 369 235 397 q 406 319 360 347 q 480 255 451 292 q 508 171 508 218 q 450 32 508 82 q 263 -18 392 -18 q 197 -12 235 -18 q 122 6 158 -6 q 58 35 85 18 m 297 867 l 413 1031 l 469 1011 l 324 818 l 268 818 l 121 1017 l 178 1031 l 297 867 "},"ť":{"ha":572,"x_min":28,"x_max":531,"o":"m 476 975 q 516 956 501 975 q 531 915 531 936 q 517 835 531 874 q 476 768 503 797 q 411 719 450 739 l 389 754 q 449 802 425 774 q 474 868 472 831 q 446 878 457 868 q 429 900 435 888 q 424 921 424 913 q 430 947 424 935 q 448 967 436 960 q 476 975 460 975 m 318 653 l 347 601 l 196 601 l 196 171 q 217 80 196 121 q 290 39 239 39 q 323 44 306 39 q 347 51 340 49 l 364 -1 q 340 -8 354 -4 q 308 -15 325 -12 q 272 -18 290 -18 q 197 3 229 -18 q 146 63 164 24 q 128 161 128 103 l 128 601 l 28 601 l 28 653 l 128 653 l 128 835 l 196 865 l 196 653 l 318 653 "},"ù":{"ha":694,"x_min":92,"x_max":597,"o":"m 529 674 l 597 674 l 597 0 l 544 0 l 531 106 q 463 44 503 72 q 378 -1 422 15 q 292 -18 333 -18 q 176 11 219 -18 q 112 91 132 40 q 92 206 92 142 l 92 674 l 160 674 l 160 206 q 185 88 160 136 q 286 39 210 39 q 367 56 326 39 q 449 105 408 74 q 529 175 490 136 l 529 674 m 347 818 l 229 1031 l 314 1031 l 392 833 l 347 818 "},"ú":{"ha":694,"x_min":92,"x_max":597,"o":"m 529 674 l 597 674 l 597 0 l 544 0 l 531 106 q 463 44 503 72 q 378 -1 422 15 q 292 -18 333 -18 q 176 11 219 -18 q 112 91 132 40 q 92 206 92 142 l 92 674 l 160 674 l 160 206 q 185 88 160 136 q 286 39 210 39 q 367 56 326 39 q 449 105 408 74 q 529 175 490 136 l 529 674 m 328 818 l 283 833 l 361 1031 l 446 1031 l 328 818 "},"û":{"ha":694,"x_min":92,"x_max":597,"o":"m 529 674 l 597 674 l 597 0 l 544 0 l 531 106 q 463 44 503 72 q 378 -1 422 15 q 292 -18 333 -18 q 176 11 219 -18 q 112 91 132 40 q 92 206 92 142 l 92 674 l 160 674 l 160 206 q 185 88 160 136 q 286 39 210 39 q 367 56 326 39 q 449 105 408 74 q 529 175 490 136 l 529 674 m 358 982 l 239 818 l 182 832 l 329 1031 l 385 1031 l 531 838 l 474 818 l 358 982 "},"ü":{"ha":694,"x_min":92,"x_max":597,"o":"m 529 674 l 597 674 l 597 0 l 544 0 l 531 106 q 463 44 503 72 q 378 -1 422 15 q 292 -18 333 -18 q 176 11 219 -18 q 112 91 132 40 q 92 206 92 142 l 92 674 l 160 674 l 160 206 q 185 88 160 136 q 286 39 210 39 q 367 56 326 39 q 449 105 408 74 q 529 175 490 136 l 529 674 m 238 858 q 200 873 214 858 q 186 910 186 888 q 200 946 186 932 q 238 960 214 960 q 274 946 258 960 q 289 910 289 932 q 274 873 289 888 q 238 858 258 858 m 458 858 q 421 873 435 858 q 407 910 407 888 q 421 946 407 932 q 458 960 435 960 q 494 946 479 960 q 510 910 510 932 q 494 873 510 888 q 458 858 479 858 "},"ū":{"ha":694,"x_min":92,"x_max":597,"o":"m 529 674 l 597 674 l 597 0 l 544 0 l 531 106 q 463 44 503 72 q 378 -1 422 15 q 292 -18 333 -18 q 176 11 219 -18 q 112 91 132 40 q 92 206 92 142 l 92 674 l 160 674 l 160 206 q 185 88 160 136 q 286 39 210 39 q 367 56 326 39 q 449 105 408 74 q 529 175 490 136 l 529 674 m 174 889 l 174 940 l 500 940 l 508 889 l 174 889 "},"ů":{"ha":694,"x_min":92,"x_max":597,"o":"m 529 674 l 597 674 l 597 0 l 544 0 l 531 106 q 463 44 503 72 q 378 -1 422 15 q 292 -18 333 -18 q 176 11 219 -18 q 112 91 132 40 q 92 206 92 142 l 92 674 l 160 674 l 160 206 q 185 88 160 136 q 286 39 210 39 q 367 56 326 39 q 449 105 408 74 q 529 175 490 136 l 529 674 m 340 1054 q 401 1039 374 1054 q 446 997 429 1024 q 463 938 463 971 q 446 880 463 906 q 401 840 429 854 q 340 825 374 825 q 253 857 290 825 q 217 938 217 889 q 234 997 217 971 q 279 1039 251 1024 q 340 1054 307 1054 m 340 867 q 390 887 371 867 q 408 938 408 907 q 390 990 408 969 q 340 1011 371 1011 q 290 990 310 1011 q 271 938 271 969 q 290 887 271 907 q 340 867 310 867 "},"ű":{"ha":694,"x_min":92,"x_max":597,"o":"m 529 674 l 597 674 l 597 0 l 544 0 l 531 106 q 463 44 503 72 q 378 -1 422 15 q 292 -18 333 -18 q 176 11 219 -18 q 112 91 132 40 q 92 206 92 142 l 92 674 l 160 674 l 160 206 q 185 88 160 136 q 286 39 210 39 q 367 56 326 39 q 449 105 408 74 q 529 175 490 136 l 529 674 m 263 818 l 218 833 l 296 1031 l 381 1031 l 263 818 m 440 818 l 396 833 l 474 1031 l 558 1031 l 440 818 "},"ų":{"ha":694,"x_min":92,"x_max":717,"o":"m 546 6 l 597 0 q 556 -47 572 -22 q 532 -98 540 -71 q 524 -156 524 -125 q 553 -217 524 -197 q 610 -237 583 -237 q 651 -230 632 -237 q 686 -208 669 -222 l 717 -246 q 669 -276 699 -264 q 606 -287 640 -287 q 531 -271 564 -287 q 479 -224 499 -254 q 460 -154 460 -193 q 471 -99 460 -128 q 501 -42 482 -69 q 546 6 521 -15 m 529 674 l 597 674 l 597 0 l 544 0 l 531 106 q 463 44 503 72 q 378 -1 422 15 q 292 -18 333 -18 q 176 11 219 -18 q 112 91 132 40 q 92 206 92 142 l 92 674 l 160 674 l 160 206 q 185 88 160 136 q 286 39 210 39 q 367 56 326 39 q 449 105 408 74 q 529 175 490 136 l 529 674 "},"ý":{"ha":597,"x_min":14,"x_max":583,"o":"m 225 -136 l 268 0 l 14 657 l 78 682 l 300 78 l 514 674 l 583 674 l 279 -156 q 239 -224 265 -193 q 176 -274 213 -254 q 94 -304 139 -294 l 88 -251 q 150 -224 124 -239 q 195 -188 176 -210 q 225 -136 214 -167 m 278 818 l 233 833 l 311 1031 l 396 1031 l 278 818 "},"ÿ":{"ha":597,"x_min":14,"x_max":583,"o":"m 225 -136 l 268 0 l 14 657 l 78 682 l 300 78 l 514 674 l 583 674 l 279 -156 q 239 -224 265 -193 q 176 -274 213 -254 q 94 -304 139 -294 l 88 -251 q 150 -224 124 -239 q 195 -188 176 -210 q 225 -136 214 -167 m 188 858 q 150 873 164 858 q 136 910 136 888 q 150 946 136 932 q 188 960 164 960 q 224 946 208 960 q 239 910 239 932 q 224 873 239 888 q 188 858 208 858 m 408 858 q 371 873 385 858 q 357 910 357 888 q 371 946 357 932 q 408 960 385 960 q 444 946 429 960 q 460 910 460 932 q 444 873 460 888 q 408 858 429 858 "},"ź":{"ha":600,"x_min":39,"x_max":561,"o":"m 557 674 l 561 629 l 110 51 l 539 51 l 553 0 l 50 0 l 39 43 l 486 622 l 101 622 l 79 674 l 557 674 m 299 818 l 254 833 l 332 1031 l 417 1031 l 299 818 "},"ż":{"ha":600,"x_min":39,"x_max":561,"o":"m 557 674 l 561 629 l 110 51 l 539 51 l 553 0 l 50 0 l 39 43 l 486 622 l 101 622 l 79 674 l 557 674 m 311 858 q 273 874 288 858 q 258 911 258 889 q 273 949 258 933 q 311 964 288 964 q 349 949 333 964 q 365 911 365 933 q 349 874 365 889 q 311 858 333 858 "},"ž":{"ha":600,"x_min":39,"x_max":561,"o":"m 557 674 l 561 629 l 110 51 l 539 51 l 553 0 l 50 0 l 39 43 l 486 622 l 101 622 l 79 674 l 557 674 m 311 867 l 426 1031 l 483 1011 l 338 818 l 282 818 l 135 1017 l 192 1031 l 311 867 "},"ş":{"ha":564,"x_min":58,"x_max":508,"o":"m 58 35 l 83 92 q 137 68 108 81 q 198 47 165 56 q 265 39 231 39 q 360 55 321 39 q 422 99 400 71 q 443 165 443 128 q 419 226 443 199 q 356 276 396 253 q 265 318 315 299 q 169 365 214 339 q 97 427 124 392 q 69 506 69 463 q 128 638 69 585 q 301 692 188 692 q 366 685 331 692 q 435 665 401 678 q 492 636 469 653 l 464 588 q 395 618 436 601 q 292 635 354 635 q 178 597 221 635 q 135 511 135 560 q 185 431 135 464 q 304 369 235 397 q 406 319 360 347 q 480 255 451 292 q 508 171 508 218 q 450 32 508 82 q 263 -18 392 -18 q 197 -12 235 -18 q 122 6 158 -6 q 58 35 85 18 m 194 -107 l 242 18 l 299 18 l 264 -71 q 334 -97 306 -78 q 376 -140 363 -115 q 390 -189 390 -164 q 372 -251 390 -224 q 319 -292 353 -278 q 239 -307 285 -307 q 182 -299 214 -307 q 132 -281 150 -292 l 153 -237 q 189 -250 165 -243 q 235 -257 213 -257 q 305 -237 278 -257 q 332 -192 332 -218 q 316 -153 332 -172 q 269 -120 300 -133 q 194 -107 239 -107 "},"ţ":{"ha":406,"x_min":28,"x_max":388,"o":"m 318 653 l 347 601 l 196 601 l 196 171 q 217 80 196 121 q 290 39 239 39 q 323 44 306 39 q 347 51 340 49 l 364 -1 q 340 -8 354 -4 q 308 -15 325 -12 q 272 -18 290 -18 q 197 3 229 -18 q 146 63 164 24 q 128 161 128 103 l 128 601 l 28 601 l 28 653 l 128 653 l 128 835 l 196 865 l 196 653 l 318 653 m 192 -107 l 239 18 l 296 18 l 261 -71 q 331 -97 303 -78 q 374 -140 360 -115 q 388 -189 388 -164 q 369 -251 388 -224 q 316 -292 350 -278 q 236 -307 282 -307 q 179 -299 211 -307 q 129 -281 147 -292 l 150 -237 q 186 -250 163 -243 q 232 -257 210 -257 q 302 -237 275 -257 q 329 -192 329 -218 q 313 -153 329 -172 q 267 -120 297 -133 q 192 -107 236 -107 "},"ș":{"ha":564,"x_min":58,"x_max":508,"o":"m 58 35 l 83 92 q 137 68 108 81 q 198 47 165 56 q 265 39 231 39 q 360 55 321 39 q 422 99 400 71 q 443 165 443 128 q 419 226 443 199 q 356 276 396 253 q 265 318 315 299 q 169 365 214 339 q 97 427 124 392 q 69 506 69 463 q 128 638 69 585 q 301 692 188 692 q 366 685 331 692 q 435 665 401 678 q 492 636 469 653 l 464 588 q 395 618 436 601 q 292 635 354 635 q 178 597 221 635 q 135 511 135 560 q 185 431 135 464 q 304 369 235 397 q 406 319 360 347 q 480 255 451 292 q 508 171 508 218 q 450 32 508 82 q 263 -18 392 -18 q 197 -12 235 -18 q 122 6 158 -6 q 58 35 85 18 m 264 -35 q 303 -54 289 -35 q 318 -94 318 -74 q 304 -174 318 -136 q 264 -242 290 -212 q 199 -290 238 -271 l 176 -256 q 236 -208 213 -236 q 261 -142 260 -179 q 224 -122 236 -142 q 211 -89 211 -103 q 217 -62 211 -75 q 235 -42 224 -50 q 264 -35 247 -35 "},"­":{"ha":167,"x_min":0,"x_max":0,"o":""},"µ":{"ha":708,"x_min":106,"x_max":611,"o":"m 174 -289 l 106 -304 l 106 553 l 174 581 l 174 -289 m 543 674 l 611 674 l 611 0 l 558 0 l 544 106 q 476 44 517 72 q 392 -1 436 15 q 306 -18 347 -18 q 190 11 233 -18 q 126 91 146 40 q 106 206 106 142 l 106 674 l 174 674 l 174 206 q 199 88 174 136 q 300 39 224 39 q 381 56 340 39 q 463 105 422 74 q 543 175 504 136 l 543 674 "},"ˉ":{"ha":363,"x_min":14,"x_max":349,"o":"m 14 903 l 14 957 l 340 957 l 349 903 l 14 903 "},"ℓ":{"ha":469,"x_min":14,"x_max":428,"o":"m 31 257 l 14 322 q 50 348 32 335 q 86 376 68 361 q 121 404 104 390 l 121 786 q 140 889 121 847 q 192 953 158 931 q 271 975 226 975 q 353 953 318 975 q 408 892 389 932 q 428 797 428 853 q 394 651 428 725 q 305 508 360 578 q 189 381 250 439 l 189 169 q 201 107 189 136 q 239 59 214 78 q 299 40 264 40 q 337 48 321 40 q 361 60 353 56 l 378 8 q 355 -3 369 3 q 325 -13 340 -10 q 297 -17 310 -17 q 206 6 246 -17 q 143 73 165 29 q 121 176 121 117 l 121 321 q 90 298 106 310 q 59 276 74 286 q 31 257 44 267 m 189 468 q 309 626 260 542 q 358 794 358 711 q 333 887 358 856 q 272 918 307 918 q 213 886 236 918 q 189 786 189 854 l 189 468 "},"Ω":{"ha":975,"x_min":69,"x_max":906,"o":"m 833 469 q 789 690 833 592 q 667 847 744 789 q 490 906 590 906 q 313 847 392 906 q 190 690 235 789 q 146 469 146 592 q 159 352 146 414 q 197 232 172 290 q 254 129 221 174 q 328 61 288 85 l 335 0 l 78 0 l 72 54 l 238 54 q 149 161 188 93 q 90 310 111 229 q 69 468 69 390 q 120 719 69 607 q 265 899 171 832 q 490 967 360 967 q 716 899 624 967 q 857 719 808 832 q 906 468 906 607 q 885 310 906 390 q 826 161 864 229 q 736 54 789 93 l 903 54 l 897 0 l 644 0 l 651 61 q 725 129 692 85 q 783 232 758 174 q 820 352 807 290 q 833 469 833 414 "},"∆":{"ha":794,"x_min":14,"x_max":781,"o":"m 357 944 l 421 944 l 781 15 l 781 0 l 14 0 l 357 944 m 690 54 l 390 853 l 101 54 l 690 54 "},"∕":{"ha":521,"x_min":14,"x_max":507,"o":"m 442 986 l 507 981 l 78 -6 l 14 0 l 442 986 "},"∙":{"ha":254,"x_min":42,"x_max":213,"o":"m 128 368 q 84 380 104 368 q 53 411 64 392 q 42 453 42 431 q 53 497 42 478 q 84 528 64 517 q 128 539 104 539 q 170 528 151 539 q 201 497 189 517 q 213 453 213 478 q 201 411 213 431 q 170 380 189 392 q 128 368 151 368 "},"₺":{"ha":682,"x_min":0,"x_max":654,"o":"m 175 0 l 175 529 l 8 471 l 0 525 l 175 586 l 175 679 l 8 621 l 0 675 l 175 736 l 175 967 l 243 981 l 243 761 l 468 840 l 478 788 l 243 704 l 243 611 l 468 690 l 478 638 l 243 554 l 243 54 q 365 88 304 54 q 478 180 426 122 q 560 310 529 238 q 590 460 590 383 l 654 460 q 619 283 654 367 q 526 136 585 200 q 393 36 467 72 q 243 0 319 0 l 175 0 "},"₽":{"ha":761,"x_min":51,"x_max":706,"o":"m 608 283 l 615 229 l 58 229 l 51 283 l 608 283 m 207 0 l 139 0 l 139 944 l 365 944 q 540 916 464 944 q 661 825 617 888 q 706 660 706 763 q 678 528 706 583 q 601 437 650 472 q 488 384 553 401 q 350 367 424 367 l 207 367 l 207 0 m 382 889 l 207 889 l 207 421 l 367 421 q 503 447 442 421 q 600 527 564 474 q 636 658 636 581 q 604 791 636 740 q 515 865 572 842 q 382 889 458 889 m 174 421 l 181 367 l 58 367 l 51 421 l 174 421 "},"¢":{"ha":624,"x_min":56,"x_max":574,"o":"m 394 663 l 333 663 l 333 826 l 394 840 l 394 663 m 394 0 l 394 -154 l 333 -154 l 333 0 l 394 0 m 539 86 l 567 39 q 501 9 539 22 q 426 -11 464 -4 q 360 -18 389 -18 q 193 28 261 -18 q 90 155 125 74 q 56 340 56 236 q 92 521 56 442 q 200 646 129 600 q 369 692 271 692 q 435 684 397 692 q 510 664 472 676 q 574 633 547 651 l 546 588 q 471 619 511 604 q 367 635 431 635 q 239 594 293 635 q 156 488 185 554 q 126 342 126 421 q 153 190 126 260 q 233 80 181 121 q 360 39 285 39 q 466 53 429 39 q 539 86 503 68 "},"£":{"ha":592,"x_min":83,"x_max":578,"o":"m 97 0 l 94 54 q 165 88 144 56 q 185 169 185 119 l 185 464 l 86 464 l 83 515 l 185 515 l 185 757 q 201 859 185 815 q 249 926 217 903 q 331 950 281 950 q 367 947 350 950 q 399 940 385 944 q 422 932 414 936 l 406 881 q 380 889 397 885 q 349 893 363 893 q 274 861 296 893 q 253 779 253 829 l 253 515 l 447 515 l 478 464 l 253 464 l 253 199 q 244 116 253 151 q 206 54 236 81 l 569 54 l 578 0 l 97 0 "},"¤":{"ha":918,"x_min":42,"x_max":876,"o":"m 82 -75 l 42 -31 l 188 114 q 138 217 156 160 q 121 342 121 275 q 138 458 121 403 q 189 557 156 513 l 42 701 l 82 746 l 229 603 q 334 668 274 644 q 465 692 394 692 q 592 668 535 692 q 690 604 649 644 l 836 746 l 876 701 l 731 557 q 780 452 763 510 q 797 332 797 394 q 779 217 797 272 q 726 117 761 161 l 876 -31 l 836 -75 l 685 71 q 582 6 642 29 q 451 -18 522 -18 q 327 4 383 -18 q 228 67 271 26 l 82 -75 m 726 332 q 696 481 726 413 q 607 592 665 550 q 465 635 549 635 q 323 594 385 635 q 226 488 261 554 q 192 342 192 421 q 226 187 192 256 q 318 78 260 118 q 451 39 376 39 q 594 78 532 39 q 691 185 656 118 q 726 332 726 251 "},"¥":{"ha":736,"x_min":14,"x_max":722,"o":"m 86 414 l 643 414 l 650 360 l 93 360 l 86 414 m 86 179 l 643 179 l 650 125 l 93 125 l 86 179 m 394 0 l 326 0 l 326 374 l 14 928 l 82 957 l 360 446 l 643 944 l 722 944 l 394 381 l 394 0 "},"€":{"ha":824,"x_min":0,"x_max":782,"o":"m 0 619 l 557 619 l 564 565 l 7 565 l 0 619 m 0 368 l 557 368 l 564 314 l 7 314 l 0 368 m 782 913 l 754 863 q 699 884 726 875 q 637 899 671 893 q 553 904 603 904 q 374 851 454 904 q 248 699 294 797 q 201 468 201 601 q 224 306 201 383 q 290 169 247 229 q 397 75 333 110 q 540 40 460 40 q 663 53 615 40 q 749 82 711 65 l 782 32 q 717 6 757 18 q 632 -12 676 -6 q 547 -19 588 -19 q 359 20 439 -19 q 228 128 279 60 q 151 283 176 196 q 125 467 125 371 q 154 661 125 571 q 238 819 183 751 q 374 926 293 888 q 556 964 454 964 q 628 958 585 964 q 714 942 671 953 q 782 913 757 931 "},"$":{"ha":742,"x_min":69,"x_max":644,"o":"m 268 -154 l 324 -154 l 324 -18 l 329 -18 q 375 -16 353 -18 q 417 -11 397 -14 l 417 -154 l 474 -154 l 474 1 q 601 85 558 29 q 644 218 644 142 q 628 304 644 265 q 581 376 613 343 q 503 438 550 410 q 393 493 456 467 q 255 564 311 528 q 170 642 199 600 q 142 736 142 683 q 200 859 142 808 q 358 910 258 910 q 442 903 407 910 q 506 885 478 896 q 558 863 535 874 l 589 913 q 537 935 567 924 q 474 953 507 946 l 474 1111 l 417 1097 l 417 963 q 387 966 403 965 q 356 967 371 967 q 338 966 347 967 q 324 964 329 965 l 324 1107 l 268 1093 l 268 958 q 122 881 175 939 q 69 743 69 822 q 86 651 69 693 q 135 576 103 610 q 214 513 167 542 q 322 458 261 483 q 463 389 407 424 q 546 314 518 354 q 574 222 574 274 q 545 133 574 175 q 463 66 517 92 q 328 40 408 40 q 238 49 282 40 q 158 70 194 57 q 97 94 122 83 l 76 40 q 120 19 89 31 q 191 0 151 8 q 268 -14 231 -8 l 268 -154 "},",":{"ha":211,"x_min":28,"x_max":169,"o":"m 115 106 q 155 86 140 106 q 169 46 169 67 q 156 -35 169 3 q 115 -101 142 -72 q 50 -150 89 -131 l 28 -115 q 88 -67 64 -96 q 113 -1 111 -39 q 85 8 96 -1 q 68 30 74 18 q 63 51 63 42 q 69 78 63 65 q 87 98 75 90 q 115 106 99 106 "},".":{"ha":190,"x_min":42,"x_max":149,"o":"m 94 0 q 56 15 71 0 q 42 53 42 31 q 56 90 42 75 q 94 106 71 106 q 133 90 117 106 q 149 53 149 75 q 133 15 149 31 q 94 0 117 0 "},"!":{"ha":192,"x_min":42,"x_max":150,"o":"m 75 257 l 75 975 l 150 975 l 138 228 l 75 257 m 94 106 q 133 90 117 106 q 149 53 149 75 q 133 15 149 31 q 94 0 117 0 q 56 15 71 0 q 42 53 42 31 q 56 90 42 75 q 94 106 71 106 "},"¡":{"ha":192,"x_min":42,"x_max":150,"o":"m 97 869 q 59 885 75 869 q 43 922 43 900 q 59 960 43 944 q 97 975 75 975 q 135 960 121 975 q 150 922 150 944 q 135 885 150 900 q 97 869 121 869 m 117 718 l 117 0 l 42 0 l 54 747 l 117 718 "},":":{"ha":190,"x_min":42,"x_max":149,"o":"m 94 507 q 56 522 71 507 q 42 560 42 538 q 56 597 42 582 q 94 613 71 613 q 133 597 117 613 q 149 560 149 582 q 133 522 149 538 q 94 507 117 507 m 94 64 q 56 79 71 64 q 42 117 42 94 q 56 154 42 139 q 94 169 71 169 q 133 154 117 169 q 149 117 149 139 q 133 79 149 94 q 94 64 117 64 "},";":{"ha":211,"x_min":28,"x_max":169,"o":"m 115 507 q 77 522 92 507 q 63 560 63 538 q 77 597 63 582 q 115 613 92 613 q 153 597 138 613 q 169 560 169 582 q 153 522 169 538 q 115 507 138 507 m 115 169 q 155 150 140 169 q 169 110 169 131 q 156 30 169 68 q 115 -37 142 -8 q 50 -86 89 -67 l 28 -51 q 88 -3 64 -32 q 113 63 111 25 q 85 72 96 63 q 68 94 74 82 q 63 115 63 107 q 69 142 63 129 q 87 162 75 154 q 115 169 99 169 "},"?":{"ha":544,"x_min":14,"x_max":503,"o":"m 258 975 q 396 946 342 975 q 476 865 450 917 q 503 747 503 814 q 475 642 503 694 q 394 542 447 589 q 263 461 340 496 l 249 190 l 203 219 l 193 504 q 365 603 301 539 q 429 746 429 667 q 382 874 429 829 q 256 918 335 918 q 130 895 181 918 q 25 833 79 872 l 14 890 q 113 949 50 922 q 258 975 176 975 m 214 106 q 252 90 236 106 q 268 53 268 75 q 252 15 268 31 q 214 0 236 0 q 176 15 190 0 q 161 53 161 31 q 176 90 161 75 q 214 106 190 106 "},"¿":{"ha":544,"x_min":42,"x_max":531,"o":"m 331 758 q 292 774 308 758 q 276 811 276 789 q 292 849 276 833 q 331 864 308 864 q 369 849 354 864 q 383 811 383 833 q 369 774 383 789 q 331 758 354 758 m 286 -111 q 149 -82 204 -111 q 68 -1 94 -53 q 42 117 42 50 q 69 222 42 169 q 151 322 97 275 q 282 403 206 369 l 296 674 l 342 644 l 351 360 q 179 261 243 325 q 115 118 115 197 q 163 -10 115 35 q 289 -54 210 -54 q 415 -31 364 -54 q 519 31 465 -8 l 531 -26 q 431 -85 494 -58 q 286 -111 368 -111 "},"*":{"ha":435,"x_min":14,"x_max":421,"o":"m 239 1075 l 239 908 l 403 951 l 421 907 l 260 867 l 369 701 l 326 679 l 217 836 l 114 679 l 64 701 l 174 867 l 14 907 l 31 951 l 190 908 l 190 1075 l 239 1075 "},"\"":{"ha":382,"x_min":28,"x_max":340,"o":"m 286 975 q 326 956 311 975 q 340 915 340 936 q 326 835 340 874 q 286 768 313 797 q 221 719 260 739 l 199 754 q 258 802 235 774 q 283 868 282 831 q 246 888 258 868 q 233 921 233 907 q 240 947 233 935 q 258 967 246 960 q 286 975 269 975 m 115 975 q 155 956 140 975 q 169 915 169 936 q 156 835 169 874 q 115 768 142 797 q 50 719 89 739 l 28 754 q 88 802 64 774 q 113 868 111 831 q 85 878 96 868 q 68 900 74 888 q 63 921 63 913 q 69 947 63 935 q 87 967 75 960 q 115 975 99 975 "},"'":{"ha":211,"x_min":28,"x_max":169,"o":"m 115 975 q 155 956 140 975 q 169 915 169 936 q 156 835 169 874 q 115 768 142 797 q 50 719 89 739 l 28 754 q 88 802 64 774 q 113 868 111 831 q 85 878 96 868 q 68 900 74 888 q 63 921 63 913 q 69 947 63 935 q 87 967 75 960 q 115 975 99 975 "},"‘":{"ha":211,"x_min":42,"x_max":183,"o":"m 96 719 q 56 739 71 719 q 42 779 42 758 q 56 860 42 822 q 96 927 69 897 q 161 975 122 957 l 183 940 q 124 892 147 921 q 99 826 100 864 q 136 807 124 826 q 149 774 149 788 q 142 747 149 760 q 125 727 136 735 q 96 719 114 719 "},"’":{"ha":211,"x_min":28,"x_max":169,"o":"m 115 975 q 155 956 140 975 q 169 915 169 936 q 156 835 169 874 q 115 768 142 797 q 50 719 89 739 l 28 754 q 88 802 64 774 q 113 868 111 831 q 85 878 96 868 q 68 900 74 888 q 63 921 63 913 q 69 947 63 935 q 87 967 75 960 q 115 975 99 975 "},"‚":{"ha":211,"x_min":28,"x_max":169,"o":"m 115 106 q 155 86 140 106 q 169 46 169 67 q 156 -35 169 3 q 115 -101 142 -72 q 50 -150 89 -131 l 28 -115 q 88 -67 64 -96 q 113 -1 111 -39 q 85 8 96 -1 q 68 30 74 18 q 63 51 63 42 q 69 78 63 65 q 87 98 75 90 q 115 106 99 106 "},"“":{"ha":382,"x_min":42,"x_max":354,"o":"m 96 719 q 56 739 71 719 q 42 779 42 758 q 56 860 42 822 q 96 927 69 897 q 161 975 122 957 l 183 940 q 124 892 147 921 q 99 826 100 864 q 136 807 124 826 q 149 774 149 788 q 142 747 149 760 q 125 727 136 735 q 96 719 114 719 m 267 719 q 227 739 242 719 q 213 779 213 758 q 226 860 213 822 q 267 927 240 897 q 332 975 293 957 l 354 940 q 294 892 318 921 q 269 826 271 864 q 297 817 286 826 q 314 795 308 807 q 319 774 319 783 q 313 747 319 760 q 296 727 307 735 q 267 719 285 719 "},"”":{"ha":382,"x_min":28,"x_max":340,"o":"m 286 975 q 326 956 311 975 q 340 915 340 936 q 326 835 340 874 q 286 768 313 797 q 221 719 260 739 l 199 754 q 258 802 235 774 q 283 868 282 831 q 246 888 258 868 q 233 921 233 907 q 240 947 233 935 q 258 967 246 960 q 286 975 269 975 m 115 975 q 155 956 140 975 q 169 915 169 936 q 156 835 169 874 q 115 768 142 797 q 50 719 89 739 l 28 754 q 88 802 64 774 q 113 868 111 831 q 85 878 96 868 q 68 900 74 888 q 63 921 63 913 q 69 947 63 935 q 87 967 75 960 q 115 975 99 975 "},"„":{"ha":382,"x_min":28,"x_max":340,"o":"m 115 106 q 155 86 140 106 q 169 46 169 67 q 156 -35 169 3 q 115 -101 142 -72 q 50 -150 89 -131 l 28 -115 q 88 -67 64 -96 q 113 -1 111 -39 q 85 8 96 -1 q 68 30 74 18 q 63 51 63 42 q 69 78 63 65 q 87 98 75 90 q 115 106 99 106 m 286 106 q 326 86 311 106 q 340 46 340 67 q 326 -35 340 3 q 286 -101 313 -72 q 221 -150 260 -131 l 199 -115 q 258 -67 235 -96 q 283 -1 282 -39 q 246 18 258 -1 q 233 51 233 38 q 240 78 233 65 q 258 98 246 90 q 286 106 269 106 "},"·":{"ha":190,"x_min":42,"x_max":149,"o":"m 94 311 q 56 326 71 311 q 42 364 42 342 q 56 401 42 386 q 94 417 71 417 q 133 401 117 417 q 149 364 149 386 q 133 326 149 342 q 94 311 117 311 "},"(":{"ha":332,"x_min":69,"x_max":290,"o":"m 290 -26 l 235 -51 q 140 110 176 24 q 87 284 104 197 q 69 444 69 371 q 87 604 69 518 q 140 777 104 690 q 235 938 176 864 l 290 913 q 233 822 260 879 q 185 696 206 764 q 152 562 164 628 q 140 446 140 496 q 152 328 140 396 q 185 191 164 261 q 233 63 206 121 q 290 -26 260 6 "},")":{"ha":332,"x_min":42,"x_max":263,"o":"m 42 913 l 97 938 q 190 777 154 864 q 244 604 226 690 q 263 444 263 518 q 244 284 263 371 q 190 110 226 197 q 97 -51 154 24 l 42 -26 q 98 63 71 6 q 147 190 125 121 q 180 326 168 260 q 192 443 192 393 q 180 560 192 493 q 147 695 168 626 q 98 822 125 764 q 42 913 71 879 "},"[":{"ha":368,"x_min":139,"x_max":354,"o":"m 139 -122 l 139 967 l 354 967 l 343 913 l 207 913 l 207 -68 l 343 -68 l 354 -122 l 139 -122 "},"]":{"ha":368,"x_min":14,"x_max":229,"o":"m 229 967 l 229 -122 l 14 -122 l 25 -68 l 161 -68 l 161 913 l 25 913 l 14 967 l 229 967 "},"{":{"ha":368,"x_min":42,"x_max":354,"o":"m 179 426 q 241 371 214 410 q 268 271 268 332 q 262 228 268 253 q 242 174 256 204 q 222 119 228 143 q 215 75 215 94 q 240 19 215 46 q 315 -8 264 -8 l 342 -8 l 354 -62 l 318 -62 q 188 -23 231 -62 q 146 83 146 17 q 152 131 146 106 q 171 183 158 156 q 190 236 183 211 q 196 283 196 261 q 163 367 196 335 q 88 400 129 400 l 42 400 l 42 453 l 88 453 q 163 485 129 453 q 196 569 196 518 q 190 617 196 592 q 171 669 183 642 q 152 722 158 697 q 146 769 146 747 q 188 876 146 836 q 318 915 231 915 l 354 915 l 342 861 l 315 861 q 240 834 264 861 q 215 778 215 807 q 222 735 215 760 q 242 679 228 710 q 262 624 256 649 q 268 582 268 600 q 241 482 268 521 q 179 426 214 443 "},"}":{"ha":368,"x_min":14,"x_max":326,"o":"m 189 426 q 127 482 154 443 q 100 582 100 521 q 106 624 100 600 q 126 679 113 649 q 147 735 140 710 q 153 778 153 760 q 128 834 153 807 q 53 861 104 861 l 26 861 l 14 915 l 50 915 q 180 876 138 915 q 222 769 222 836 q 216 722 222 747 q 197 669 210 697 q 178 617 185 642 q 172 569 172 592 q 206 485 172 518 q 281 453 239 453 l 326 453 l 326 400 l 281 400 q 206 367 239 400 q 172 283 172 335 q 178 236 172 261 q 197 183 185 211 q 216 131 210 156 q 222 83 222 106 q 180 -23 222 17 q 50 -62 138 -62 l 14 -62 l 26 -8 l 53 -8 q 128 19 104 -8 q 153 75 153 46 q 147 119 153 94 q 126 174 140 143 q 106 228 113 204 q 100 271 100 253 q 127 371 100 332 q 189 426 154 410 "},"/":{"ha":521,"x_min":14,"x_max":507,"o":"m 442 986 l 507 981 l 78 -6 l 14 0 l 442 986 "},"\\":{"ha":521,"x_min":14,"x_max":507,"o":"m 507 0 l 442 -6 l 14 981 l 79 986 l 507 0 "},"|":{"ha":346,"x_min":139,"x_max":207,"o":"m 139 986 l 207 981 l 207 -6 l 139 0 l 139 986 "},"¦":{"ha":346,"x_min":139,"x_max":207,"o":"m 139 986 l 207 981 l 207 564 l 139 569 l 139 986 m 139 406 l 207 400 l 207 -6 l 139 0 l 139 406 "},"«":{"ha":504,"x_min":42,"x_max":476,"o":"m 253 318 l 253 363 l 447 564 l 476 521 l 306 340 l 476 160 l 447 117 l 253 318 m 42 318 l 42 363 l 236 564 l 265 521 l 96 340 l 265 160 l 236 117 l 42 318 "},"»":{"ha":504,"x_min":28,"x_max":463,"o":"m 251 363 l 251 318 l 57 117 l 28 160 l 199 340 l 28 521 l 57 564 l 251 363 m 463 363 l 463 318 l 268 117 l 239 160 l 408 340 l 239 521 l 268 564 l 463 363 "},"π":{"ha":751,"x_min":14,"x_max":738,"o":"m 219 0 l 151 0 l 151 619 l 14 619 l 14 674 l 738 674 l 738 619 l 599 619 l 599 0 l 531 0 l 531 619 l 219 619 l 219 0 "},"†":{"ha":508,"x_min":42,"x_max":467,"o":"m 214 1088 l 282 1083 l 282 860 l 440 860 l 467 808 l 282 808 l 282 -6 l 214 0 l 214 808 l 68 808 l 42 860 l 214 860 l 214 1088 "},"‡":{"ha":522,"x_min":42,"x_max":481,"o":"m 293 1 l 225 -8 l 225 267 l 68 267 l 42 318 l 225 318 l 225 750 l 68 750 l 42 801 l 225 801 l 225 1088 l 293 1083 l 293 801 l 454 801 l 481 750 l 293 750 l 293 318 l 454 318 l 481 267 l 293 267 l 293 1 "},"•":{"ha":254,"x_min":42,"x_max":213,"o":"m 128 368 q 84 380 104 368 q 53 411 64 392 q 42 453 42 431 q 53 497 42 478 q 84 528 64 517 q 128 539 104 539 q 170 528 151 539 q 201 497 189 517 q 213 453 213 478 q 201 411 213 431 q 170 380 189 392 q 128 368 151 368 "},"…":{"ha":496,"x_min":42,"x_max":454,"o":"m 94 0 q 57 14 72 0 q 42 50 42 28 q 57 86 42 72 q 94 100 72 100 q 129 86 115 100 q 143 50 143 72 q 129 14 143 28 q 94 0 115 0 m 250 0 q 213 14 228 0 q 197 50 197 28 q 213 86 197 72 q 250 100 228 100 q 285 86 271 100 q 299 50 299 72 q 285 14 299 28 q 250 0 271 0 m 406 0 q 368 14 383 0 q 353 50 353 28 q 368 86 353 72 q 406 100 383 100 q 440 86 426 100 q 454 50 454 72 q 440 14 454 28 q 406 0 426 0 "},"‹":{"ha":293,"x_min":42,"x_max":265,"o":"m 42 321 l 42 360 l 236 567 l 265 518 l 100 340 l 265 163 l 236 115 l 42 321 "},"›":{"ha":293,"x_min":28,"x_max":251,"o":"m 251 361 l 251 322 l 57 115 l 28 164 l 193 342 l 28 519 l 57 567 l 251 361 "},"-":{"ha":432,"x_min":42,"x_max":390,"o":"m 379 406 l 390 351 l 53 351 l 42 406 l 379 406 "},"_":{"ha":596,"x_min":42,"x_max":554,"o":"m 543 54 l 554 0 l 53 0 l 42 54 l 543 54 "},"–":{"ha":600,"x_min":42,"x_max":558,"o":"m 547 407 l 558 353 l 53 353 l 42 407 l 547 407 "},"—":{"ha":728,"x_min":42,"x_max":686,"o":"m 675 407 l 686 353 l 53 353 l 42 407 l 675 407 "},"#":{"ha":690,"x_min":42,"x_max":649,"o":"m 528 697 l 593 697 l 547 515 l 639 515 l 649 461 l 533 461 l 481 249 l 639 249 l 649 194 l 467 194 l 418 0 l 354 6 l 401 194 l 219 194 l 171 0 l 107 6 l 154 194 l 53 194 l 42 249 l 168 249 l 221 461 l 53 461 l 42 515 l 235 515 l 281 697 l 346 697 l 300 515 l 482 515 l 528 697 m 468 461 l 286 461 l 233 249 l 415 249 l 468 461 "},"%":{"ha":1124,"x_min":56,"x_max":1068,"o":"m 731 986 l 796 981 l 367 -6 l 303 0 l 731 986 m 267 975 q 378 947 331 975 q 451 867 425 919 q 478 739 478 814 q 449 614 478 667 q 372 533 419 561 q 268 504 325 504 q 159 532 207 504 q 83 612 111 560 q 56 739 56 664 q 84 864 56 811 q 160 946 113 917 q 267 975 208 975 m 267 924 q 197 903 231 924 q 142 841 164 882 q 121 739 121 800 q 165 604 121 653 q 268 556 210 556 q 338 576 306 556 q 392 638 371 597 q 413 739 413 679 q 372 875 413 826 q 267 924 331 924 m 857 469 q 968 442 921 469 q 1042 361 1015 414 q 1068 233 1068 308 q 1039 108 1068 161 q 963 27 1010 56 q 858 -1 915 -1 q 749 26 797 -1 q 674 106 701 53 q 646 233 646 158 q 674 358 646 306 q 751 440 703 411 q 857 469 799 469 m 857 417 q 788 396 821 417 q 733 335 754 375 q 711 233 711 294 q 756 99 711 147 q 858 50 800 50 q 928 71 896 50 q 982 133 961 92 q 1003 233 1003 174 q 962 369 1003 321 q 857 417 921 417 "},"+":{"ha":732,"x_min":42,"x_max":690,"o":"m 676 406 l 690 354 l 399 354 l 399 6 l 331 11 l 331 354 l 53 354 l 42 406 l 331 406 l 331 742 l 399 738 l 399 406 l 676 406 "},"÷":{"ha":690,"x_min":42,"x_max":649,"o":"m 344 524 q 306 539 321 524 q 292 576 292 554 q 306 614 292 599 q 344 629 321 629 q 383 614 367 629 q 399 576 399 599 q 383 539 399 554 q 344 524 367 524 m 635 406 l 649 354 l 53 354 l 42 406 l 635 406 m 349 103 q 310 118 325 103 q 296 156 296 133 q 310 193 296 178 q 349 208 325 208 q 387 193 371 208 q 403 156 403 178 q 387 118 403 133 q 349 103 371 103 "},"×":{"ha":653,"x_min":42,"x_max":611,"o":"m 357 340 l 611 644 l 540 644 l 328 400 l 133 644 l 65 644 l 296 347 l 42 43 l 113 43 l 321 288 l 519 43 l 588 43 l 357 340 "},"±":{"ha":683,"x_min":42,"x_max":642,"o":"m 621 479 l 632 428 l 369 428 l 369 150 l 301 157 l 301 428 l 53 428 l 42 479 l 301 479 l 301 742 l 369 738 l 369 479 l 621 479 m 631 51 l 642 0 l 53 0 l 42 51 l 631 51 "},"<":{"ha":447,"x_min":42,"x_max":419,"o":"m 419 75 l 388 26 l 42 321 l 42 360 l 388 653 l 419 606 l 106 340 l 419 75 "},"=":{"ha":690,"x_min":42,"x_max":649,"o":"m 639 515 l 649 461 l 53 461 l 42 515 l 639 515 m 639 249 l 649 194 l 53 194 l 42 249 l 639 249 "},">":{"ha":447,"x_min":28,"x_max":406,"o":"m 406 358 l 406 319 l 60 26 l 28 74 l 342 339 l 28 604 l 60 653 l 406 358 "},"°":{"ha":338,"x_min":14,"x_max":310,"o":"m 161 975 q 238 956 204 975 q 290 904 271 936 q 310 832 310 872 q 290 759 310 790 q 238 710 271 728 q 161 692 204 692 q 86 710 119 692 q 33 759 53 728 q 14 832 14 790 q 33 904 14 872 q 86 956 53 936 q 161 975 119 975 m 167 735 q 234 767 213 735 q 256 833 256 799 q 230 899 256 868 q 161 931 204 931 q 94 899 118 931 q 69 833 69 868 q 96 767 69 799 q 167 735 122 735 "},"¹":{"ha":333,"x_min":14,"x_max":222,"o":"m 222 467 l 163 467 l 163 994 l 46 938 l 14 972 l 189 1063 l 222 1063 l 222 467 "},"²":{"ha":475,"x_min":35,"x_max":447,"o":"m 239 1071 q 346 1046 304 1071 q 408 983 388 1021 q 428 907 428 946 q 395 795 428 849 q 288 674 363 742 l 106 513 l 439 513 l 447 467 l 35 467 l 35 518 l 251 715 q 343 823 321 778 q 365 899 365 868 q 353 953 365 925 q 312 1002 340 982 q 236 1022 283 1022 q 175 1014 208 1022 q 112 994 142 1006 q 64 975 82 983 l 40 1018 q 98 1043 64 1031 q 169 1063 132 1056 q 239 1071 206 1071 "},"³":{"ha":492,"x_min":0,"x_max":429,"o":"m 215 1071 q 368 1022 319 1071 q 417 904 417 972 q 402 835 417 867 q 363 781 388 803 q 306 747 338 758 q 373 715 346 739 q 415 657 400 692 q 429 578 429 622 q 402 481 429 525 q 324 412 375 438 q 199 386 272 386 q 88 403 140 386 q 0 442 36 421 l 33 486 q 107 452 69 464 q 204 440 144 440 q 283 457 246 440 q 344 504 321 474 q 367 576 367 535 q 326 683 367 644 q 178 721 286 721 l 143 721 l 133 767 l 185 767 q 280 784 243 767 q 335 833 317 801 q 353 903 353 864 q 315 985 353 950 q 214 1021 278 1021 q 112 1003 154 1021 q 43 968 69 985 l 13 1010 q 103 1053 54 1036 q 215 1071 151 1071 "},"¼":{"ha":986,"x_min":14,"x_max":958,"o":"m 222 467 l 163 467 l 163 994 l 46 938 l 14 972 l 189 1063 l 222 1063 l 222 467 m 958 -44 l 953 -92 l 840 -92 l 840 -228 l 779 -228 l 779 -92 l 456 -92 l 450 -44 l 801 444 l 840 444 l 840 -44 l 958 -44 m 779 329 l 515 -44 l 779 -44 l 779 329 m 738 972 l 800 972 l 104 -186 l 35 -186 l 738 972 "},"½":{"ha":1053,"x_min":14,"x_max":1025,"o":"m 222 467 l 163 467 l 163 994 l 46 938 l 14 972 l 189 1063 l 222 1063 l 222 467 m 817 451 q 924 426 882 451 q 985 364 965 401 q 1006 288 1006 326 q 973 176 1006 229 q 865 54 940 122 l 683 -107 l 1017 -107 l 1025 -153 l 613 -153 l 613 -101 l 829 96 q 921 203 899 158 q 943 279 943 249 q 931 334 943 306 q 890 383 918 363 q 814 403 861 403 q 753 394 786 403 q 690 375 719 386 q 642 356 660 364 l 618 399 q 676 424 642 411 q 747 444 710 436 q 817 451 783 451 m 751 972 l 814 972 l 118 -186 l 49 -186 l 751 972 "},"¾":{"ha":1074,"x_min":0,"x_max":1046,"o":"m 215 1071 q 368 1022 319 1071 q 417 904 417 972 q 402 835 417 867 q 363 781 388 803 q 306 747 338 758 q 373 715 346 739 q 415 657 400 692 q 429 578 429 622 q 402 481 429 525 q 324 412 375 438 q 199 386 272 386 q 88 403 140 386 q 0 442 36 421 l 33 486 q 107 452 69 464 q 204 440 144 440 q 283 457 246 440 q 344 504 321 474 q 367 576 367 535 q 326 683 367 644 q 178 721 286 721 l 143 721 l 133 767 l 185 767 q 280 784 243 767 q 335 833 317 801 q 353 903 353 864 q 315 985 353 950 q 214 1021 278 1021 q 112 1003 154 1021 q 43 968 69 985 l 13 1010 q 103 1053 54 1036 q 215 1071 151 1071 m 863 972 l 925 972 l 229 -186 l 160 -186 l 863 972 m 1046 -44 l 1040 -92 l 928 -92 l 928 -228 l 867 -228 l 867 -92 l 543 -92 l 538 -44 l 889 444 l 928 444 l 928 -44 l 1046 -44 m 867 329 l 603 -44 l 867 -44 l 867 329 "},"℮":{"ha":667,"x_min":56,"x_max":611,"o":"m 611 336 l 126 336 q 152 188 128 256 q 228 80 176 121 q 364 39 281 39 q 483 53 438 39 q 563 86 528 68 l 590 35 q 522 6 563 18 q 442 -12 482 -6 q 375 -18 403 -18 q 194 28 265 -18 q 90 155 124 74 q 56 340 56 236 q 88 521 56 442 q 185 646 119 600 q 350 692 251 692 q 485 646 426 692 q 577 522 543 600 q 611 343 611 443 l 611 336 m 129 388 l 539 388 q 512 510 533 454 q 449 601 490 567 q 340 635 407 635 q 229 601 274 635 q 160 510 185 567 q 129 388 136 454 "},"∂":{"ha":726,"x_min":56,"x_max":671,"o":"m 671 333 q 634 154 671 233 q 528 29 597 75 q 360 -18 458 -17 q 192 29 260 -17 q 90 156 125 75 q 56 340 56 236 q 92 519 56 440 q 199 645 129 599 q 368 692 269 692 q 469 675 426 692 q 548 629 513 658 q 617 558 583 600 l 586 529 q 522 585 557 561 q 447 622 486 608 q 367 635 408 635 q 239 594 293 635 q 156 488 185 554 q 126 342 126 421 q 153 190 126 260 q 233 80 181 121 q 360 39 285 39 q 488 79 435 39 q 571 187 542 119 q 600 332 600 254 q 577 522 600 428 q 502 702 554 615 q 361 864 450 789 q 140 997 272 939 l 158 1042 q 388 916 292 989 q 547 752 485 843 q 640 556 610 661 q 671 333 671 450 "},"∏":{"ha":831,"x_min":139,"x_max":692,"o":"m 139 0 l 139 944 l 692 944 l 692 0 l 624 0 l 624 890 l 207 890 l 207 0 l 139 0 "},"∑":{"ha":607,"x_min":42,"x_max":579,"o":"m 542 944 l 550 882 l 129 882 l 396 500 l 396 458 l 129 69 l 572 69 l 579 0 l 42 0 l 42 69 l 326 479 l 42 882 l 42 944 l 542 944 "},"−":{"ha":647,"x_min":42,"x_max":606,"o":"m 594 407 l 606 353 l 53 353 l 42 407 l 594 407 "},"√":{"ha":725,"x_min":14,"x_max":711,"o":"m 644 986 l 711 981 l 303 -6 l 250 0 l 14 440 l 81 446 l 276 78 l 644 986 "},"∞":{"ha":1136,"x_min":56,"x_max":1081,"o":"m 326 636 q 427 611 376 636 q 519 547 478 586 q 586 460 561 507 q 643 544 608 504 q 722 610 678 585 q 813 636 765 636 q 956 601 896 636 q 1049 504 1017 567 q 1081 358 1081 442 q 1048 210 1081 278 q 954 103 1015 143 q 810 64 893 64 q 710 89 760 64 q 618 154 660 114 q 551 240 576 194 q 494 156 529 196 q 415 90 458 115 q 324 64 372 64 q 180 99 240 64 q 88 197 119 133 q 56 342 56 260 q 89 490 56 424 q 183 597 122 557 q 326 636 244 636 m 585 296 q 641 213 608 253 q 716 149 674 174 q 808 124 758 124 q 915 153 869 124 q 987 235 961 182 q 1013 360 1013 289 q 987 475 1013 426 q 915 550 961 524 q 808 576 869 576 q 738 553 771 576 q 678 493 706 529 q 632 417 651 457 q 601 346 613 378 l 585 296 m 551 404 q 496 488 529 449 q 421 551 463 526 q 329 576 379 576 q 222 547 268 576 q 149 465 175 518 q 124 340 124 413 q 149 225 124 274 q 222 150 175 176 q 329 124 268 124 q 399 146 367 124 q 457 203 431 168 q 503 279 483 239 q 535 354 522 319 l 551 404 "},"∫":{"ha":407,"x_min":0,"x_max":407,"o":"m 238 917 l 238 -56 q 222 -157 238 -114 q 174 -224 207 -200 q 92 -249 142 -249 q 56 -246 74 -249 q 24 -238 38 -243 q 0 -231 10 -233 l 17 -179 q 42 -187 25 -183 q 74 -192 60 -192 q 148 -160 126 -192 q 169 -78 169 -128 l 169 894 q 185 997 169 953 q 233 1064 201 1040 q 315 1088 265 1088 q 352 1085 335 1088 q 384 1078 369 1082 q 407 1069 399 1074 l 390 1018 q 365 1026 382 1022 q 333 1031 347 1031 q 259 999 281 1031 q 238 917 238 967 "},"≈":{"ha":697,"x_min":42,"x_max":656,"o":"m 603 529 l 656 517 q 636 474 651 492 q 599 443 621 456 q 552 425 576 431 q 504 419 528 419 q 444 428 481 419 q 356 451 407 436 q 194 482 256 482 q 151 476 172 482 q 116 459 131 471 q 94 428 101 447 l 42 440 q 61 483 46 465 q 99 514 76 501 q 145 532 121 526 q 193 538 169 538 q 351 507 256 538 q 438 483 400 492 q 503 475 476 475 q 545 481 525 475 q 581 498 565 486 q 603 529 597 510 m 603 276 l 656 264 q 636 221 651 239 q 599 190 621 203 q 552 172 576 178 q 504 167 528 167 q 444 175 481 167 q 356 199 407 183 q 194 229 256 229 q 151 224 172 229 q 116 206 131 218 q 94 175 101 194 l 42 188 q 61 231 46 213 q 99 261 76 249 q 145 279 121 274 q 193 285 169 285 q 351 254 256 285 q 438 231 400 239 q 503 222 476 222 q 545 228 525 222 q 581 245 565 233 q 603 276 597 257 "},"≠":{"ha":690,"x_min":42,"x_max":649,"o":"m 476 726 l 539 721 l 447 515 l 639 515 l 649 461 l 424 461 l 331 249 l 639 249 l 649 194 l 307 194 l 213 -19 l 151 -14 l 243 194 l 53 194 l 42 249 l 267 249 l 360 461 l 53 461 l 42 515 l 383 515 l 476 726 "},"≤":{"ha":447,"x_min":42,"x_max":419,"o":"m 419 199 l 388 157 l 42 385 l 42 424 l 388 653 l 419 607 l 113 404 l 419 199 m 407 54 l 415 0 l 54 0 l 43 54 l 407 54 "},"≥":{"ha":447,"x_min":28,"x_max":406,"o":"m 406 425 l 406 386 l 60 157 l 28 203 l 335 406 l 28 611 l 60 653 l 406 425 m 392 54 l 400 0 l 39 0 l 28 54 l 392 54 "},"‰":{"ha":1624,"x_min":56,"x_max":1568,"o":"m 731 986 l 796 981 l 367 -6 l 303 0 l 731 986 m 267 975 q 378 947 331 975 q 451 867 425 919 q 478 739 478 814 q 449 614 478 667 q 372 533 419 561 q 268 504 325 504 q 159 532 207 504 q 83 612 111 560 q 56 739 56 664 q 84 864 56 811 q 160 946 113 917 q 267 975 208 975 m 267 924 q 197 903 231 924 q 142 841 164 882 q 121 739 121 800 q 165 604 121 653 q 268 556 210 556 q 338 576 306 556 q 392 638 371 597 q 413 739 413 679 q 372 875 413 826 q 267 924 331 924 m 1357 469 q 1468 442 1421 469 q 1542 361 1515 414 q 1568 233 1568 308 q 1539 108 1568 161 q 1463 27 1510 56 q 1358 -1 1415 -1 q 1249 26 1297 -1 q 1174 106 1201 53 q 1146 233 1146 158 q 1174 358 1146 306 q 1251 440 1203 411 q 1357 469 1299 469 m 857 469 q 968 442 921 469 q 1042 361 1015 414 q 1068 233 1068 308 q 1039 108 1068 161 q 963 27 1010 56 q 858 -1 915 -1 q 749 26 797 -1 q 674 106 701 53 q 646 233 646 158 q 674 358 646 306 q 751 440 703 411 q 857 469 799 469 m 1357 417 q 1288 396 1321 417 q 1233 335 1254 375 q 1211 233 1211 294 q 1256 99 1211 147 q 1358 50 1300 50 q 1428 71 1396 50 q 1482 133 1461 92 q 1503 233 1503 174 q 1462 369 1503 321 q 1357 417 1421 417 m 857 417 q 788 396 821 417 q 733 335 754 375 q 711 233 711 294 q 756 99 711 147 q 858 50 800 50 q 928 71 896 50 q 982 133 961 92 q 1003 233 1003 174 q 962 369 1003 321 q 857 417 921 417 "},"⁄":{"ha":521,"x_min":-122,"x_max":643,"o":"m 581 972 l 643 972 l -53 -186 l -122 -186 l 581 972 "},"◊":{"ha":722,"x_min":42,"x_max":681,"o":"m 375 0 l 347 0 l 42 407 l 42 425 l 347 832 l 375 832 l 681 425 l 681 407 l 375 0 m 360 757 l 113 415 l 360 76 l 613 415 l 360 757 "},"©":{"ha":1093,"x_min":56,"x_max":1038,"o":"m 1038 467 q 1003 276 1038 364 q 903 122 968 188 q 747 20 838 57 q 546 -17 657 -17 q 340 20 431 -17 q 185 122 249 57 q 89 276 122 188 q 56 467 56 364 q 90 659 56 571 q 189 813 125 747 q 343 916 253 879 q 546 953 433 953 q 747 916 657 953 q 903 813 838 879 q 1003 659 968 747 q 1038 467 1038 571 m 121 468 q 173 249 121 347 q 321 92 225 150 q 546 35 417 35 q 772 92 676 35 q 919 249 867 150 q 972 468 972 347 q 919 688 972 590 q 772 842 867 785 q 546 900 676 900 q 321 842 417 900 q 173 688 225 785 q 121 468 121 590 m 564 167 q 421 201 486 167 q 317 305 356 236 q 278 474 278 374 q 317 643 278 575 q 421 746 356 711 q 564 781 486 781 q 625 773 592 781 q 690 753 658 765 q 740 722 721 740 l 713 679 q 671 702 694 692 q 619 719 647 713 q 561 726 592 726 q 451 696 500 726 q 374 609 401 665 q 346 474 346 553 q 407 288 346 356 q 561 221 468 221 q 646 235 607 221 q 713 268 685 250 l 740 225 q 690 195 721 208 q 625 174 658 182 q 564 167 592 167 "},"®":{"ha":993,"x_min":56,"x_max":938,"o":"m 938 676 q 881 458 938 556 q 726 304 825 361 q 497 247 628 247 q 268 304 368 247 q 112 458 168 361 q 56 676 56 556 q 110 897 56 799 q 265 1051 165 994 q 497 1108 365 1108 q 726 1051 628 1108 q 881 897 825 994 q 938 676 938 799 m 122 678 q 168 487 122 572 q 299 351 214 401 q 497 299 383 300 q 694 351 611 300 q 824 487 778 401 q 869 678 869 572 q 824 872 869 786 q 694 1006 778 957 q 497 1056 611 1056 q 299 1006 383 1056 q 168 872 214 957 q 122 678 122 786 m 468 899 l 413 899 l 413 686 l 461 686 q 533 695 500 686 q 587 728 567 704 q 607 793 607 751 q 589 861 607 839 q 540 891 571 883 q 468 899 508 899 m 701 422 l 636 422 l 511 643 q 490 642 500 643 q 471 642 481 642 l 413 642 l 413 422 l 357 422 l 357 944 l 478 944 q 576 930 533 944 q 642 883 618 915 q 667 794 667 850 q 635 705 667 742 q 565 651 604 668 l 701 422 "},"™":{"ha":988,"x_min":14,"x_max":918,"o":"m 400 944 l 404 900 l 240 900 l 240 425 l 179 425 l 179 900 l 14 900 l 14 944 l 400 944 m 721 599 l 704 596 l 558 810 l 558 425 l 501 425 l 501 944 l 528 944 l 713 671 l 890 944 l 918 944 l 918 425 l 865 425 l 865 811 l 721 599 "},"&":{"ha":899,"x_min":69,"x_max":843,"o":"m 629 163 l 336 431 q 292 472 314 450 q 253 515 271 493 q 164 412 193 472 q 135 281 135 351 q 174 152 135 207 q 274 68 213 97 q 401 39 335 39 q 531 74 472 39 q 629 163 589 108 m 808 0 l 674 122 q 556 20 626 58 q 397 -18 485 -18 q 231 17 306 -18 q 113 119 157 53 q 69 278 69 186 q 111 443 69 369 q 219 561 153 517 q 182 638 196 597 q 168 725 168 678 q 199 847 168 792 q 283 934 229 901 q 403 967 336 967 q 526 949 472 967 q 613 913 581 932 l 585 864 q 515 895 550 881 q 415 910 479 910 q 322 885 364 910 q 257 819 281 860 q 233 731 233 778 q 251 638 233 681 q 303 553 269 594 q 385 465 338 511 l 660 208 q 713 338 694 268 q 732 471 732 407 l 782 456 q 763 306 782 381 q 704 167 743 231 l 843 38 l 808 0 "},"@":{"ha":1056,"x_min":56,"x_max":1000,"o":"m 732 533 l 699 254 q 713 168 692 194 q 778 142 735 142 q 856 172 821 142 q 912 261 890 201 q 933 413 933 321 q 890 598 933 518 q 767 723 847 678 q 575 768 688 768 q 396 735 478 768 q 253 639 314 701 q 160 490 193 576 q 126 297 126 404 q 176 98 126 182 q 311 -31 226 14 q 499 -76 396 -76 q 580 -71 539 -76 q 659 -54 621 -65 q 725 -28 697 -43 l 743 -81 q 618 -122 685 -111 q 483 -133 551 -133 q 322 -104 399 -133 q 184 -19 244 -75 q 90 117 124 38 q 56 296 56 196 q 90 499 56 404 q 190 668 124 594 q 355 783 257 742 q 579 825 453 825 q 751 795 674 825 q 883 710 828 765 q 969 583 939 656 q 1000 422 1000 510 q 985 276 1000 339 q 940 171 969 214 q 869 106 910 128 q 775 85 828 85 q 710 99 738 85 q 664 138 682 114 q 601 105 638 118 q 533 92 565 92 q 376 148 436 92 q 315 293 315 204 q 339 401 315 351 q 403 485 363 450 q 497 541 443 521 q 611 561 551 561 l 710 561 l 732 533 m 533 143 q 594 152 564 143 q 642 174 624 161 q 633 221 632 197 q 635 264 633 244 l 667 510 l 604 510 q 497 483 546 510 q 417 408 447 457 q 386 293 386 360 q 404 213 386 246 q 456 161 422 179 q 533 143 489 143 "},"^":{"ha":579,"x_min":14,"x_max":551,"o":"m 283 483 l 81 199 l 14 199 l 253 542 l 313 542 l 551 199 l 485 199 l 283 483 "},"~":{"ha":519,"x_min":42,"x_max":478,"o":"m 42 299 q 56 357 42 332 q 99 396 71 382 q 163 410 126 410 q 219 401 192 410 q 271 376 246 393 q 317 351 296 360 q 357 343 339 343 q 403 359 383 343 q 422 401 422 375 l 478 401 q 463 344 478 369 q 422 304 449 318 q 358 290 394 290 q 310 299 335 290 q 261 324 286 307 q 211 349 236 340 q 163 357 186 357 q 117 341 136 357 q 97 299 97 325 l 42 299 "},"§":{"ha":792,"x_min":69,"x_max":736,"o":"m 600 132 l 579 196 q 644 258 622 221 q 665 339 665 296 q 638 431 665 390 q 554 506 610 471 q 414 575 499 540 q 306 629 353 600 q 226 692 258 658 q 178 768 194 726 q 161 860 161 810 q 196 974 161 924 q 294 1054 231 1025 q 447 1083 358 1083 q 578 1067 517 1083 q 681 1029 639 1050 l 650 979 q 598 1001 626 990 q 534 1019 569 1013 q 450 1026 499 1026 q 292 976 350 1026 q 233 853 233 925 q 262 758 233 800 q 347 681 290 717 q 485 610 403 644 q 594 555 547 583 q 673 493 642 526 q 720 421 704 460 q 736 335 736 382 q 721 251 736 290 q 675 182 706 213 q 600 132 644 151 m 76 -107 l 97 -53 q 158 -77 122 -64 q 238 -99 194 -90 q 328 -107 282 -107 q 463 -81 408 -107 q 545 -14 517 -56 q 574 75 574 28 q 546 167 574 126 q 463 242 518 207 q 322 311 407 276 q 214 365 261 336 q 135 428 167 394 q 86 504 103 463 q 69 596 69 546 q 85 676 69 639 q 131 743 101 714 q 204 790 161 772 l 232 733 q 165 672 189 711 q 142 589 142 633 q 170 494 142 536 q 255 417 199 453 q 393 346 311 381 q 503 291 456 319 q 581 229 550 263 q 628 157 613 196 q 644 71 644 118 q 608 -52 644 1 q 502 -135 572 -106 q 329 -165 432 -165 q 262 -160 300 -165 q 185 -147 224 -156 q 118 -127 147 -137 q 76 -107 89 -117 "},"ª":{"ha":461,"x_min":56,"x_max":406,"o":"m 118 647 q 144 582 118 613 q 215 551 171 551 q 287 571 254 551 q 342 621 319 590 l 342 740 l 235 740 q 147 713 175 740 q 118 647 118 686 m 103 890 l 86 935 q 131 956 104 947 q 184 970 157 965 q 229 975 211 975 q 328 951 289 975 q 386 888 367 926 q 406 806 406 850 l 406 517 l 361 517 l 346 567 q 287 522 322 539 q 215 504 251 504 q 98 546 140 504 q 56 647 56 588 q 103 747 56 711 q 222 783 151 783 l 342 783 l 342 815 q 314 892 342 863 q 231 921 286 921 q 156 910 183 921 q 103 890 128 900 "},"¬":{"ha":701,"x_min":14,"x_max":660,"o":"m 649 564 l 660 494 l 660 156 l 592 163 l 592 510 l 25 510 l 14 564 l 649 564 "},"¶":{"ha":1122,"x_min":56,"x_max":1067,"o":"m 532 0 l 464 0 l 464 367 l 411 367 q 273 385 338 367 q 160 441 208 404 q 83 533 111 478 q 56 660 56 588 q 99 819 56 757 q 220 913 143 882 q 396 944 297 944 l 1067 944 l 1067 890 l 911 890 l 911 0 l 843 0 l 843 890 l 532 890 l 532 0 "},"º":{"ha":478,"x_min":28,"x_max":450,"o":"m 238 975 q 342 947 293 975 q 420 867 390 919 q 450 739 450 814 q 421 614 450 667 q 344 533 392 561 q 239 504 296 504 q 135 532 183 504 q 58 612 88 560 q 28 739 28 664 q 58 864 28 811 q 135 946 88 917 q 238 975 183 975 m 238 926 q 167 905 201 926 q 112 842 133 883 q 90 739 90 800 q 135 603 90 653 q 239 554 181 554 q 310 575 276 554 q 366 638 344 596 q 388 739 388 679 q 344 876 388 826 q 238 926 301 926 "},"ழ":{"ha":1092,"x_min":139,"x_max":1008,"o":"m 578 14 l 578 -76 q 597 -161 578 -133 q 658 -189 615 -189 l 893 -189 l 899 -237 l 650 -237 q 596 -334 633 -293 q 508 -397 558 -375 q 403 -419 457 -419 q 276 -392 326 -419 q 199 -319 225 -365 q 174 -212 174 -272 l 235 -212 q 275 -319 235 -279 q 404 -360 315 -360 q 518 -328 467 -360 q 597 -226 569 -296 q 529 -159 542 -203 q 517 -60 517 -115 l 517 6 l 578 14 m 200 49 l 746 49 q 865 84 822 49 q 924 181 907 119 q 942 321 942 243 q 917 506 942 425 q 847 633 893 588 q 733 679 800 679 q 622 638 667 679 q 578 494 578 597 l 578 29 l 517 29 l 517 493 q 544 631 517 576 q 619 711 571 685 q 729 738 668 738 q 879 684 817 738 q 975 536 942 631 q 1008 321 1008 442 q 982 156 1008 228 q 898 42 956 83 q 746 0 840 0 l 139 0 l 139 713 l 200 719 l 200 49 "},"ய":{"ha":1231,"x_min":125,"x_max":1092,"o":"m 1092 713 l 1031 713 l 1031 49 l 588 49 l 588 713 l 526 713 l 526 0 l 1092 0 l 1092 713 m 125 713 l 125 244 q 154 89 125 149 q 234 2 183 29 q 350 -25 285 -25 q 472 13 422 -25 q 549 117 522 50 q 575 268 575 183 l 526 268 q 481 100 526 167 q 350 33 436 33 q 233 79 279 33 q 186 243 186 125 l 186 719 l 125 713 "},"௭":{"ha":1011,"x_min":83,"x_max":872,"o":"m 872 713 l 650 713 l 651 664 l 811 664 l 811 0 l 872 0 l 872 713 m 150 329 q 194 506 150 431 q 328 622 239 581 q 547 664 417 664 l 785 664 l 785 713 l 535 713 q 287 665 388 713 q 135 531 186 617 q 83 329 83 444 q 131 147 83 226 q 265 21 178 67 q 471 -25 353 -25 q 591 3 539 -25 q 674 79 643 31 q 704 190 704 128 q 674 305 704 256 q 591 383 643 354 q 471 411 539 411 q 353 383 406 411 q 272 306 301 354 q 243 193 243 257 q 272 88 243 133 q 353 15 301 42 q 471 -11 406 -11 l 471 24 q 351 72 399 24 q 303 193 303 119 q 351 311 303 265 q 471 357 399 357 q 592 310 544 357 q 639 190 639 264 q 592 71 639 118 q 471 24 544 24 q 300 63 372 24 q 189 172 228 103 q 150 329 150 240 "},"௸":{"ha":2514,"x_min":83,"x_max":2375,"o":"m 1878 738 q 1762 710 1811 738 q 1685 635 1713 683 q 1658 526 1658 588 q 1693 407 1660 461 q 1788 321 1726 353 q 1936 289 1850 289 q 2110 335 2025 289 q 2262 462 2194 381 q 2364 646 2329 543 l 2314 664 q 2215 499 2276 571 q 2081 388 2153 428 q 1936 347 2008 347 q 1780 400 1835 347 q 1725 526 1725 453 q 1765 636 1725 593 q 1878 679 1806 679 q 1990 631 1953 679 q 2028 506 2028 583 l 2028 -337 l 2089 -337 l 2089 513 q 2064 628 2089 578 q 1992 708 2039 679 q 1878 738 1946 738 m 1513 376 q 1492 219 1513 308 q 1428 49 1472 129 l 1428 0 l 2375 0 l 2375 664 l 2314 664 l 2314 49 l 1497 49 q 1559 220 1540 135 q 1578 374 1578 306 q 1539 561 1578 479 q 1424 690 1500 643 q 1235 738 1347 738 q 1054 698 1138 738 q 909 589 971 658 q 813 429 847 519 q 778 238 778 339 q 805 102 778 161 q 881 9 832 43 q 996 -25 931 -25 q 1110 9 1063 -25 q 1183 102 1157 43 q 1208 238 1208 161 q 1163 434 1208 343 q 1038 593 1118 525 q 851 699 958 661 q 621 738 744 738 q 336 683 457 738 q 149 533 215 628 q 83 317 83 439 q 133 141 83 218 q 271 19 183 64 q 471 -25 358 -25 q 591 3 539 -25 q 674 79 643 31 q 704 190 704 128 q 674 305 704 256 q 591 383 643 354 q 471 411 539 411 q 353 383 406 411 q 272 306 301 354 q 243 193 243 257 q 272 88 243 133 q 353 15 301 42 q 471 -11 406 -11 l 471 24 q 351 72 399 24 q 303 193 303 119 q 351 311 303 265 q 471 357 399 357 q 592 310 544 357 q 639 190 639 264 q 592 71 639 118 q 471 24 544 24 q 306 61 378 24 q 192 165 233 99 q 150 317 150 232 q 207 506 150 424 q 369 633 264 588 q 621 679 475 679 q 826 646 732 679 q 992 553 921 613 q 1102 413 1063 493 q 1142 238 1142 332 q 1103 91 1142 149 q 996 33 1065 33 q 885 91 926 33 q 844 238 844 149 q 874 409 844 329 q 956 549 903 489 q 1080 644 1008 610 q 1235 679 1151 679 q 1390 641 1328 679 q 1482 535 1451 603 q 1513 376 1513 467 "},"ஒ":{"ha":1138,"x_min":83,"x_max":1054,"o":"m 568 742 q 374 715 463 742 q 221 638 286 688 q 119 522 156 589 q 83 374 83 454 q 112 254 83 307 q 190 172 140 201 q 301 142 239 142 q 422 185 375 142 q 468 296 468 229 q 422 410 468 365 q 306 456 376 456 q 192 412 238 456 q 147 299 147 368 q 191 190 147 233 q 301 147 235 147 l 301 194 q 226 223 256 194 q 196 294 196 251 q 226 371 196 342 q 304 400 257 400 q 377 371 349 400 q 406 296 406 342 q 375 224 404 253 q 301 194 346 194 q 219 217 254 194 q 164 281 183 240 q 144 374 144 321 q 199 533 144 464 q 350 642 254 603 q 568 682 446 682 q 783 644 689 682 q 933 542 878 607 q 988 392 988 476 q 961 277 988 321 q 874 233 935 233 q 788 272 822 233 q 751 374 754 311 l 703 374 q 725 272 703 317 q 786 201 747 226 q 874 175 825 175 q 973 203 933 175 q 1033 280 1013 231 q 1054 392 1054 329 q 1018 532 1054 468 q 917 643 982 596 q 763 716 851 690 q 568 742 674 742 m 1000 -49 l 1000 0 l 918 0 q 785 48 825 0 q 744 185 744 96 l 744 374 l 690 374 l 690 185 q 744 13 690 75 q 918 -49 799 -49 l 1000 -49 m 575 -250 q 441 -199 494 -250 q 388 -69 388 -147 l 388 0 l 326 0 l 326 -69 q 358 -190 326 -137 q 447 -274 390 -243 q 575 -304 503 -304 q 703 -274 647 -304 q 792 -190 760 -243 q 824 -69 824 -137 l 824 0 l 763 26 l 763 -69 q 710 -199 763 -147 q 575 -250 657 -250 "},"ஞ":{"ha":1651,"x_min":111,"x_max":1568,"o":"m 471 329 q 515 506 471 431 q 649 622 560 581 q 868 664 738 664 l 947 664 l 947 713 l 856 713 q 608 665 708 713 q 457 531 508 617 q 406 329 406 444 q 453 147 406 226 q 588 21 500 67 q 793 -25 675 -25 q 913 3 861 -25 q 996 79 965 31 q 1026 190 1026 128 q 996 305 1026 256 q 913 383 965 354 q 793 411 861 411 q 675 383 726 411 q 594 306 624 354 q 565 193 565 257 q 594 88 565 133 q 675 15 624 42 q 793 -11 726 -11 l 793 24 q 672 72 719 24 q 625 193 625 119 q 672 311 625 265 q 793 357 719 357 q 913 310 867 357 q 960 190 960 264 q 913 71 960 118 q 793 24 867 24 q 621 63 693 24 q 510 172 549 103 q 471 329 471 240 m 1346 476 q 1245 454 1290 476 q 1168 392 1200 432 l 1168 664 l 1447 664 l 1442 713 l 946 713 l 947 664 l 1107 664 l 1107 0 l 1168 0 l 1168 231 q 1217 365 1168 313 q 1343 418 1267 418 q 1431 388 1396 418 q 1485 308 1467 357 q 1503 201 1503 258 q 1428 -53 1503 56 q 1216 -223 1354 -162 q 885 -283 1078 -283 q 590 -244 721 -283 q 367 -134 460 -206 q 226 38 275 -62 q 178 261 178 139 q 203 428 178 342 q 271 592 228 515 q 369 713 314 668 l 306 726 q 206 595 250 675 q 136 428 161 515 q 111 264 111 340 q 165 17 111 128 q 319 -175 218 -94 q 563 -299 421 -256 q 885 -342 706 -342 q 1169 -303 1043 -342 q 1385 -194 1296 -265 q 1521 -23 1474 -122 q 1568 199 1568 76 q 1542 337 1568 274 q 1467 438 1517 400 q 1346 476 1417 476 "},"Ț":{"ha":742,"x_min":14,"x_max":728,"o":"m 721 944 l 728 890 l 404 890 l 404 0 l 336 0 l 336 890 l 14 890 l 14 944 l 721 944 m 372 -29 q 412 -49 397 -29 q 426 -89 426 -68 q 413 -169 426 -131 q 372 -236 399 -207 q 307 -285 346 -265 l 285 -250 q 344 -202 321 -231 q 369 -136 368 -174 q 332 -117 344 -136 q 319 -83 319 -97 q 326 -57 319 -69 q 344 -37 332 -44 q 372 -29 356 -29 "},"ெ":{"ha":1088,"x_min":83,"x_max":949,"o":"m 949 479 q 897 727 949 625 q 750 883 844 829 q 526 938 656 938 q 292 875 392 938 q 138 703 193 813 q 83 454 83 594 q 133 207 83 315 q 271 37 183 99 q 471 -25 358 -25 q 591 3 539 -25 q 674 79 643 31 q 704 190 704 128 q 674 305 704 256 q 591 383 643 354 q 471 411 539 411 q 353 383 406 411 q 272 306 301 354 q 243 193 243 257 q 272 88 243 133 q 353 15 301 42 q 471 -11 406 -11 l 471 24 q 351 72 399 24 q 303 193 303 119 q 351 311 303 265 q 471 357 399 357 q 592 310 544 357 q 639 190 639 264 q 592 71 639 118 q 471 24 544 24 q 306 79 378 24 q 192 232 233 135 q 150 454 150 329 q 196 675 150 579 q 326 825 242 771 q 526 879 411 879 q 719 833 638 879 q 844 699 800 788 q 888 479 888 610 l 888 0 l 949 0 l 949 479 "},"ண":{"ha":2317,"x_min":83,"x_max":2303,"o":"m 1963 0 l 2024 0 l 2024 664 l 2303 664 l 2296 713 l 1824 713 q 1624 676 1717 713 q 1460 576 1531 640 q 1351 425 1390 511 q 1311 238 1311 339 q 1337 102 1311 161 q 1410 9 1363 43 q 1524 -25 1457 -25 q 1638 9 1589 -25 q 1713 102 1686 43 q 1740 238 1740 161 q 1706 429 1740 339 q 1607 589 1671 519 q 1455 698 1543 658 q 1260 738 1367 738 q 1065 698 1153 738 q 912 589 976 658 q 813 429 847 519 q 778 238 778 339 q 805 102 778 161 q 881 9 832 43 q 996 -25 931 -25 q 1110 9 1063 -25 q 1183 102 1157 43 q 1208 238 1208 161 q 1163 434 1208 343 q 1038 593 1118 525 q 851 699 958 661 q 621 738 744 738 q 336 683 457 738 q 149 533 215 628 q 83 317 83 439 q 133 141 83 218 q 271 19 183 64 q 471 -25 358 -25 q 591 3 539 -25 q 674 79 643 31 q 704 190 704 128 q 674 305 704 256 q 591 383 643 354 q 471 411 539 411 q 353 383 406 411 q 272 306 301 354 q 243 193 243 257 q 272 88 243 133 q 353 15 301 42 q 471 -11 406 -11 l 471 24 q 351 72 399 24 q 303 193 303 119 q 351 311 303 265 q 471 357 399 357 q 592 310 544 357 q 639 190 639 264 q 592 71 639 118 q 471 24 544 24 q 306 61 378 24 q 192 165 233 99 q 150 317 150 232 q 207 506 150 424 q 369 633 264 588 q 621 679 475 679 q 826 646 732 679 q 992 553 921 613 q 1102 413 1063 493 q 1142 238 1142 332 q 1103 91 1142 149 q 996 33 1065 33 q 885 91 926 33 q 844 238 844 149 q 897 460 844 360 q 1042 619 949 560 q 1260 679 1136 679 q 1429 644 1353 679 q 1560 547 1506 608 q 1645 406 1615 486 q 1675 238 1675 326 q 1634 91 1675 149 q 1524 33 1593 33 q 1415 91 1453 33 q 1378 238 1378 149 q 1412 404 1378 326 q 1507 540 1446 482 q 1649 631 1568 599 q 1824 664 1731 664 l 1963 664 l 1963 0 "},"ஓ":{"ha":1138,"x_min":83,"x_max":1054,"o":"m 1000 0 l 918 0 q 785 48 825 0 q 744 185 744 96 l 744 239 q 801 192 768 208 q 874 175 835 175 q 973 203 933 175 q 1033 280 1013 231 q 1054 392 1054 329 q 1018 532 1054 468 q 917 643 982 596 q 763 716 851 690 q 568 742 674 742 q 374 715 463 742 q 221 638 286 688 q 119 522 156 589 q 83 374 83 454 q 112 254 83 307 q 190 172 140 201 q 301 142 239 142 q 422 185 375 142 q 468 296 468 229 q 422 410 468 365 q 306 456 376 456 q 201 419 244 456 q 149 325 158 383 q 183 507 133 426 q 333 635 233 588 q 568 682 433 682 q 783 644 689 682 q 933 542 878 607 q 988 392 988 476 q 961 277 988 321 q 874 233 935 233 q 788 272 822 233 q 751 374 754 311 l 690 374 l 690 185 q 708 73 690 121 q 763 -4 725 25 l 763 -69 q 733 -162 763 -121 q 653 -226 704 -203 q 538 -250 603 -250 q 393 -213 450 -250 q 336 -119 336 -176 q 365 -47 336 -75 q 440 -19 394 -19 l 469 -19 l 469 29 l 440 29 q 322 -12 368 29 q 275 -119 275 -54 q 309 -215 275 -172 q 402 -281 343 -257 q 538 -304 461 -304 q 685 -274 621 -304 q 787 -190 750 -243 q 824 -69 824 -137 l 824 -36 q 868 -45 844 -42 q 918 -49 892 -49 l 1000 -49 l 1000 0 m 196 294 q 226 371 196 342 q 304 400 257 400 q 377 371 349 400 q 406 296 406 342 q 375 224 404 253 q 301 194 346 194 q 226 223 256 194 q 196 294 196 251 "},"ஆ":{"ha":1733,"x_min":56,"x_max":1719,"o":"m 1293 125 l 1293 174 l 203 174 q 93 138 131 174 q 56 44 56 101 q 107 -81 56 -25 q 249 -168 158 -136 q 454 -200 339 -200 q 686 -162 581 -200 q 869 -53 792 -124 q 990 112 947 17 q 1033 319 1033 207 q 988 535 1033 440 q 856 683 942 629 q 654 738 771 738 q 490 701 563 738 q 376 603 418 665 q 335 461 335 542 q 381 347 335 393 q 500 300 428 301 q 624 343 575 299 q 674 457 672 388 q 626 568 675 524 q 501 613 576 613 q 426 592 461 613 q 372 538 392 572 q 351 457 351 503 l 389 457 q 422 532 389 503 q 501 561 454 561 q 581 532 550 561 q 613 457 613 503 q 581 381 613 410 q 500 353 549 351 q 421 385 453 356 q 389 457 389 414 q 423 574 389 525 q 517 651 457 624 q 654 679 578 679 q 822 633 753 679 q 929 506 892 588 q 967 319 967 425 q 901 81 967 185 q 719 -83 835 -24 q 454 -142 604 -142 q 282 -118 357 -142 q 165 -53 207 -94 q 122 44 122 -11 q 142 103 122 81 q 208 125 161 125 l 1293 125 m 1504 117 q 1403 94 1449 117 q 1326 32 1358 72 l 1326 713 l 1265 713 l 1265 -175 l 1326 -175 l 1326 -131 q 1376 4 1326 -49 q 1500 57 1425 57 q 1613 7 1574 57 q 1653 -117 1653 -43 q 1598 -299 1653 -219 q 1447 -422 1543 -378 q 1225 -465 1350 -465 q 1058 -431 1122 -465 q 993 -339 993 -396 q 1020 -268 993 -296 q 1093 -240 1047 -240 l 1122 -240 l 1122 -192 l 1093 -192 q 974 -233 1021 -192 q 926 -339 926 -275 q 965 -434 926 -392 q 1071 -500 1003 -476 q 1225 -524 1139 -524 q 1422 -494 1332 -524 q 1578 -411 1511 -465 q 1683 -283 1646 -357 q 1719 -119 1719 -208 q 1694 1 1719 -53 q 1620 85 1668 54 q 1504 117 1572 117 "},"அ":{"ha":1465,"x_min":56,"x_max":1326,"o":"m 1326 -175 l 1265 -175 l 1265 713 l 1326 713 l 1326 -175 m 654 738 q 856 683 771 738 q 988 535 942 629 q 1033 319 1033 440 q 990 112 1033 207 q 869 -53 947 17 q 686 -162 792 -124 q 454 -200 581 -200 q 249 -168 339 -200 q 107 -81 158 -136 q 56 44 56 -25 q 93 138 56 101 q 203 174 131 174 l 1265 174 l 1265 125 l 208 125 q 142 103 161 125 q 122 44 122 81 q 165 -53 122 -11 q 282 -118 207 -94 q 454 -142 357 -142 q 719 -83 604 -142 q 901 81 835 -24 q 967 319 967 185 q 929 506 967 425 q 822 633 892 588 q 654 679 753 679 q 517 651 578 679 q 423 574 457 624 q 389 457 389 525 q 421 385 389 414 q 500 353 453 356 q 581 381 549 351 q 613 457 613 410 q 581 532 613 503 q 501 561 550 561 q 422 532 454 561 q 389 457 389 503 l 351 457 q 372 538 351 503 q 426 592 392 572 q 501 613 461 613 q 626 568 576 613 q 674 457 675 524 q 624 343 672 388 q 500 300 575 299 q 381 347 428 301 q 335 461 335 393 q 376 603 335 542 q 490 701 418 665 q 654 738 563 738 "},"ஊ":{"ha":2360,"x_min":56,"x_max":2346,"o":"m 104 49 l 104 0 l 2346 0 l 2346 49 l 633 49 q 770 179 722 93 q 818 379 818 265 q 769 564 818 483 q 635 691 721 644 q 440 738 550 738 q 238 692 325 738 q 103 565 151 646 q 56 382 56 485 q 84 275 56 322 q 163 201 113 228 q 275 174 213 174 q 389 200 339 174 q 467 272 439 226 q 496 376 496 318 q 468 478 496 433 q 392 547 440 522 q 282 572 344 572 q 174 545 222 572 q 99 474 126 518 q 72 379 72 429 l 119 379 q 165 480 119 440 q 282 519 211 519 q 388 478 346 519 q 429 376 429 438 q 385 273 429 314 q 275 232 342 232 q 163 273 207 232 q 119 379 119 314 q 159 535 119 468 q 271 641 199 603 q 440 679 343 679 q 603 641 533 679 q 712 535 672 603 q 751 379 751 468 q 712 209 751 283 q 602 92 672 135 q 439 49 532 49 l 104 49 m 1015 394 q 1053 540 1015 476 q 1158 640 1090 603 q 1313 676 1225 676 q 1469 637 1400 676 q 1576 529 1538 597 q 1615 372 1615 461 l 1615 125 l 1676 125 l 1676 664 l 1990 664 l 1990 125 l 2051 125 l 2051 664 l 2283 664 l 2276 713 l 1615 713 l 1615 568 q 1492 690 1571 644 q 1313 735 1414 735 q 1124 691 1206 735 q 996 571 1042 647 q 950 394 950 494 q 987 251 950 317 q 1098 144 1024 185 q 1282 104 1172 104 q 1383 128 1339 104 q 1453 194 1428 151 q 1478 289 1478 236 q 1423 425 1478 371 q 1282 479 1368 479 q 1142 426 1197 479 q 1088 292 1088 374 q 1142 166 1088 215 q 1282 117 1197 117 l 1282 153 q 1185 192 1222 153 q 1147 292 1147 232 q 1185 388 1147 350 q 1282 425 1222 425 q 1379 387 1342 425 q 1417 289 1417 349 q 1379 191 1417 229 q 1282 153 1342 153 q 1130 185 1189 153 q 1043 274 1071 218 q 1015 394 1015 329 "},"ஶ":{"ha":1386,"x_min":125,"x_max":1303,"o":"m 1040 713 l 514 713 l 514 243 q 467 86 514 139 q 350 33 421 33 q 233 86 279 33 q 186 243 186 139 l 186 719 l 125 713 l 125 244 q 154 94 125 154 q 234 5 183 35 q 350 -25 285 -25 q 466 5 415 -25 q 546 94 517 35 q 575 244 575 154 l 575 664 l 811 664 l 811 219 q 838 82 811 136 q 914 1 865 28 q 1024 -25 963 -25 q 1174 29 1111 -25 q 1269 177 1236 83 q 1303 392 1303 271 q 1277 557 1303 485 q 1194 671 1251 629 q 1040 713 1136 713 m 1029 33 q 917 75 961 33 q 872 218 872 117 l 872 664 l 1040 664 q 1160 628 1118 664 q 1219 532 1203 593 q 1236 392 1236 471 q 1212 206 1236 288 q 1142 79 1188 125 q 1029 33 1096 33 "},"ஏ":{"ha":1165,"x_min":83,"x_max":1151,"o":"m 150 329 q 194 506 150 431 q 328 622 239 581 q 547 664 417 664 l 811 664 l 811 28 q 804 -43 811 -17 q 778 -87 797 -69 q 722 -119 758 -104 l 308 -299 l 338 -347 l 778 -160 q 841 -117 821 -142 q 867 -55 861 -92 q 872 36 872 -18 l 872 664 l 1151 664 l 1144 713 l 535 713 q 287 665 388 713 q 135 531 186 617 q 83 329 83 444 q 131 147 83 226 q 265 21 178 67 q 471 -25 353 -25 q 591 3 539 -25 q 674 79 643 31 q 704 190 704 128 q 674 305 704 256 q 591 383 643 354 q 471 411 539 411 q 353 383 406 411 q 272 306 301 354 q 243 193 243 257 q 253 128 243 158 q 282 74 264 97 q 184 180 218 114 q 150 329 150 246 m 303 193 q 351 311 303 265 q 471 357 399 357 q 592 310 544 357 q 639 190 639 264 q 592 71 639 118 q 471 24 544 24 q 351 72 399 24 q 303 193 303 119 "},"ஸ":{"ha":1774,"x_min":83,"x_max":1690,"o":"m 838 0 l 899 0 l 899 354 q 916 522 899 449 q 971 638 933 596 q 1068 679 1008 679 q 1172 634 1131 679 q 1214 469 1214 589 l 1214 292 q 1244 110 1214 181 q 1328 8 1275 40 q 1447 -25 1381 -25 q 1581 19 1526 -25 q 1663 142 1635 63 q 1690 326 1690 221 q 1678 449 1690 381 q 1641 591 1667 518 q 1574 732 1615 664 l 1511 713 q 1576 586 1551 657 q 1613 446 1601 515 q 1625 324 1625 376 q 1578 111 1625 189 q 1447 33 1532 33 q 1324 93 1372 33 q 1275 292 1275 153 l 1275 468 q 1248 624 1275 564 q 1174 710 1221 683 q 1068 738 1128 738 q 933 683 983 738 q 858 539 882 629 q 721 685 811 633 q 511 738 631 738 q 281 685 376 738 q 134 540 185 632 q 83 329 83 449 q 131 147 83 226 q 265 21 178 67 q 471 -25 353 -25 q 591 3 539 -25 q 674 79 643 31 q 704 190 704 128 q 674 305 704 256 q 591 383 643 354 q 471 411 539 411 q 353 383 406 411 q 272 306 301 354 q 243 193 243 257 q 272 88 243 133 q 353 15 301 42 q 471 -11 406 -11 l 471 24 q 351 72 399 24 q 303 193 303 119 q 351 311 303 265 q 471 357 399 357 q 592 310 544 357 q 639 190 639 264 q 592 71 639 118 q 471 24 544 24 q 300 63 372 24 q 189 172 228 103 q 150 329 150 240 q 192 510 150 431 q 315 634 233 589 q 511 679 396 679 q 681 640 607 679 q 796 528 754 601 q 838 354 838 456 l 838 0 "},"ை":{"ha":1661,"x_min":83,"x_max":1578,"o":"m 1235 679 q 1390 641 1328 679 q 1482 535 1451 603 q 1513 376 1513 467 q 1501 258 1513 324 q 1464 124 1489 192 q 1399 0 1439 57 l 1461 -19 q 1550 188 1522 83 q 1578 374 1578 293 q 1539 561 1578 479 q 1424 690 1500 643 q 1235 738 1347 738 q 1054 698 1138 738 q 909 589 971 658 q 813 429 847 519 q 778 238 778 339 q 805 102 778 161 q 881 9 832 43 q 996 -25 931 -25 q 1110 9 1063 -25 q 1183 102 1157 43 q 1208 238 1208 161 q 1163 434 1208 343 q 1038 593 1118 525 q 851 699 958 661 q 621 738 744 738 q 336 683 457 738 q 149 533 215 628 q 83 317 83 439 q 133 141 83 218 q 271 19 183 64 q 471 -25 358 -25 q 591 3 539 -25 q 674 79 643 31 q 704 190 704 128 q 674 305 704 256 q 591 383 643 354 q 471 411 539 411 q 353 383 406 411 q 272 306 301 354 q 243 193 243 257 q 272 88 243 133 q 353 15 301 42 q 471 -11 406 -11 l 471 24 q 351 72 399 24 q 303 193 303 119 q 351 311 303 265 q 471 357 399 357 q 592 310 544 357 q 639 190 639 264 q 592 71 639 118 q 471 24 544 24 q 306 61 378 24 q 192 165 233 99 q 150 317 150 232 q 207 506 150 424 q 369 633 264 588 q 621 679 475 679 q 826 646 732 679 q 992 553 921 613 q 1102 413 1063 493 q 1142 238 1142 332 q 1103 91 1142 149 q 996 33 1065 33 q 885 91 926 33 q 844 238 844 149 q 874 409 844 329 q 956 549 903 489 q 1080 644 1008 610 q 1235 679 1151 679 "},"ஷ":{"ha":1860,"x_min":83,"x_max":1728,"o":"m 1728 664 l 1667 664 l 1667 49 l 765 49 l 765 0 l 1728 0 l 1728 664 m 1232 738 q 1116 710 1165 738 q 1040 635 1067 683 q 1013 526 1013 588 q 1047 407 1014 461 q 1142 321 1079 353 q 1290 289 1204 289 q 1464 335 1379 289 q 1615 462 1549 381 q 1717 646 1682 543 l 1667 664 q 1568 499 1629 571 q 1435 388 1507 428 q 1290 347 1363 347 q 1133 400 1189 347 q 1078 526 1078 453 q 1119 636 1078 593 q 1232 679 1160 679 q 1343 631 1306 679 q 1381 506 1381 583 l 1381 -337 l 1442 -337 l 1442 513 q 1417 628 1442 578 q 1345 708 1392 679 q 1232 738 1299 738 m 526 738 q 292 685 392 738 q 138 540 193 632 q 83 329 83 449 q 131 147 83 226 q 265 21 178 67 q 471 -25 353 -25 q 591 3 539 -25 q 674 79 643 31 q 704 190 704 128 q 674 305 704 256 q 591 383 643 354 q 471 411 539 411 q 353 383 406 411 q 272 306 301 354 q 243 193 243 257 q 272 88 243 133 q 353 15 301 42 q 471 -11 406 -11 l 471 24 q 351 72 399 24 q 303 193 303 119 q 351 311 303 265 q 471 357 399 357 q 592 310 544 357 q 639 190 639 264 q 592 71 639 118 q 471 24 544 24 q 300 63 372 24 q 189 172 228 103 q 150 329 150 240 q 196 510 150 431 q 326 634 242 589 q 526 679 411 679 q 719 638 638 679 q 844 522 800 596 q 888 354 888 449 q 853 179 888 257 q 765 49 818 101 l 839 36 q 922 177 890 93 q 953 354 953 261 q 900 552 953 465 q 752 688 847 639 q 526 738 657 738 "},"ா":{"ha":901,"x_min":139,"x_max":888,"o":"m 608 664 l 888 664 l 881 713 l 139 713 l 139 0 l 200 0 l 200 664 l 547 664 l 547 0 l 608 0 l 608 664 "},"ி":{"ha":339,"x_min":-504,"x_max":200,"o":"m -190 1107 q -358 1076 -287 1107 q -466 993 -428 1046 q -504 871 -504 940 q -469 763 -503 810 q -374 689 -436 715 q -226 663 -312 663 l -193 663 l -193 713 l -226 713 q -383 755 -328 713 q -437 871 -437 797 q -372 1000 -437 951 q -190 1049 -307 1049 q -14 1004 -87 1049 q 99 881 60 960 q 139 699 139 803 l 139 0 l 200 0 l 200 699 q 152 910 200 818 q 17 1054 104 1001 q -190 1107 -71 1107 "},"ț":{"ha":406,"x_min":28,"x_max":364,"o":"m 318 653 l 347 601 l 196 601 l 196 171 q 217 80 196 121 q 290 39 239 39 q 323 44 306 39 q 347 51 340 49 l 364 -1 q 340 -8 354 -4 q 308 -15 325 -12 q 272 -18 290 -18 q 197 3 229 -18 q 146 63 164 24 q 128 161 128 103 l 128 601 l 28 601 l 28 653 l 128 653 l 128 835 l 196 865 l 196 653 l 318 653 m 258 -35 q 298 -54 283 -35 q 313 -94 313 -74 q 299 -174 313 -136 q 258 -242 285 -212 q 193 -290 232 -271 l 171 -256 q 231 -208 207 -236 q 256 -142 254 -179 q 218 -122 231 -142 q 206 -89 206 -103 q 212 -62 206 -75 q 230 -42 218 -50 q 258 -35 242 -35 "},"வ":{"ha":1426,"x_min":83,"x_max":1288,"o":"m 888 354 q 853 179 888 257 q 765 49 818 101 l 765 0 l 1288 0 l 1288 713 l 1226 713 l 1226 49 l 850 49 q 925 185 897 106 q 953 354 953 265 q 900 552 953 465 q 752 688 847 639 q 526 738 657 738 q 292 685 392 738 q 138 540 193 632 q 83 329 83 449 q 131 147 83 226 q 265 21 178 67 q 471 -25 353 -25 q 591 3 539 -25 q 674 79 643 31 q 704 190 704 128 q 674 305 704 256 q 591 383 643 354 q 471 411 539 411 q 353 383 406 411 q 272 306 301 354 q 243 193 243 257 q 272 88 243 133 q 353 15 301 42 q 471 -11 406 -11 l 471 24 q 351 72 399 24 q 303 193 303 119 q 351 311 303 265 q 471 357 399 357 q 592 310 544 357 q 639 190 639 264 q 592 71 639 118 q 471 24 544 24 q 300 63 372 24 q 189 172 228 103 q 150 329 150 240 q 196 510 150 431 q 326 634 242 589 q 526 679 411 679 q 722 638 642 679 q 845 522 803 596 q 888 354 888 449 "},"ீ":{"ha":0,"x_min":-515,"x_max":54,"o":"m -228 1219 q -383 1183 -318 1219 q -481 1081 -447 1146 q -515 933 -515 1017 q -483 794 -515 856 q -392 699 -450 733 q -262 664 -335 664 l -262 713 q -358 741 -315 713 q -424 819 -400 769 q -449 933 -449 869 q -423 1051 -449 1000 q -348 1131 -397 1101 q -228 1160 -299 1160 q -100 1132 -150 1160 q -26 1056 -50 1104 q -1 944 -1 1007 q -23 890 -1 911 q -78 868 -44 868 q -134 890 -112 868 q -156 944 -156 911 q -134 998 -156 976 q -78 1019 -112 1019 q -23 998 -44 1019 q -1 944 -1 976 l 51 943 q 14 1036 51 1000 q -82 1072 -24 1072 q -181 1035 -143 1072 q -218 940 -219 997 q -176 852 -215 888 q -78 817 -137 817 q 17 858 -21 817 q 54 961 54 899 q 20 1088 54 1029 q -76 1183 -14 1147 q -228 1219 -139 1219 "},"ப":{"ha":981,"x_min":139,"x_max":842,"o":"m 842 713 l 781 713 l 781 49 l 200 49 l 200 719 l 139 713 l 139 0 l 842 0 l 842 713 "},"Ģ":{"ha":853,"x_min":69,"x_max":769,"o":"m 486 421 l 494 475 l 767 475 l 767 43 q 701 12 742 26 q 615 -11 660 -3 q 531 -19 571 -19 q 284 44 388 -19 q 125 219 181 108 q 69 467 69 329 q 104 666 69 575 q 202 824 139 757 q 351 927 265 890 q 539 964 438 964 q 613 958 568 964 q 701 942 657 953 q 769 913 744 931 l 743 867 q 688 888 715 879 q 626 902 660 897 q 542 907 592 907 q 383 874 456 907 q 258 783 311 842 q 175 643 204 724 q 146 467 146 563 q 195 247 146 343 q 331 95 244 150 q 529 40 418 40 q 622 50 579 40 q 699 72 664 60 l 699 421 l 486 421 m 532 -29 q 572 -49 557 -29 q 586 -89 586 -68 q 572 -169 586 -131 q 532 -236 558 -207 q 467 -285 506 -265 l 444 -250 q 504 -202 481 -231 q 529 -136 528 -174 q 492 -117 504 -136 q 479 -83 479 -97 q 485 -57 479 -69 q 503 -37 492 -44 q 532 -29 515 -29 "},"ட":{"ha":992,"x_min":139,"x_max":978,"o":"m 971 49 l 978 0 l 139 0 l 139 713 l 200 719 l 200 49 l 971 49 "},"ļ":{"ha":290,"x_min":61,"x_max":203,"o":"m 179 0 l 111 0 l 111 967 l 179 981 l 179 0 m 149 -29 q 188 -49 174 -29 q 203 -89 203 -68 q 189 -169 203 -131 q 149 -236 175 -207 q 83 -285 122 -265 l 61 -250 q 121 -202 97 -231 q 146 -136 144 -174 q 108 -117 121 -136 q 96 -83 96 -97 q 102 -57 96 -69 q 120 -37 108 -44 q 149 -29 132 -29 "},"௪":{"ha":1097,"x_min":69,"x_max":1028,"o":"m 1028 350 l 1028 713 l 967 713 l 967 357 l 1028 350 m 629 285 l 629 664 l 871 664 l 864 713 l 232 713 l 232 365 l 293 365 l 293 664 l 568 664 l 568 285 q 537 145 568 201 q 451 61 506 89 q 328 33 397 33 q 187 76 238 33 q 136 188 136 118 q 182 304 136 258 q 314 350 228 350 l 1028 350 l 1022 399 l 313 399 q 133 339 197 399 q 69 189 69 279 q 101 79 69 128 q 192 3 133 31 q 328 -25 250 -25 q 483 10 415 -25 q 590 114 551 44 q 629 285 629 183 "},"உ":{"ha":1339,"x_min":56,"x_max":1325,"o":"m 1325 0 l 1325 49 l 104 49 l 104 0 l 1325 0 m 72 379 l 119 379 q 165 480 119 440 q 282 519 211 519 q 388 478 346 519 q 429 376 429 438 q 385 273 429 314 q 275 232 342 232 q 163 273 207 232 q 119 379 119 314 q 159 535 119 468 q 271 641 199 603 q 440 679 343 679 q 603 641 533 679 q 712 535 672 603 q 751 379 751 468 q 712 209 751 283 q 602 92 672 135 q 439 49 532 49 l 439 7 q 643 54 558 7 q 773 185 728 101 q 818 379 818 269 q 769 564 818 483 q 635 691 721 644 q 440 738 550 738 q 238 692 325 738 q 103 565 151 646 q 56 382 56 485 q 84 275 56 322 q 163 201 113 228 q 275 174 213 174 q 389 200 339 174 q 467 272 439 226 q 496 376 496 318 q 468 478 496 433 q 392 547 440 522 q 282 572 344 572 q 174 545 222 572 q 99 474 126 518 q 72 379 72 429 "},"௶":{"ha":1319,"x_min":139,"x_max":1181,"o":"m 1181 -178 l 1181 713 l 1119 713 l 1119 -129 l 315 -129 q 181 -168 222 -129 q 139 -267 139 -207 q 177 -365 139 -324 q 283 -428 215 -407 q 436 -450 350 -450 q 645 -412 554 -450 q 789 -306 736 -375 q 842 -147 842 -237 l 842 139 l 781 139 l 781 -154 q 736 -276 781 -222 q 614 -360 692 -329 q 436 -390 536 -390 q 271 -360 336 -390 q 206 -267 206 -331 q 231 -203 206 -228 q 315 -178 257 -178 l 1181 -178 m 842 713 l 781 713 l 781 49 l 200 49 l 200 719 l 139 713 l 139 0 l 842 0 l 842 713 "},"ற":{"ha":1076,"x_min":125,"x_max":993,"o":"m 718 738 q 606 703 658 738 q 526 601 554 668 q 450 701 500 664 q 332 738 400 738 q 224 707 271 738 q 151 617 176 676 q 125 468 125 557 l 125 0 l 186 0 l 186 469 q 226 628 186 576 q 338 679 267 679 q 426 649 389 679 q 482 565 463 618 q 501 444 501 513 l 501 0 l 563 0 l 563 469 q 583 587 563 540 q 639 656 603 633 q 722 679 675 679 q 837 633 792 679 q 904 507 882 588 q 926 321 926 426 q 891 65 926 178 q 774 -114 856 -49 q 550 -179 692 -179 l 403 -179 q 235 -215 310 -179 q 125 -308 160 -251 l 172 -337 q 263 -258 203 -289 q 403 -228 322 -228 l 550 -228 q 808 -157 711 -228 q 949 38 906 -86 q 993 321 993 161 q 963 536 993 442 q 872 684 933 631 q 718 738 811 738 "},"௺":{"ha":1342,"x_min":139,"x_max":1342,"o":"m 1128 1004 q 1080 881 1128 931 q 939 832 1032 832 l 939 783 l 1342 783 l 1342 832 l 1103 832 q 1171 906 1147 861 q 1194 1004 1194 950 q 1160 1115 1194 1067 q 1067 1192 1126 1164 q 931 1219 1007 1219 q 797 1198 858 1219 q 690 1137 735 1176 q 621 1044 646 1097 q 596 928 596 990 q 614 843 596 882 q 666 781 632 804 q 747 758 700 758 q 825 781 792 758 q 877 843 858 804 q 896 928 896 882 q 860 1078 896 1013 q 763 1181 825 1143 q 619 1219 700 1219 q 472 1183 536 1219 q 370 1081 407 1146 q 333 933 333 1017 q 366 794 333 856 q 456 699 399 733 q 585 664 513 664 l 585 713 q 490 741 532 713 q 423 819 447 769 q 399 933 399 869 q 427 1051 399 1000 q 506 1131 456 1101 q 619 1160 556 1160 q 728 1130 681 1160 q 803 1048 776 1100 q 831 928 831 996 q 807 849 831 881 q 747 818 783 818 q 684 849 707 818 q 661 928 661 881 q 695 1049 661 997 q 790 1131 729 1101 q 931 1160 851 1160 q 1072 1117 1017 1160 q 1128 1004 1128 1075 m 714 476 q 613 454 658 476 q 536 392 568 432 l 536 664 l 815 664 l 808 713 l 139 713 l 139 0 l 200 0 l 200 664 l 475 664 l 475 0 l 536 0 l 536 231 q 585 365 536 313 q 710 418 633 418 q 832 351 793 418 q 871 174 871 283 q 836 -2 871 78 q 731 -131 801 -82 q 551 -179 660 -179 l 417 -179 q 248 -215 324 -179 q 139 -308 172 -251 l 186 -337 q 276 -258 217 -289 q 417 -228 336 -228 l 551 -228 q 766 -174 681 -228 q 894 -28 851 -119 q 936 171 936 63 q 912 330 936 261 q 838 438 888 399 q 714 476 789 476 "},"ŗ":{"ha":419,"x_min":46,"x_max":406,"o":"m 165 0 l 97 0 l 97 674 l 136 674 l 161 567 q 224 613 186 588 q 305 656 263 638 q 382 674 347 674 l 406 621 q 317 601 364 621 q 231 553 271 582 q 165 496 192 525 l 165 0 m 133 -29 q 173 -49 158 -29 q 188 -89 188 -68 q 174 -169 188 -131 q 133 -236 160 -207 q 68 -285 107 -265 l 46 -250 q 106 -202 82 -231 q 131 -136 129 -174 q 93 -117 106 -136 q 81 -83 81 -97 q 87 -57 81 -69 q 105 -37 93 -44 q 133 -29 117 -29 "},"௲":{"ha":1399,"x_min":69,"x_max":1343,"o":"m 1097 350 l 1286 350 l 1279 399 l 629 399 l 629 664 l 871 664 l 864 713 l 232 713 l 232 389 q 112 317 154 371 q 69 189 69 263 q 101 79 69 128 q 192 3 133 31 q 328 -25 250 -25 q 483 10 415 -25 q 590 114 551 44 q 629 285 629 183 l 629 350 l 1036 350 l 1036 186 l 849 186 q 699 138 751 186 q 646 17 646 90 q 672 -70 646 -32 q 744 -130 697 -108 q 851 -151 790 -151 q 983 -122 928 -151 q 1067 -38 1038 -93 q 1097 92 1097 17 l 1097 138 l 1124 138 q 1208 113 1174 138 q 1259 45 1242 88 q 1276 -53 1276 3 q 1210 -202 1276 -143 q 1026 -261 1143 -261 l 839 -261 q 710 -292 767 -261 q 626 -368 654 -324 l 675 -396 q 744 -334 699 -358 q 854 -310 790 -310 l 1026 -310 q 1194 -276 1124 -310 q 1304 -185 1265 -243 q 1343 -53 1343 -128 q 1317 71 1343 17 q 1242 156 1290 125 q 1124 186 1193 186 l 1097 186 l 1097 350 m 293 664 l 568 664 l 568 399 l 293 399 l 293 664 m 328 33 q 187 76 238 33 q 136 188 136 118 q 182 304 136 258 q 314 350 228 350 l 568 350 l 568 285 q 537 145 568 201 q 451 61 506 89 q 328 33 397 33 m 713 15 q 747 103 713 68 q 851 138 781 138 l 1036 138 l 1036 92 q 1015 -9 1036 32 q 952 -72 993 -50 q 851 -93 911 -93 q 750 -63 788 -93 q 713 15 713 -33 "},"௷":{"ha":1739,"x_min":83,"x_max":1725,"o":"m 872 399 l 872 664 l 1151 664 l 1144 713 l 535 713 q 287 665 388 713 q 135 531 186 617 q 83 329 83 444 q 131 147 83 226 q 265 21 178 67 q 471 -25 353 -25 q 591 3 539 -25 q 674 79 643 31 q 704 190 704 128 q 674 305 704 256 q 591 383 643 354 q 471 411 539 411 q 353 383 406 411 q 272 306 301 354 q 243 193 243 257 q 253 128 243 158 q 282 74 264 97 q 184 180 218 114 q 150 329 150 246 q 194 506 150 431 q 328 622 239 581 q 547 664 417 664 l 811 664 l 811 0 l 872 0 l 872 350 l 1040 350 q 1065 349 1053 350 q 1089 344 1078 347 q 1026 256 1049 307 q 1003 144 1003 206 q 1021 60 1003 99 q 1074 -2 1039 21 q 1156 -25 1108 -25 q 1233 -2 1200 -25 q 1285 60 1267 21 q 1304 144 1304 99 q 1276 259 1304 206 q 1200 347 1249 313 q 1265 369 1231 363 q 1339 376 1300 376 q 1472 332 1419 376 q 1524 214 1524 288 q 1478 97 1524 144 q 1347 49 1433 49 l 1347 0 l 1725 0 l 1725 49 l 1503 49 q 1568 119 1546 76 q 1590 214 1590 163 q 1558 330 1590 281 q 1469 407 1525 379 q 1339 435 1413 435 q 1230 421 1281 435 q 1138 382 1179 407 q 1091 394 1115 390 q 1040 399 1067 399 l 872 399 m 303 193 q 351 311 303 265 q 471 357 399 357 q 592 310 544 357 q 639 190 639 264 q 592 71 639 118 q 471 24 544 24 q 351 72 399 24 q 303 193 303 119 m 1069 144 q 1092 243 1069 199 q 1153 318 1114 288 q 1216 247 1193 292 q 1239 144 1239 201 q 1215 65 1239 97 q 1156 33 1192 33 q 1092 65 1115 33 q 1069 144 1069 97 "},"௫":{"ha":1696,"x_min":111,"x_max":1557,"o":"m 879 0 l 940 0 l 940 231 q 990 365 940 313 q 1115 418 1039 418 q 1203 386 1168 418 q 1257 299 1239 354 q 1275 174 1275 244 q 1211 -73 1275 29 q 1033 -229 1147 -175 q 768 -283 919 -283 q 522 -238 631 -283 q 335 -110 413 -193 q 218 88 258 -28 q 178 343 178 203 q 224 615 178 489 q 361 836 271 742 q 582 983 451 931 q 881 1036 713 1036 q 1121 998 1010 1036 q 1317 886 1232 960 q 1449 707 1401 813 q 1496 467 1496 601 l 1496 0 l 1557 0 l 1557 469 q 1505 733 1557 617 q 1360 929 1453 849 q 1145 1052 1268 1010 q 881 1094 1022 1094 q 555 1038 697 1094 q 313 878 413 981 q 163 640 214 776 q 111 346 111 504 q 156 65 111 192 q 288 -152 201 -61 q 495 -292 374 -243 q 768 -342 617 -342 q 1001 -307 896 -342 q 1182 -206 1106 -272 q 1299 -44 1258 -139 q 1340 171 1340 50 q 1315 328 1340 260 q 1239 437 1289 397 q 1118 476 1189 476 q 1017 454 1063 476 q 940 392 972 432 l 940 664 l 1219 664 l 1214 713 l 521 713 l 521 0 l 582 0 l 582 664 l 879 664 l 879 0 "},"ன":{"ha":1783,"x_min":83,"x_max":1769,"o":"m 1429 0 l 1490 0 l 1490 664 l 1769 664 l 1764 713 l 1290 713 q 1090 676 1183 713 q 927 576 997 640 q 817 425 857 511 q 778 238 778 339 q 804 102 778 161 q 879 9 831 43 q 993 -25 928 -25 q 1108 9 1060 -25 q 1182 102 1156 43 q 1208 238 1208 161 q 1163 434 1208 343 q 1038 593 1118 525 q 851 699 958 661 q 621 738 744 738 q 336 683 457 738 q 149 533 215 628 q 83 317 83 439 q 133 141 83 218 q 271 19 183 64 q 471 -25 358 -25 q 591 3 539 -25 q 674 79 643 31 q 704 190 704 128 q 674 305 704 256 q 591 383 643 354 q 471 411 539 411 q 353 383 406 411 q 272 306 301 354 q 243 193 243 257 q 272 88 243 133 q 353 15 301 42 q 471 -11 406 -11 l 471 24 q 351 72 399 24 q 303 193 303 119 q 351 311 303 265 q 471 357 399 357 q 592 310 544 357 q 639 190 639 264 q 592 71 639 118 q 471 24 544 24 q 306 61 378 24 q 192 165 233 99 q 150 317 150 232 q 207 506 150 424 q 369 633 264 588 q 621 679 475 679 q 826 646 732 679 q 992 553 921 613 q 1102 413 1063 493 q 1142 238 1142 332 q 1102 91 1142 149 q 993 33 1063 33 q 884 91 924 33 q 844 238 844 149 q 878 404 844 326 q 974 540 913 482 q 1116 631 1035 599 q 1290 664 1197 664 l 1429 664 l 1429 0 "},"ஂ":{"ha":0,"x_min":-144,"x_max":144,"o":"m 0 886 q -72 904 -39 886 q -124 953 -104 922 q -144 1024 -144 985 q -124 1097 -144 1065 q -70 1145 -103 1128 q 0 1163 -37 1163 q 73 1145 40 1163 q 125 1097 106 1128 q 144 1024 144 1065 q 126 953 144 985 q 74 904 107 922 q 0 886 42 886 m 0 938 q 62 962 38 938 q 86 1024 86 986 q 62 1085 86 1061 q 0 1110 38 1110 q -60 1085 -36 1110 q -85 1024 -85 1061 q -60 962 -85 986 q 0 938 -36 938 "},"ள":{"ha":1665,"x_min":83,"x_max":1651,"o":"m 150 329 q 192 510 150 431 q 317 634 235 589 q 514 679 399 679 q 701 632 619 679 q 828 503 782 585 q 875 317 875 422 l 875 0 l 936 0 l 936 664 l 1311 664 l 1311 0 l 1372 0 l 1372 664 l 1651 664 l 1644 713 l 875 713 l 875 533 q 729 683 824 628 q 514 738 635 738 q 283 685 379 738 q 135 540 186 632 q 83 329 83 449 q 131 147 83 226 q 265 21 178 67 q 471 -25 353 -25 q 591 3 539 -25 q 674 79 643 31 q 704 190 704 128 q 674 305 704 256 q 591 383 643 354 q 471 411 539 411 q 353 383 406 411 q 272 306 301 354 q 243 193 243 257 q 272 88 243 133 q 353 15 301 42 q 471 -11 406 -11 l 471 24 q 351 72 399 24 q 303 193 303 119 q 351 311 303 265 q 471 357 399 357 q 592 310 544 357 q 639 190 639 264 q 592 71 639 118 q 471 24 544 24 q 300 63 372 24 q 189 172 228 103 q 150 329 150 240 "},"ņ":{"ha":694,"x_min":97,"x_max":603,"o":"m 165 0 l 97 0 l 97 674 l 150 674 l 164 568 q 233 629 193 601 q 317 674 272 657 q 403 692 361 692 q 519 663 475 692 q 583 583 563 633 q 603 468 603 533 l 603 0 l 535 0 l 535 468 q 510 586 535 538 q 408 635 485 635 q 327 617 368 635 q 245 569 286 600 q 165 499 204 539 l 165 0 m 353 -29 q 392 -49 378 -29 q 407 -89 407 -68 q 393 -169 407 -131 q 353 -236 379 -207 q 288 -285 326 -265 l 265 -250 q 325 -202 301 -231 q 350 -136 349 -174 q 313 -117 325 -136 q 300 -83 300 -97 q 306 -57 300 -69 q 324 -37 313 -44 q 353 -29 336 -29 "},"௮":{"ha":1465,"x_min":56,"x_max":1326,"o":"m 1326 -175 l 1265 -175 l 1265 713 l 1326 713 l 1326 -175 m 1265 125 l 1265 174 l 1013 174 q 1028 244 1024 208 q 1033 319 1033 281 q 1007 486 1033 410 q 931 619 981 563 q 812 706 882 675 q 654 738 742 738 q 486 697 560 738 q 370 586 413 657 q 328 424 328 515 q 365 278 328 343 q 467 174 403 213 l 203 174 q 93 137 131 174 q 56 43 56 100 q 107 -81 56 -26 q 249 -168 158 -136 q 454 -200 339 -200 q 692 -160 583 -200 q 878 -46 800 -119 q 996 125 957 28 l 1265 125 m 394 424 q 428 555 394 497 q 520 646 461 613 q 654 679 579 679 q 822 633 753 679 q 929 506 892 588 q 967 319 967 425 q 961 244 967 281 q 944 174 956 207 l 647 174 q 517 206 574 174 q 427 295 460 239 q 394 424 394 351 m 454 -142 q 282 -118 357 -142 q 165 -53 207 -94 q 122 43 122 -11 q 142 102 122 79 q 208 125 161 125 l 925 125 q 745 -69 869 3 q 454 -142 621 -142 "},"௹":{"ha":1451,"x_min":111,"x_max":1368,"o":"m 582 0 l 582 664 l 907 664 l 907 0 l 968 0 l 968 231 q 1017 365 968 313 q 1143 418 1067 418 q 1231 386 1196 418 q 1285 299 1267 354 q 1303 174 1303 244 q 1267 -10 1303 74 q 1165 -154 1232 -93 q 1006 -249 1099 -215 q 796 -283 913 -283 q 532 -235 647 -283 q 338 -99 417 -186 q 218 109 258 -11 q 178 371 178 229 q 224 700 178 554 q 354 949 269 846 q 553 1106 439 1051 q 806 1160 668 1160 q 988 1137 901 1160 q 1129 1072 1074 1114 q 1019 1038 1061 1075 q 979 940 976 1000 q 1020 852 981 888 q 1118 817 1060 817 q 1213 853 1175 817 q 1251 954 1251 890 q 1218 1049 1251 1003 q 1125 1135 1185 1096 q 984 1197 1065 1174 q 806 1219 903 1219 q 528 1160 656 1219 q 308 989 401 1100 q 163 722 214 878 q 111 374 111 567 q 157 88 111 218 q 290 -140 203 -43 q 505 -289 378 -236 q 796 -342 632 -342 q 1032 -303 926 -342 q 1213 -197 1138 -265 q 1328 -34 1288 -128 q 1368 171 1368 60 q 1342 328 1368 260 q 1267 437 1317 397 q 1146 476 1217 476 q 1044 454 1090 476 q 968 392 999 432 l 968 664 l 1247 664 l 1242 713 l 521 713 l 521 0 l 582 0 m 1036 944 q 1060 1003 1036 981 q 1118 1026 1083 1026 q 1179 1003 1156 1026 q 1203 944 1203 981 q 1179 885 1203 908 q 1118 861 1156 861 q 1060 885 1083 861 q 1036 944 1036 908 "},"ொ":{"ha":2650,"x_min":83,"x_max":2608,"o":"m 949 479 q 897 727 949 625 q 750 883 844 829 q 526 938 656 938 q 292 875 392 938 q 138 703 193 813 q 83 454 83 594 q 133 207 83 315 q 271 37 183 99 q 471 -25 358 -25 q 591 3 539 -25 q 674 79 643 31 q 704 190 704 128 q 674 305 704 256 q 591 383 643 354 q 471 411 539 411 q 353 383 406 411 q 272 306 301 354 q 243 193 243 257 q 272 88 243 133 q 353 15 301 42 q 471 -11 406 -11 l 471 24 q 351 72 399 24 q 303 193 303 119 q 351 311 303 265 q 471 357 399 357 q 592 310 544 357 q 639 190 639 264 q 592 71 639 118 q 471 24 544 24 q 306 79 378 24 q 192 232 233 135 q 150 454 150 329 q 196 675 150 579 q 326 825 242 771 q 526 879 411 879 q 719 833 638 879 q 844 699 800 788 q 888 479 888 610 l 888 0 l 949 0 l 949 479 m 2329 664 l 2608 664 l 2601 713 l 1860 713 l 1860 0 l 1921 0 l 1921 664 l 2268 664 l 2268 0 l 2329 0 l 2329 664 m 1408 638 q 1379 649 1390 638 q 1368 678 1368 660 q 1379 708 1368 696 q 1408 719 1390 719 q 1438 708 1426 719 q 1449 678 1449 696 q 1438 649 1449 660 q 1408 638 1426 638 m 1533 617 q 1493 657 1493 617 q 1504 686 1493 675 q 1533 697 1515 697 q 1563 686 1551 697 q 1574 657 1574 675 q 1563 628 1574 639 q 1533 617 1551 617 m 1285 697 q 1314 686 1303 697 q 1325 657 1325 675 q 1314 628 1325 639 q 1285 617 1303 617 q 1256 628 1267 617 q 1244 657 1244 639 q 1256 686 1244 675 q 1285 697 1267 697 m 1639 546 q 1610 557 1621 546 q 1599 586 1599 568 q 1610 616 1599 604 q 1639 628 1621 628 q 1669 616 1657 628 q 1681 586 1681 604 q 1669 557 1681 568 q 1639 546 1657 546 m 1179 628 q 1208 616 1197 628 q 1219 586 1219 604 q 1208 557 1219 568 q 1179 546 1197 546 q 1149 557 1161 546 q 1138 586 1138 568 q 1149 616 1138 604 q 1179 628 1161 628 m 1706 436 q 1676 447 1688 436 q 1665 476 1665 458 q 1676 506 1665 494 q 1706 518 1688 518 q 1735 506 1724 518 q 1746 476 1746 494 q 1735 447 1746 458 q 1706 436 1724 436 m 1113 518 q 1142 506 1131 518 q 1153 476 1153 494 q 1142 447 1153 458 q 1113 436 1131 436 q 1083 447 1094 436 q 1071 476 1071 458 q 1083 506 1071 494 q 1113 518 1094 518 m 1725 318 q 1696 328 1707 318 q 1685 357 1685 339 q 1696 388 1685 376 q 1725 399 1707 399 q 1755 388 1743 399 q 1767 357 1767 376 q 1755 328 1767 339 q 1725 318 1743 318 m 1093 399 q 1122 388 1111 399 q 1133 357 1133 376 q 1122 328 1133 339 q 1093 318 1111 318 q 1063 328 1075 318 q 1051 357 1051 339 q 1063 388 1051 376 q 1093 399 1075 399 m 1706 201 q 1676 213 1688 201 q 1665 242 1665 224 q 1676 271 1665 260 q 1706 282 1688 282 q 1735 271 1724 282 q 1746 242 1746 260 q 1735 213 1746 224 q 1706 201 1724 201 m 1113 282 q 1142 271 1131 282 q 1153 242 1153 260 q 1142 213 1153 224 q 1113 201 1131 201 q 1083 213 1094 201 q 1071 242 1071 224 q 1083 271 1071 260 q 1113 282 1094 282 m 1640 90 q 1611 101 1622 90 q 1600 131 1600 113 q 1611 160 1600 149 q 1640 171 1622 171 q 1670 160 1658 171 q 1682 131 1682 149 q 1670 101 1682 113 q 1640 90 1658 90 m 1178 171 q 1207 160 1196 171 q 1218 131 1218 149 q 1207 101 1218 113 q 1178 90 1196 90 q 1148 101 1160 90 q 1136 131 1136 113 q 1148 160 1136 149 q 1178 171 1160 171 m 1285 103 q 1314 91 1303 103 q 1325 61 1325 79 q 1314 32 1325 43 q 1285 21 1303 21 q 1256 32 1267 21 q 1244 61 1244 43 q 1256 91 1244 79 q 1285 103 1267 103 m 1533 21 q 1504 32 1515 21 q 1493 61 1493 43 q 1504 91 1493 79 q 1533 103 1515 103 q 1563 91 1551 103 q 1574 61 1574 79 q 1563 32 1574 43 q 1533 21 1551 21 m 1408 0 q 1379 11 1390 0 q 1368 40 1368 22 q 1379 70 1368 58 q 1408 82 1390 82 q 1438 70 1426 82 q 1449 40 1449 58 q 1438 11 1449 22 q 1408 0 1426 0 "},"௴":{"ha":1608,"x_min":139,"x_max":1608,"o":"m 200 49 l 746 49 q 865 84 822 49 q 924 181 907 119 q 942 321 942 243 q 917 506 942 425 q 847 633 893 588 q 733 679 800 679 q 622 638 667 679 q 578 494 578 597 l 578 26 l 517 14 l 517 493 q 544 631 517 576 q 619 711 571 685 q 729 738 668 738 q 879 684 817 738 q 975 536 942 631 q 1008 321 1008 442 q 982 156 1008 228 q 898 42 956 83 q 746 0 840 0 l 139 0 l 139 713 l 200 719 l 200 49 m 1608 783 l 1206 783 l 1206 832 q 1347 881 1299 832 q 1394 1004 1394 931 q 1339 1117 1394 1075 q 1196 1160 1283 1160 q 1057 1131 1118 1160 q 962 1049 996 1101 q 928 928 928 997 q 950 849 928 881 q 1014 818 972 818 q 1073 849 1050 818 q 1096 928 1096 881 q 1069 1048 1096 996 q 994 1130 1042 1100 q 885 1160 947 1160 q 772 1131 822 1160 q 694 1051 722 1101 q 665 933 665 1000 q 699 802 665 857 q 788 725 732 747 l 707 708 q 628 803 657 744 q 599 933 599 861 q 635 1081 599 1017 q 738 1183 672 1146 q 885 1219 803 1219 q 1028 1181 965 1219 q 1126 1078 1090 1143 q 1163 928 1163 1013 q 1144 843 1163 882 q 1092 781 1125 804 q 1014 758 1058 758 q 932 781 967 758 q 879 843 897 804 q 861 928 861 882 q 886 1044 861 990 q 956 1137 911 1097 q 1063 1198 1001 1176 q 1196 1219 1124 1219 q 1332 1192 1272 1219 q 1426 1115 1392 1164 q 1460 1004 1460 1067 q 1437 905 1460 950 q 1369 832 1414 860 l 1608 832 l 1608 783 "},"க":{"ha":1004,"x_min":69,"x_max":949,"o":"m 629 285 l 629 664 l 871 664 l 864 713 l 232 713 l 232 365 l 293 365 l 293 664 l 568 664 l 568 285 q 537 145 568 201 q 451 61 506 89 q 328 33 397 33 q 187 76 238 33 q 136 188 136 118 q 182 304 136 258 q 314 350 228 350 l 701 350 q 837 306 792 350 q 882 194 882 261 q 832 72 882 119 q 683 24 782 24 l 683 -25 q 826 3 767 -25 q 917 82 886 32 q 949 194 949 132 q 919 300 949 254 q 833 372 889 346 q 700 399 778 399 l 313 399 q 133 339 197 399 q 69 189 69 279 q 101 79 69 128 q 192 3 133 31 q 328 -25 250 -25 q 483 10 415 -25 q 590 114 551 44 q 629 285 629 183 "},"ு":{"ha":639,"x_min":-200,"x_max":583,"o":"m 350 664 q 471 617 424 664 q 518 497 518 571 q 471 378 518 425 q 350 331 424 331 q 230 376 278 331 q 182 494 182 422 q 230 616 182 568 q 350 664 278 664 l 350 711 q 233 683 285 711 q 151 606 181 656 q 122 494 122 557 q 151 383 122 432 q 233 305 181 333 q 350 276 285 276 q 470 305 418 276 q 553 383 522 333 q 583 497 583 433 q 553 608 583 560 q 470 685 522 657 q 350 713 418 713 l -200 713 l -200 664 l 350 664 "},"௦":{"ha":1011,"x_min":83,"x_max":928,"o":"m 506 738 q 286 689 381 738 q 138 554 192 640 q 83 357 85 468 q 138 159 85 246 q 286 24 192 72 q 506 -25 381 -25 q 726 24 631 -25 q 874 159 821 72 q 928 357 928 246 q 874 554 928 468 q 726 689 821 640 q 506 738 631 738 m 506 33 q 317 76 397 33 q 194 191 238 118 q 150 357 151 264 q 194 522 150 450 q 317 637 238 594 q 506 679 397 679 q 695 637 615 679 q 819 522 775 594 q 863 357 864 450 q 819 191 863 264 q 695 76 775 118 q 506 33 615 33 "},"எ":{"ha":1165,"x_min":83,"x_max":1151,"o":"m 872 664 l 1151 664 l 1144 713 l 650 713 l 651 664 l 811 664 l 811 0 l 872 0 l 872 664 m 150 329 q 194 506 150 431 q 328 622 239 581 q 547 664 417 664 l 785 664 l 785 713 l 535 713 q 287 665 388 713 q 135 531 186 617 q 83 329 83 444 q 131 147 83 226 q 265 21 178 67 q 471 -25 353 -25 q 591 3 539 -25 q 674 79 643 31 q 704 190 704 128 q 674 305 704 256 q 591 383 643 354 q 471 411 539 411 q 353 383 406 411 q 272 306 301 354 q 243 193 243 257 q 272 88 243 133 q 353 15 301 42 q 471 -11 406 -11 l 471 24 q 351 72 399 24 q 303 193 303 119 q 351 311 303 265 q 471 357 399 357 q 592 310 544 357 q 639 190 639 264 q 592 71 639 118 q 471 24 544 24 q 300 63 372 24 q 189 172 228 103 q 150 329 150 240 "},"ௗ":{"ha":1665,"x_min":83,"x_max":1651,"o":"m 150 329 q 192 510 150 431 q 317 634 235 589 q 514 679 399 679 q 701 632 619 679 q 828 503 782 585 q 875 317 875 422 l 875 0 l 936 0 l 936 664 l 1311 664 l 1311 0 l 1372 0 l 1372 664 l 1651 664 l 1644 713 l 875 713 l 875 533 q 729 683 824 628 q 514 738 635 738 q 283 685 379 738 q 135 540 186 632 q 83 329 83 449 q 131 147 83 226 q 265 21 178 67 q 471 -25 353 -25 q 591 3 539 -25 q 674 79 643 31 q 704 190 704 128 q 674 305 704 256 q 591 383 643 354 q 471 411 539 411 q 353 383 406 411 q 272 306 301 354 q 243 193 243 257 q 272 88 243 133 q 353 15 301 42 q 471 -11 406 -11 l 471 24 q 351 72 399 24 q 303 193 303 119 q 351 311 303 265 q 471 357 399 357 q 592 310 544 357 q 639 190 639 264 q 592 71 639 118 q 471 24 544 24 q 300 63 372 24 q 189 172 228 103 q 150 329 150 240 "},"ஃ":{"ha":931,"x_min":83,"x_max":847,"o":"m 465 456 q 394 473 426 456 q 341 522 361 490 q 321 593 321 553 q 342 665 321 633 q 395 714 363 696 q 465 732 428 732 q 537 714 504 732 q 590 665 569 696 q 610 593 610 633 q 590 522 610 553 q 538 473 571 490 q 465 456 506 456 m 465 507 q 527 531 503 507 q 551 593 551 556 q 527 655 551 631 q 465 679 503 679 q 403 655 428 679 q 379 593 379 631 q 403 531 379 556 q 465 507 428 507 m 228 -19 q 156 -1 189 -19 q 103 48 124 17 q 83 119 83 79 q 104 191 83 160 q 158 240 125 222 q 228 257 190 257 q 299 240 267 257 q 352 191 332 222 q 372 119 372 160 q 353 48 372 79 q 301 -1 333 17 q 228 -19 268 -19 m 703 -19 q 631 -1 664 -19 q 578 48 599 17 q 558 119 558 79 q 579 191 558 160 q 633 240 600 222 q 703 257 665 257 q 774 240 742 257 q 827 191 807 222 q 847 119 847 160 q 828 48 847 79 q 776 -1 808 17 q 703 -19 743 -19 m 228 32 q 290 57 265 32 q 314 119 314 82 q 290 182 314 157 q 228 207 265 207 q 166 182 190 207 q 142 119 142 157 q 166 57 142 82 q 228 32 190 32 m 703 32 q 765 57 740 32 q 789 119 789 82 q 765 181 789 157 q 703 206 740 206 q 641 181 665 206 q 617 119 617 157 q 641 57 617 82 q 703 32 665 32 "},"ல":{"ha":1399,"x_min":83,"x_max":1315,"o":"m 1135 713 q 1200 586 1175 657 q 1237 446 1225 515 q 1249 324 1249 376 q 1202 111 1249 189 q 1071 33 1156 33 q 947 93 996 33 q 899 292 899 153 l 899 354 q 849 558 899 472 q 711 690 799 643 q 511 738 624 738 q 281 685 376 738 q 134 540 185 632 q 83 329 83 449 q 131 147 83 226 q 265 21 178 67 q 471 -25 353 -25 q 591 3 539 -25 q 674 79 643 31 q 704 190 704 128 q 674 305 704 256 q 591 383 643 354 q 471 411 539 411 q 353 383 406 411 q 272 306 301 354 q 243 193 243 257 q 272 88 243 133 q 353 15 301 42 q 471 -11 406 -11 l 471 24 q 351 72 399 24 q 303 193 303 119 q 351 311 303 265 q 471 357 399 357 q 592 310 544 357 q 639 190 639 264 q 592 71 639 118 q 471 24 544 24 q 300 63 372 24 q 189 172 228 103 q 150 329 150 240 q 192 510 150 431 q 315 634 233 589 q 511 679 396 679 q 681 640 607 679 q 796 528 754 601 q 838 354 838 456 l 838 292 q 868 110 838 181 q 951 8 899 40 q 1071 -25 1004 -25 q 1204 19 1150 -25 q 1287 142 1258 63 q 1315 326 1315 221 q 1303 449 1315 381 q 1265 591 1290 518 q 1197 732 1239 664 l 1135 713 "},"Ļ":{"ha":682,"x_min":139,"x_max":668,"o":"m 661 54 l 668 0 l 139 0 l 139 944 l 207 944 l 207 54 l 661 54 m 426 -29 q 466 -49 451 -29 q 481 -89 481 -68 q 467 -169 481 -131 q 426 -236 453 -207 q 361 -285 400 -265 l 339 -250 q 399 -202 375 -231 q 424 -136 422 -174 q 386 -117 399 -136 q 374 -83 374 -97 q 380 -57 374 -69 q 398 -37 386 -44 q 426 -29 410 -29 "},"௵":{"ha":2390,"x_min":111,"x_max":2307,"o":"m 847 738 q 615 685 714 738 q 460 540 515 632 q 406 329 406 449 q 453 147 406 226 q 588 21 500 67 q 793 -25 675 -25 q 913 3 861 -25 q 996 79 965 31 q 1026 190 1026 128 q 996 305 1026 256 q 913 383 965 354 q 793 411 861 411 q 675 383 726 411 q 594 306 624 354 q 565 193 565 257 q 594 88 565 133 q 675 15 624 42 q 793 -11 726 -11 l 793 24 q 672 72 719 24 q 625 193 625 119 q 672 311 625 265 q 793 357 719 357 q 913 310 867 357 q 960 190 960 264 q 913 71 960 118 q 793 24 867 24 q 621 63 693 24 q 510 172 549 103 q 471 329 471 240 q 517 510 471 431 q 647 634 563 589 q 847 679 732 679 q 1044 638 964 679 q 1167 522 1125 596 q 1208 354 1208 449 q 1174 179 1208 257 q 1086 49 1139 101 l 1160 36 q 1244 177 1213 93 q 1275 354 1275 261 q 1222 552 1275 465 q 1074 688 1169 639 q 847 738 978 738 m 2085 476 q 1984 454 2029 476 q 1907 392 1939 432 l 1907 664 l 2186 664 l 2181 713 l 1497 713 l 1497 49 l 1086 49 l 1086 0 l 1558 0 l 1558 664 l 1846 664 l 1846 0 l 1907 0 l 1907 231 q 1956 365 1907 313 q 2081 418 2006 418 q 2201 349 2160 418 q 2242 174 2242 281 q 2195 -29 2242 54 q 2065 -165 2149 -112 q 1868 -241 1981 -217 q 1624 -265 1756 -265 l 801 -265 q 471 -197 611 -265 q 254 -10 331 -129 q 178 261 178 108 q 203 428 178 342 q 271 592 228 515 q 369 713 314 668 l 306 726 q 206 595 250 675 q 136 428 161 515 q 111 264 111 340 q 160 33 111 139 q 299 -150 208 -72 q 516 -271 389 -228 q 801 -314 643 -314 l 1624 -314 q 1899 -288 1774 -314 q 2115 -206 2024 -262 q 2257 -56 2207 -149 q 2307 171 2307 36 q 2281 328 2307 260 q 2206 437 2256 397 q 2085 476 2156 476 "},"இ":{"ha":1431,"x_min":56,"x_max":1292,"o":"m 681 738 q 849 699 782 738 q 951 595 917 661 q 985 444 985 529 q 954 291 985 372 q 869 128 924 210 q 742 -25 814 47 q 590 -153 671 -97 q 422 -242 508 -210 q 254 -275 336 -275 q 106 -235 157 -275 q 56 -132 56 -194 q 101 6 56 -57 q 224 115 146 68 q 403 186 303 161 q 617 211 504 211 q 805 186 715 211 q 964 115 894 161 q 1074 6 1033 68 q 1114 -132 1114 -57 q 1063 -235 1114 -194 q 915 -275 1013 -275 q 693 -235 801 -275 q 491 -122 585 -194 q 326 46 397 -50 q 215 253 256 142 q 175 485 175 365 q 217 697 175 604 q 338 855 260 790 q 521 953 415 919 q 753 988 626 988 q 968 953 869 988 q 1140 853 1067 918 q 1252 699 1213 789 q 1292 497 1292 608 l 1292 -206 l 1231 -206 l 1231 494 q 1169 725 1231 628 q 1001 876 1108 822 q 753 929 893 929 q 487 877 603 929 q 306 726 371 825 q 240 485 240 628 q 277 267 240 371 q 378 74 314 163 q 529 -79 443 -14 q 714 -181 615 -144 q 915 -217 813 -217 q 1017 -194 986 -217 q 1049 -132 1049 -171 q 1013 -17 1049 -69 q 917 73 978 35 q 778 132 856 111 q 617 153 701 153 q 431 132 519 153 q 272 73 342 111 q 163 -17 203 35 q 122 -132 122 -69 q 153 -194 122 -171 q 254 -217 185 -217 q 436 -174 343 -217 q 615 -60 529 -131 q 769 99 701 11 q 878 276 838 186 q 918 444 918 365 q 860 613 918 547 q 681 679 803 679 q 508 619 575 679 q 440 457 440 558 q 472 385 440 414 q 551 353 504 356 q 632 381 600 351 q 664 457 664 410 q 633 532 664 503 q 553 561 601 561 q 473 532 506 561 q 440 457 440 503 l 403 457 q 423 538 403 503 q 478 592 443 572 q 553 613 513 613 q 677 568 628 613 q 725 457 726 524 q 675 343 724 388 q 551 300 626 299 q 433 347 479 301 q 386 461 386 393 q 424 603 386 542 q 528 701 461 665 q 681 738 594 738 "},"ந":{"ha":1019,"x_min":139,"x_max":936,"o":"m 714 476 q 613 454 658 476 q 536 392 568 432 l 536 664 l 815 664 l 808 713 l 139 713 l 139 0 l 200 0 l 200 664 l 475 664 l 475 0 l 536 0 l 536 231 q 585 365 536 313 q 710 418 633 418 q 832 351 793 418 q 871 174 871 283 q 836 -2 871 78 q 731 -131 801 -82 q 551 -179 660 -179 l 417 -179 q 248 -215 324 -179 q 139 -308 172 -251 l 186 -337 q 276 -258 217 -289 q 417 -228 336 -228 l 551 -228 q 766 -174 681 -228 q 894 -28 851 -119 q 936 171 936 63 q 912 330 936 261 q 838 438 888 399 q 714 476 789 476 "},"ங":{"ha":1317,"x_min":139,"x_max":1178,"o":"m 536 664 l 815 664 l 808 713 l 139 713 l 139 0 l 200 0 l 200 664 l 475 664 l 475 197 l 536 197 l 536 664 m 1178 713 l 1117 713 l 1117 49 l 475 49 l 475 0 l 1178 0 l 1178 713 m 863 274 q 834 158 863 210 q 755 78 806 107 q 639 49 704 49 l 639 7 q 793 38 728 7 q 894 128 858 69 q 929 271 929 188 q 903 391 929 338 q 830 476 878 444 q 714 507 782 507 q 595 475 647 507 q 513 388 543 443 q 483 260 483 332 l 536 260 q 585 394 536 342 q 710 447 633 447 q 823 397 783 447 q 863 274 863 347 "},"ம":{"ha":1092,"x_min":139,"x_max":1008,"o":"m 200 49 l 746 49 q 865 84 822 49 q 924 181 907 119 q 942 321 942 243 q 917 506 942 425 q 847 633 893 588 q 733 679 800 679 q 622 638 667 679 q 578 494 578 597 l 578 26 l 517 14 l 517 493 q 544 631 517 576 q 619 711 571 685 q 729 738 668 738 q 879 684 817 738 q 975 536 942 631 q 1008 321 1008 442 q 982 156 1008 228 q 898 42 956 83 q 746 0 840 0 l 139 0 l 139 713 l 200 719 l 200 49 "},"௬":{"ha":1429,"x_min":69,"x_max":1415,"o":"m 1415 0 l 1415 49 l 1001 49 l 1001 0 l 1415 0 m 1201 219 q 1154 97 1201 146 q 1001 49 1107 49 l 1001 7 q 1151 34 1092 7 q 1239 109 1210 61 q 1268 218 1268 157 q 1242 331 1268 282 q 1167 407 1217 379 q 1046 435 1117 435 q 925 403 978 435 q 842 318 872 372 q 811 194 811 264 l 872 194 q 919 326 872 276 q 1042 376 965 376 q 1161 332 1121 376 q 1201 219 1201 288 m 629 285 l 629 664 l 871 664 l 864 713 l 232 713 l 232 365 l 293 365 l 293 664 l 568 664 l 568 285 q 537 145 568 201 q 451 61 506 89 q 328 33 397 33 q 187 76 238 33 q 136 188 136 118 q 182 304 136 258 q 314 350 228 350 l 628 350 q 765 306 718 350 q 811 194 811 261 l 811 0 l 872 0 l 872 194 q 844 300 872 254 q 761 372 815 346 q 628 399 707 399 l 313 399 q 133 339 197 399 q 69 189 69 279 q 101 79 69 128 q 192 3 133 31 q 328 -25 250 -25 q 483 10 415 -25 q 590 114 551 44 q 629 285 629 183 "},"த":{"ha":1018,"x_min":69,"x_max":949,"o":"m 663 350 q 777 319 728 350 q 854 233 826 288 q 882 107 882 178 q 841 -40 882 25 q 724 -142 800 -106 q 544 -179 649 -179 l 347 -179 q 178 -215 254 -179 q 69 -308 103 -251 l 117 -337 q 207 -258 147 -289 q 347 -228 267 -228 l 544 -228 q 758 -185 668 -228 q 899 -66 849 -142 q 949 107 949 10 q 912 258 949 192 q 810 361 875 324 q 661 399 746 399 l 313 399 q 133 339 197 399 q 69 189 69 279 q 101 79 69 128 q 192 3 133 31 q 328 -25 250 -25 q 483 10 415 -25 q 590 114 551 44 q 629 285 629 183 l 629 664 l 871 664 l 864 713 l 232 713 l 232 365 l 293 365 l 293 664 l 568 664 l 568 285 q 537 145 568 201 q 451 61 506 89 q 328 33 397 33 q 187 76 238 33 q 136 188 136 118 q 182 304 136 258 q 314 350 228 350 l 663 350 "},"௱":{"ha":1317,"x_min":125,"x_max":1303,"o":"m 125 0 l 186 0 l 186 469 q 233 634 186 589 q 350 679 279 679 q 481 613 436 679 q 526 444 526 547 l 526 0 l 588 0 l 588 664 l 963 664 l 963 0 l 1024 0 l 1024 664 l 1303 664 l 1296 713 l 526 713 l 526 640 q 453 712 497 686 q 350 738 408 738 q 234 710 285 738 q 154 624 183 683 q 125 468 125 564 l 125 0 "},"ஐ":{"ha":1168,"x_min":83,"x_max":1085,"o":"m 999 -69 q 954 -183 999 -140 q 821 -226 910 -226 q 717 -201 761 -226 q 648 -129 672 -175 q 624 -24 624 -83 l 624 72 l 563 72 l 563 -24 q 535 -129 563 -83 q 458 -201 507 -175 q 346 -226 410 -226 q 203 -176 257 -226 q 150 -44 150 -125 q 193 69 151 24 q 305 143 235 115 q 458 182 375 171 l 710 217 q 911 265 828 232 q 1040 354 994 297 q 1085 497 1085 411 q 1053 621 1085 567 q 966 706 1021 675 q 840 738 911 738 q 688 690 747 738 q 592 572 628 642 l 592 511 l 631 511 l 631 572 q 572 656 607 619 q 488 715 536 693 q 376 738 440 738 q 231 703 294 738 q 130 610 167 669 q 93 475 93 551 q 133 379 93 417 q 236 340 174 342 q 340 376 299 339 q 382 469 381 414 q 345 569 385 531 q 240 607 306 607 q 148 569 185 607 q 113 469 111 531 l 154 471 q 177 532 153 507 q 239 557 201 557 q 299 532 275 557 q 322 469 322 507 q 297 412 321 435 q 236 389 272 389 q 178 413 201 389 q 154 471 154 436 q 179 580 154 533 q 254 653 204 626 q 376 679 304 679 q 524 623 467 679 q 582 476 582 567 l 582 381 l 643 381 l 643 476 q 669 582 643 536 q 739 653 694 628 q 840 679 783 679 q 969 629 921 679 q 1018 497 1018 579 q 976 383 1018 431 q 864 308 933 336 q 710 269 794 281 l 458 236 q 259 187 343 221 q 129 97 175 153 q 83 -44 83 40 q 117 -168 83 -114 q 210 -253 150 -222 q 346 -285 269 -285 q 473 -262 422 -285 q 557 -203 524 -240 q 614 -119 590 -165 l 614 -42 l 572 -44 l 572 -119 q 626 -203 596 -165 q 703 -262 657 -240 q 821 -285 750 -285 q 953 -257 899 -285 q 1036 -181 1007 -229 q 1065 -69 1065 -132 q 1051 40 1065 -7 q 1013 140 1036 88 l 950 132 q 985 30 972 85 q 999 -69 999 -25 "},"Ŗ":{"ha":794,"x_min":139,"x_max":781,"o":"m 368 889 l 207 889 l 207 451 l 353 451 q 488 474 424 451 q 594 545 553 496 q 636 672 636 594 q 599 800 636 753 q 501 868 563 847 q 368 889 440 889 m 139 944 l 365 944 q 540 919 464 944 q 661 834 617 893 q 706 675 706 775 q 658 519 706 579 q 535 429 610 458 l 781 0 l 704 0 l 476 411 q 414 401 446 404 q 350 397 382 397 l 207 397 l 207 0 l 139 0 l 139 944 m 458 -29 q 498 -49 483 -29 q 513 -89 513 -68 q 499 -169 513 -131 q 458 -236 485 -207 q 393 -285 432 -265 l 371 -250 q 431 -202 407 -231 q 456 -136 454 -174 q 418 -117 431 -136 q 406 -83 406 -97 q 412 -57 406 -69 q 430 -37 418 -44 q 458 -29 442 -29 "},"௩":{"ha":1131,"x_min":139,"x_max":1117,"o":"m 536 664 l 815 664 l 808 713 l 139 713 l 139 0 l 200 0 l 200 664 l 475 664 l 475 197 l 536 197 l 536 664 m 1117 49 l 814 49 q 899 138 868 82 q 929 271 929 194 q 903 391 929 338 q 830 476 878 444 q 714 507 782 507 q 595 475 647 507 q 513 388 543 443 q 483 260 483 332 l 536 260 q 585 394 536 342 q 710 447 633 447 q 823 397 783 447 q 863 274 863 347 q 834 158 863 210 q 755 78 806 107 q 639 49 704 49 l 475 49 l 475 0 l 1117 0 l 1117 49 "},"௰":{"ha":1061,"x_min":83,"x_max":978,"o":"m 860 732 l 797 713 q 863 586 838 657 q 899 446 888 515 q 911 324 911 376 q 865 111 911 189 q 733 33 818 33 q 610 93 658 33 q 561 292 561 153 l 561 469 l 500 469 l 500 292 q 451 93 500 153 q 328 33 403 33 q 197 111 243 33 q 150 324 150 189 q 162 446 150 376 q 199 586 174 515 q 264 713 225 657 l 201 732 q 133 591 160 664 q 95 449 107 518 q 83 326 83 381 q 111 142 83 221 q 194 19 139 63 q 328 -25 249 -25 q 447 8 394 -25 q 531 111 500 40 q 613 8 560 40 q 733 -25 665 -25 q 867 19 813 -25 q 949 142 921 63 q 978 326 978 221 q 965 449 978 381 q 927 591 953 518 q 860 732 901 664 "},"ச":{"ha":926,"x_min":69,"x_max":871,"o":"m 629 285 l 629 664 l 871 664 l 864 713 l 232 713 l 232 365 l 293 365 l 293 664 l 568 664 l 568 285 q 537 145 568 201 q 451 61 506 89 q 328 33 397 33 q 187 76 238 33 q 136 188 136 118 q 182 304 136 258 q 314 350 228 350 l 871 350 l 864 399 l 313 399 q 133 339 197 399 q 69 189 69 279 q 101 79 69 128 q 192 3 133 31 q 328 -25 250 -25 q 483 10 415 -25 q 590 114 551 44 q 629 285 629 183 "},"ģ":{"ha":706,"x_min":56,"x_max":600,"o":"m 356 799 q 316 818 331 799 q 301 858 301 838 q 315 939 301 901 q 356 1006 329 976 q 421 1054 382 1036 l 443 1019 q 383 972 407 1000 q 358 906 360 943 q 386 896 375 906 q 403 874 397 886 q 408 853 408 863 q 402 826 408 839 q 385 806 396 814 q 356 799 374 799 m 600 674 l 600 -86 q 570 -206 600 -153 q 481 -289 540 -258 q 333 -319 422 -319 q 282 -315 313 -319 q 217 -303 251 -311 q 153 -285 183 -296 q 104 -262 124 -275 l 131 -214 q 222 -249 178 -235 q 331 -262 267 -262 q 474 -223 415 -262 q 532 -100 532 -183 l 532 572 l 563 674 l 600 674 m 539 138 l 567 90 q 505 33 539 58 q 431 -5 471 8 q 346 -18 392 -18 q 183 28 247 -18 q 87 155 118 74 q 56 340 56 236 q 89 521 56 442 q 190 646 122 600 q 356 692 257 692 q 443 675 400 692 q 521 635 486 658 q 574 592 556 613 l 546 546 q 464 607 511 579 q 353 635 417 635 q 228 594 279 635 q 152 488 178 554 q 126 342 126 421 q 150 190 126 260 q 222 80 174 121 q 346 39 271 39 q 459 68 415 39 q 539 138 503 97 "},"ோ":{"ha":2519,"x_min":83,"x_max":2478,"o":"m 150 457 q 201 672 150 576 q 341 825 251 768 q 546 882 431 882 q 667 874 621 882 q 736 849 713 867 q 767 803 760 832 q 775 731 775 774 q 740 638 775 675 q 650 601 704 601 q 560 639 596 601 q 525 732 525 676 q 560 826 525 789 q 651 864 596 864 q 740 826 704 864 q 775 731 775 788 l 822 750 l 778 853 l 669 915 l 653 915 q 554 892 597 915 q 487 826 511 868 q 463 732 463 785 q 486 637 463 679 q 552 571 510 594 q 647 547 594 547 q 746 571 703 547 q 814 636 789 594 q 839 731 839 678 q 803 840 839 794 q 703 912 767 886 q 558 938 640 938 q 363 900 450 938 q 213 797 275 863 q 117 644 150 731 q 83 457 83 557 q 117 269 83 357 q 213 116 150 182 q 363 13 275 50 q 558 -25 450 -25 q 703 1 640 -25 q 803 73 767 26 q 839 182 839 119 q 814 277 839 236 q 746 342 789 318 q 647 365 703 365 q 552 342 594 365 q 486 276 510 318 q 463 182 463 235 q 516 49 463 101 q 653 -3 569 -3 l 669 -3 l 778 60 l 822 163 l 775 182 q 740 87 775 125 q 651 49 704 49 q 560 87 596 49 q 525 182 525 125 q 560 275 525 239 q 650 311 596 311 q 740 275 704 311 q 775 182 775 239 q 767 110 775 139 q 736 65 760 82 q 667 40 713 47 q 546 32 621 32 q 341 88 431 32 q 201 241 251 144 q 150 457 150 338 m 2199 664 l 2478 664 l 2471 713 l 1729 713 l 1729 0 l 1790 0 l 1790 664 l 2138 664 l 2138 0 l 2199 0 l 2199 664 m 1272 638 q 1243 649 1254 638 q 1232 678 1232 660 q 1243 708 1232 696 q 1272 719 1254 719 q 1301 708 1290 719 q 1313 678 1313 696 q 1301 649 1313 660 q 1272 638 1290 638 m 1397 617 q 1357 657 1357 617 q 1368 686 1357 675 q 1397 697 1379 697 q 1426 686 1415 697 q 1438 657 1438 675 q 1426 628 1438 639 q 1397 617 1415 617 m 1149 697 q 1178 686 1167 697 q 1189 657 1189 675 q 1178 628 1189 639 q 1149 617 1167 617 q 1119 628 1131 617 q 1108 657 1108 639 q 1119 686 1108 675 q 1149 697 1131 697 m 1503 546 q 1474 557 1485 546 q 1463 586 1463 568 q 1474 616 1463 604 q 1503 628 1485 628 q 1533 616 1521 628 q 1544 586 1544 604 q 1533 557 1544 568 q 1503 546 1521 546 m 1043 628 q 1072 616 1061 628 q 1083 586 1083 604 q 1072 557 1083 568 q 1043 546 1061 546 q 1013 557 1025 546 q 1001 586 1001 568 q 1013 616 1001 604 q 1043 628 1025 628 m 1569 436 q 1540 447 1551 436 q 1529 476 1529 458 q 1540 506 1529 494 q 1569 518 1551 518 q 1599 506 1588 518 q 1610 476 1610 494 q 1599 447 1610 458 q 1569 436 1588 436 m 976 518 q 1006 506 994 518 q 1017 476 1017 494 q 1006 447 1017 458 q 976 436 994 436 q 947 447 958 436 q 935 476 935 458 q 947 506 935 494 q 976 518 958 518 m 1589 318 q 1560 328 1571 318 q 1549 357 1549 339 q 1560 388 1549 376 q 1589 399 1571 399 q 1619 388 1607 399 q 1631 357 1631 376 q 1619 328 1631 339 q 1589 318 1607 318 m 957 399 q 986 388 975 399 q 997 357 997 376 q 986 328 997 339 q 957 318 975 318 q 927 328 939 318 q 915 357 915 339 q 927 388 915 376 q 957 399 939 399 m 1569 201 q 1540 213 1551 201 q 1529 242 1529 224 q 1540 271 1529 260 q 1569 282 1551 282 q 1599 271 1588 282 q 1610 242 1610 260 q 1599 213 1610 224 q 1569 201 1588 201 m 976 282 q 1006 271 994 282 q 1017 242 1017 260 q 1006 213 1017 224 q 976 201 994 201 q 947 213 958 201 q 935 242 935 224 q 947 271 935 260 q 976 282 958 282 m 1504 90 q 1475 101 1486 90 q 1464 131 1464 113 q 1475 160 1464 149 q 1504 171 1486 171 q 1534 160 1522 171 q 1546 131 1546 149 q 1534 101 1546 113 q 1504 90 1522 90 m 1042 171 q 1071 160 1060 171 q 1082 131 1082 149 q 1071 101 1082 113 q 1042 90 1060 90 q 1012 101 1024 90 q 1000 131 1000 113 q 1012 160 1000 149 q 1042 171 1024 171 m 1149 103 q 1178 91 1167 103 q 1189 61 1189 79 q 1178 32 1189 43 q 1149 21 1167 21 q 1119 32 1131 21 q 1108 61 1108 43 q 1119 91 1108 79 q 1149 103 1131 103 m 1397 21 q 1368 32 1379 21 q 1357 61 1357 43 q 1368 91 1357 79 q 1397 103 1379 103 q 1426 91 1415 103 q 1438 61 1438 79 q 1426 32 1438 43 q 1397 21 1415 21 m 1272 0 q 1243 11 1254 0 q 1232 40 1232 22 q 1243 70 1232 58 q 1272 82 1254 82 q 1301 70 1290 82 q 1313 40 1313 58 q 1301 11 1313 22 q 1272 0 1290 0 "},"௯":{"ha":1283,"x_min":69,"x_max":1228,"o":"m 775 399 l 313 399 q 133 339 197 399 q 69 189 69 279 q 101 79 69 128 q 192 3 133 31 q 328 -25 250 -25 q 483 10 415 -25 q 590 114 551 44 q 629 285 629 183 l 629 664 l 871 664 l 864 713 l 232 713 l 232 365 l 293 365 l 293 664 l 568 664 l 568 285 q 537 145 568 201 q 451 61 506 89 q 328 33 397 33 q 187 76 238 33 q 136 188 136 118 q 182 304 136 258 q 314 350 228 350 l 776 350 q 881 324 836 350 q 952 251 926 297 q 978 144 978 204 q 955 65 978 97 q 896 33 932 33 q 828 65 854 33 q 801 144 801 97 q 828 267 801 215 q 903 348 856 319 q 1011 376 950 376 q 1121 329 1079 376 q 1163 201 1163 282 q 1149 102 1163 158 q 1114 0 1136 46 l 1176 -8 q 1214 92 1200 44 q 1228 201 1228 139 q 1200 322 1228 269 q 1124 404 1172 374 q 1011 435 1075 435 q 902 413 951 435 q 816 353 853 392 q 759 260 779 314 q 739 144 739 207 q 758 60 739 99 q 813 -2 778 21 q 896 -25 849 -25 q 974 -2 940 -25 q 1026 60 1007 21 q 1044 144 1044 99 q 1012 270 1044 213 q 919 363 979 328 q 775 399 860 399 "}}}
